<?xml version="1.0" encoding="utf-8"?>
<!-- Generator: Adobe Illustrator 24.0.1, SVG Export Plug-In . SVG Version: 6.00 Build 0)  -->
<svg version="1.1" id="Layer_1" xmlns="http://www.w3.org/2000/svg" xmlns:xlink="http://www.w3.org/1999/xlink" x="0px" y="0px"
	 viewBox="0 0 1000 1000" style="enable-background:new 0 0 1000 1000;" xml:space="preserve">
<style type="text/css">
	.st0{fill:#36303E;}
	.st1{fill:#403A46;}
	.st2{opacity:0.75;fill:#37333D;enable-background:new    ;}
	.st3{fill:none;stroke:#36303E;stroke-width:4;stroke-linecap:round;stroke-linejoin:round;stroke-miterlimit:10;}
	.st4{opacity:0.13;fill:#EDEDED;enable-background:new    ;}
	.st5{fill:none;stroke:#372F3C;stroke-width:4;stroke-linecap:round;stroke-linejoin:round;stroke-miterlimit:10;}
	.st6{fill:#FCAF43;}
	.st7{fill:#FA932A;}
	.st8{fill:#3BA2DC;}
	.st9{opacity:0.63;fill:#36303E;enable-background:new    ;}
	.st10{fill:#385A78;}
	.st11{fill:none;stroke:#385A78;stroke-width:6;stroke-linecap:round;stroke-linejoin:round;stroke-miterlimit:10;}
	.st12{opacity:0.76;fill:#3BA2DC;enable-background:new    ;}
	.st13{opacity:0.35;fill:#FFFFFF;enable-background:new    ;}
	.st14{opacity:0.35;fill:#FDE3BE;enable-background:new    ;}
	.st15{opacity:0.14;fill:#FDE3BE;enable-background:new    ;}
	.st16{opacity:8.000000e-02;fill:#FFFFFF;enable-background:new    ;}
	.st17{fill:#67646D;}
	.st18{opacity:0.74;fill:#36303E;enable-background:new    ;}
	.st19{opacity:0.4;fill:#FDE3BE;enable-background:new    ;}
	.st20{fill:none;stroke:#36303E;stroke-width:6;stroke-linecap:round;stroke-linejoin:round;stroke-miterlimit:10;}
	.st21{fill:#9B989F;}
	.st22{fill:#8F8D91;}
	.st23{opacity:0.75;fill:#403A46;enable-background:new    ;}
	.st24{fill:#C71F2C;}
	.st25{opacity:0.27;fill:#FDE3BE;enable-background:new    ;}
	.st26{fill:#AD1E2F;}
	.st27{fill:none;stroke:#FA932A;stroke-width:5;stroke-linecap:round;stroke-linejoin:round;stroke-miterlimit:10;}
	.st28{fill:#FFB808;}
	.st29{fill:#47A942;}
	.st30{fill:#81C347;}
	.st31{fill:#5CB342;}
	.st32{fill:#CADB2A;}
	.st33{fill:#26863F;stroke:#26863F;stroke-width:5;stroke-miterlimit:10;}
	.st34{fill:#26863F;}
	.st35{fill:#F78F1E;}
	.st36{fill:#FDB813;}
	.st37{fill:#FEF200;}
	.st38{opacity:0.28;fill:#26863F;enable-background:new    ;}
	.st39{fill:#4F4F59;}
</style>
<path id="XMLID_2_" class="st0" d="M764.7,713H232.3c-6.3,0-11.3-5.1-11.3-11.3l0,0c0-6.3,5.1-11.3,11.3-11.3h532.4
	c6.3,0,11.3,5.1,11.3,11.3l0,0C776.1,707.9,771,713,764.7,713z"/>
<rect id="XMLID_53_" x="550.5" y="637.4" class="st1" width="85.2" height="33.2"/>
<rect id="XMLID_1_" x="550.5" y="640.5" class="st2" width="85.2" height="17"/>
<rect id="XMLID_58_" x="550.5" y="637.4" class="st3" width="85.2" height="33.2"/>
<path id="XMLID_28_" class="st1" d="M718.5,355.1h-206l0,0c0-17.7,14.3-32,32-32h142C704.2,323.1,718.5,337.4,718.5,355.1
	L718.5,355.1z"/>
<path id="XMLID_141_" class="st4" d="M534.7,339.1h161.6c7.5,0,9.8-10.4,2.9-13.4c-3.9-1.7-8.2-2.6-12.7-2.6h-142
	c-4.5,0-8.8,0.9-12.7,2.6C524.9,328.7,527.2,339.1,534.7,339.1z"/>
<path id="XMLID_55_" class="st3" d="M718.5,355.1h-206l0,0c0-17.7,14.3-32,32-32h142C704.2,323.1,718.5,337.4,718.5,355.1
	L718.5,355.1z"/>
<rect id="XMLID_3_" x="455" y="587.9" class="st1" width="37.3" height="33.5"/>
<rect id="XMLID_56_" x="455" y="587.9" class="st5" width="37.3" height="33.5"/>
<path id="XMLID_19_" class="st6" d="M688.3,644.1H510.8c-18,0-32-15.6-29.8-33.6l31.5-255.4h206v259.2
	C718.5,630.8,704.9,644.1,688.3,644.1z"/>
<path id="XMLID_106_" class="st7" d="M488.1,622.6h-7.3v-8.5h15.8l0,0C496.6,618.8,492.8,622.6,488.1,622.6z"/>
<path id="XMLID_50_" class="st7" d="M706.4,383.7v226.1c0,13.4-10.9,24.3-24.3,24.3H508c-4.9,0-8.9,4.1-8.7,9l0,0
	c2.4,0.6,8.9,1,11.5,1h177.5c16.6,0,30.2-13.6,30.2-30.2V371.6C711.8,371.6,706.4,377,706.4,383.7z"/>
<path id="XMLID_162_" class="st7" d="M709.8,570h-6.3c-3.7,0-6.6,3-6.6,6.6V619c0,4.8,3.9,8.6,8.6,8.6h4.3V570z"/>
<path id="XMLID_31_" class="st8" d="M649.7,368.1H510.9l-25.6,208h164.4c26.5,0,47.8-21.3,47.8-47.8V415.6
	C697.5,389,676.2,368.1,649.7,368.1z"/>
<path id="XMLID_70_" class="st9" d="M646,577.5h-52.9v-20c0-30.9,25.1-56,56-56h50.3v22.6C699.4,553.6,675.5,577.5,646,577.5z"/>
<path id="XMLID_119_" class="st9" d="M699.4,501.5h-35.6v-38.4c0-10,8.1-18.1,18.1-18.1h17.5V501.5z"/>
<path id="XMLID_163_" class="st9" d="M699.4,445.1h-10.9v-28.8c0-3.7,3-6.6,6.6-6.6h4.2v35.4H699.4z"/>
<polygon id="XMLID_164_" class="st10" points="493.1,512.9 485.3,576.1 551.9,576.1 "/>
<line id="XMLID_116_" class="st11" x1="565.5" y1="505" x2="542" y2="530.4"/>
<line id="XMLID_112_" class="st11" x1="582.6" y1="522.8" x2="548.4" y2="487.2"/>
<polygon id="XMLID_71_" class="st10" points="528.7,554.1 517.4,541.7 536.9,522.2 548.8,534.1 "/>
<path id="XMLID_81_" class="st12" d="M649.7,368.1H510.9l-25.6,208h164.4c26.5,0,47.8-21.3,47.8-47.8V415.6
	C697.5,389,676.2,368.1,649.7,368.1z"/>
<path id="XMLID_183_" class="st13" d="M617.8,368.1h-69.5l148.6,167.6c0.4-2.4,0.6-4.9,0.6-7.4V458L617.8,368.1z"/>
<path id="XMLID_179_" class="st13" d="M526.9,368.1h-15.7l172.2,194.1c2.8-2.8,5.3-6,7.4-9.4L526.9,368.1z"/>
<path id="XMLID_51_" class="st14" d="M512.5,355.1L481,610.5c-0.1,1-0.2,2-0.2,3.1l0,0c6.7,0,12.3-5,13.1-11.6l29.4-238.6h181.1
	c4.6,0,8.3-3.7,8.3-8.3H512.5z"/>
<path id="XMLID_232_" class="st15" d="M502.7,618.4"/>
<path id="XMLID_118_" class="st16" d="M649.7,368.1H510.9l-6.8,55.5h8.5H542h109.3c22.1,0,40.6,14.6,46.2,34.9v-42.9
	C697.5,389,676.2,368.1,649.7,368.1z"/>
<path id="XMLID_32_" class="st3" d="M649.7,368.1H510.9l-25.6,208h164.4c26.5,0,47.8-21.3,47.8-47.8V415.6
	C697.5,389,676.2,368.1,649.7,368.1z"/>
<path id="XMLID_29_" class="st3" d="M688.3,644.1H510.8c-18,0-32-15.6-29.8-33.6l31.5-255.4h206v259.2
	C718.5,630.8,704.9,644.1,688.3,644.1z"/>
<path id="XMLID_15_" class="st17" d="M444,397.5v223H221l0,0c0,9.4,7.6,17,17,17h207l0,0h16l0,0v-16v-224H444z"/>
<path id="XMLID_7_" class="st4" d="M440.8,627.6h-210c-1.7,0-3.1-1.4-3.1-3.1l0,0c0-1.7,1.4-3.1,3.1-3.1h210.1
	c1.7,0,3.1,1.4,3.1,3.1l0,0C444,626.2,442.6,627.6,440.8,627.6z"/>
<path id="XMLID_5_" class="st4" d="M447.7,622.6L447.7,622.6c-2.1,0-3.8-1.7-3.8-3.8V407.6c0-2.1,1.7-3.8,3.8-3.8l0,0
	c2.1,0,3.8,1.7,3.8,3.8v211.2C451.5,620.9,449.8,622.6,447.7,622.6z"/>
<path id="XMLID_12_" class="st5" d="M444,403.4v217H221l0,0c0,9.4,7.6,17,17,17h207l0,0h16l0,0v-16v-218c0-3.3-2.7-6-6-6h-5.1
	C446.6,397.5,444,400.1,444,403.4z"/>
<path id="XMLID_79_" class="st1" d="M528,370.1h-13.1c1.2-6.3,4.9-11.7,10.1-15h-12.5c-6.3,4.1-10.4,11.2-10.4,19.3
	c0,0.4,0,0.8,0,1.2c0,0.2,0,0.4,0,0.6v31c0,3.3,2.7,6,6,6h20c3.3,0,6-2.7,6-6v-31C534,372.8,531.3,370.1,528,370.1z"/>
<path id="XMLID_154_" class="st18" d="M527.7,379.7v24.9c0,2.1-1.7,3.7-3.7,3.7h-21.8c0.6,2.7,3,4.8,5.9,4.8h20c3.3,0,6-2.7,6-6v-31
	c0-0.4-0.1-0.9-0.1-1.3h-1.3C529.9,374.8,527.7,377,527.7,379.7z"/>
<path id="XMLID_52_" class="st4" d="M506.3,407.7H503v-36.4c0-1.8,1.5-3.3,3.3-3.3l0,0c1.8,0,3.3,1.5,3.3,3.3v33.1
	C509.5,406.2,508.1,407.7,506.3,407.7z"/>
<path id="XMLID_83_" class="st3" d="M528,370.1h-13.1c1.2-6.3,4.9-11.7,10.1-15h-12.5c-6.3,4.1-10.4,11.2-10.4,19.3
	c0,0.4,0,0.8,0,1.2c0,0.2,0,0.4,0,0.6v31c0,3.3,2.7,6,6,6h20c3.3,0,6-2.7,6-6v-31C534,372.8,531.3,370.1,528,370.1z"/>
<g id="XMLID_21_">
	<path id="XMLID_158_" class="st1" d="M586.3,660.9c0,2.4-2.2,4.6-2.6,6.9c-0.4,2.4,0.9,5.2,0.1,7.4c-0.8,2.3-3.6,3.6-4.8,5.6
		c-1.2,2.1-0.9,5.2-2.5,7c-1.5,1.8-4.6,2.1-6.5,3.6c-1.8,1.5-2.6,4.5-4.7,5.7c-2.1,1.2-5.1,0.4-7.3,1.2s-4,3.4-6.4,3.8
		c-2.3,0.4-4.9-1.4-7.3-1.4c-2.4,0-5,1.8-7.3,1.4c-2.4-0.4-4.2-3-6.4-3.8c-2.3-0.8-5.3,0-7.3-1.2c-2.1-1.2-2.9-4.2-4.7-5.7
		s-4.9-1.8-6.5-3.6c-1.5-1.8-1.3-4.9-2.5-7s-4-3.4-4.8-5.6c-0.8-2.2,0.5-5,0.1-7.4c-0.4-2.3-2.6-4.5-2.6-6.9s2.2-4.6,2.6-6.9
		c0.4-2.4-0.9-5.2-0.1-7.4c0.8-2.3,3.6-3.6,4.8-5.6c1.2-2.1,0.9-5.2,2.5-7c1.5-1.8,4.6-2.1,6.5-3.6c1.8-1.5,2.6-4.5,4.7-5.7
		c2.1-1.2,5.1-0.4,7.3-1.2s4-3.4,6.4-3.8c2.3-0.4,4.9,1.4,7.3,1.4c2.4,0,5-1.8,7.3-1.4c2.4,0.4,4.2,3,6.4,3.8c2.3,0.8,5.3,0,7.3,1.2
		c2.1,1.2,2.9,4.2,4.7,5.7s4.9,1.8,6.5,3.6c1.5,1.8,1.3,4.9,2.5,7s4,3.4,4.8,5.6c0.8,2.2-0.5,5-0.1,7.4
		C584.1,656.3,586.3,658.5,586.3,660.9z"/>
</g>
<path id="XMLID_75_" class="st19" d="M609.2,299.3L609.2,299.3c-2.7,0-4.9-2.2-4.9-4.9v-9.5c0-2.7,2.2-4.9,4.9-4.9l0,0
	c2.7,0,4.9,2.2,4.9,4.9v9.5C614.1,297.1,611.9,299.3,609.2,299.3z"/>
<g id="XMLID_57_">
	<path id="XMLID_68_" class="st20" d="M584.9,671.4c-0.6,2.4-3.3,3.9-4.3,6.1c-1,2.2-0.4,5.3-1.8,7.2c-1.4,2-4.4,2.6-6.1,4.2
		c-1.7,1.7-2.2,4.8-4.1,6.2c-1.9,1.4-5,0.9-7.2,1.9c-2.1,1-3.7,3.7-6,4.4c-2.3,0.6-5-0.9-7.4-0.7s-4.7,2.2-7.1,2
		c-2.3-0.2-4.4-2.5-6.7-3.2s-5.3,0.5-7.4-0.5c-2.2-1-3.3-3.9-5.2-5.3c-2-1.4-5.1-1.4-6.8-3c-1.7-1.7-1.7-4.8-3.1-6.7s-4.3-3-5.3-5.1
		s0-5.1-0.6-7.4c-0.6-2.3-3-4.3-3.3-6.7c-0.2-2.4,1.7-4.8,1.9-7.2c0.2-2.3-1.4-5-0.8-7.4s3.3-3.9,4.3-6.1c1-2.2,0.4-5.3,1.8-7.2
		c1.4-2,4.4-2.6,6.1-4.2c1.7-1.7,2.2-4.8,4.1-6.2c1.9-1.4,5-0.9,7.2-1.9c2.1-1,3.7-3.7,6-4.4c2.3-0.6,5,0.9,7.4,0.7s4.7-2.2,7.1-2
		c2.3,0.2,4.4,2.5,6.7,3.2s5.3-0.5,7.4,0.5c2.2,1,3.3,3.9,5.2,5.3c2,1.4,5.1,1.4,6.8,3c1.7,1.7,1.7,4.8,3.1,6.7
		c1.4,1.9,4.3,3,5.3,5.1s0,5.1,0.6,7.4c0.6,2.3,3,4.3,3.3,6.7c0.2,2.4-1.7,4.8-1.9,7.2C584,666.4,585.5,669.1,584.9,671.4z"/>
</g>
<circle id="XMLID_27_" class="st21" cx="544.3" cy="660.9" r="25"/>
<path id="XMLID_150_" class="st22" d="M544.3,644.1c12.4,0,22.7,9.1,24.7,20.9c0.2-1.3,0.3-2.7,0.3-4.1c0-13.8-11.2-25-25-25
	s-25,11.2-25,25c0,1.4,0.1,2.8,0.3,4.1C521.5,653.1,531.8,644.1,544.3,644.1z"/>
<circle id="XMLID_59_" class="st6" cx="544.3" cy="660.9" r="10.6"/>
<circle id="XMLID_20_" class="st3" cx="544.3" cy="660.9" r="10.6"/>
<circle id="XMLID_36_" class="st3" cx="544.3" cy="660.9" r="25"/>
<g id="XMLID_127_">
	<path id="XMLID_139_" class="st1" d="M693.9,660.9c0,2.4-2.2,4.6-2.6,6.9c-0.4,2.4,0.9,5.2,0.1,7.4c-0.8,2.3-3.6,3.6-4.8,5.6
		c-1.2,2.1-0.9,5.2-2.5,7c-1.5,1.8-4.6,2.1-6.5,3.6c-1.8,1.5-2.6,4.5-4.7,5.7c-2.1,1.2-5.1,0.4-7.3,1.2s-4,3.4-6.4,3.8
		c-2.3,0.4-4.9-1.4-7.3-1.4c-2.4,0-5,1.8-7.3,1.4c-2.4-0.4-4.2-3-6.4-3.8c-2.3-0.8-5.3,0-7.3-1.2c-2.1-1.2-2.9-4.2-4.7-5.7
		s-4.9-1.8-6.5-3.6c-1.5-1.8-1.3-4.9-2.5-7s-4-3.4-4.8-5.6c-0.8-2.2,0.5-5,0.1-7.4c-0.4-2.3-2.6-4.5-2.6-6.9s2.2-4.6,2.6-6.9
		c0.4-2.4-0.9-5.2-0.1-7.4c0.8-2.3,3.6-3.6,4.8-5.6c1.2-2.1,0.9-5.2,2.5-7c1.5-1.8,4.6-2.1,6.5-3.6c1.8-1.5,2.6-4.5,4.7-5.7
		c2.1-1.2,5.1-0.4,7.3-1.2s4-3.4,6.4-3.8c2.3-0.4,4.9,1.4,7.3,1.4c2.4,0,5-1.8,7.3-1.4c2.4,0.4,4.2,3,6.4,3.8c2.3,0.8,5.3,0,7.3,1.2
		c2.1,1.2,2.9,4.2,4.7,5.7s4.9,1.8,6.5,3.6c1.5,1.8,1.3,4.9,2.5,7s4,3.4,4.8,5.6c0.8,2.2-0.5,5-0.1,7.4
		C691.7,656.3,693.9,658.5,693.9,660.9z"/>
</g>
<g id="XMLID_123_">
	<path id="XMLID_125_" class="st20" d="M692.5,671.4c-0.6,2.4-3.3,3.9-4.3,6.1c-1,2.2-0.4,5.3-1.8,7.2c-1.4,2-4.4,2.6-6.1,4.2
		c-1.7,1.7-2.2,4.8-4.1,6.2c-1.9,1.4-5,0.9-7.2,1.9c-2.1,1-3.7,3.7-6,4.4c-2.3,0.6-5-0.9-7.4-0.7s-4.7,2.2-7.1,2
		c-2.3-0.2-4.4-2.5-6.7-3.2c-2.4-0.6-5.3,0.5-7.4-0.5c-2.2-1-3.3-3.9-5.2-5.3c-2-1.4-5.1-1.4-6.8-3c-1.7-1.7-1.7-4.8-3.1-6.7
		c-1.4-1.9-4.3-3-5.3-5.1s0-5.1-0.6-7.4c-0.6-2.3-3-4.3-3.3-6.7c-0.2-2.4,1.7-4.8,1.9-7.2c0.2-2.3-1.4-5-0.8-7.4
		c0.6-2.4,3.3-3.9,4.3-6.1c1-2.2,0.4-5.3,1.8-7.2c1.4-2,4.4-2.6,6.1-4.2c1.7-1.7,2.2-4.8,4.1-6.2c1.9-1.4,5-0.9,7.2-1.9
		c2.1-1,3.7-3.7,6-4.4c2.3-0.6,5,0.9,7.4,0.7s4.7-2.2,7.1-2c2.3,0.2,4.4,2.5,6.7,3.2c2.4,0.6,5.3-0.5,7.4,0.5c2.2,1,3.3,3.9,5.2,5.3
		c2,1.4,5.1,1.4,6.8,3c1.7,1.7,1.7,4.8,3.1,6.7c1.4,1.9,4.3,3,5.3,5.1s0,5.1,0.6,7.4c0.6,2.3,3,4.3,3.3,6.7c0.2,2.4-1.7,4.8-1.9,7.2
		C691.6,666.4,693.2,669.1,692.5,671.4z"/>
</g>
<circle id="XMLID_108_" class="st21" cx="651.9" cy="660.9" r="25"/>
<path id="XMLID_92_" class="st22" d="M651.9,644.1c12.4,0,22.7,9.1,24.7,20.9c0.2-1.3,0.3-2.7,0.3-4.1c0-13.8-11.2-25-25-25
	s-25,11.2-25,25c0,1.4,0.1,2.8,0.3,4.1C629.2,653.1,639.5,644.1,651.9,644.1z"/>
<circle id="XMLID_88_" class="st6" cx="651.9" cy="660.9" r="10.6"/>
<circle id="XMLID_64_" class="st3" cx="651.9" cy="660.9" r="10.6"/>
<circle id="XMLID_54_" class="st3" cx="651.9" cy="660.9" r="25"/>
<rect id="XMLID_11_" x="605.6" y="306.2" class="st17" width="30.4" height="16.8"/>
<rect id="XMLID_140_" x="605.6" y="317.2" class="st23" width="30.4" height="5.8"/>
<rect id="XMLID_30_" x="605.6" y="306.2" class="st3" width="30.4" height="16.8"/>
<path id="XMLID_63_" class="st6" d="M636,306.2h-30.4v-19.7c0-5.1,4.2-9.3,9.3-9.3h11.8c5.1,0,9.3,4.2,9.3,9.3L636,306.2z"/>
<path id="XMLID_73_" class="st19" d="M611.6,300.2h-5v-14.3c0-2.7,2.2-5,5-5l0,0c2.7,0,5,2.2,5,5v9.4
	C616.5,298,614.3,300.2,611.6,300.2z"/>
<path id="XMLID_77_" class="st7" d="M629.1,285.8V301h-23.5v5.2H636v-20.5c0-1.7-1.2-3.1-2.6-3.1h-1.5
	C630.4,282.6,629.1,284.1,629.1,285.8z"/>
<path id="XMLID_69_" class="st3" d="M636,306.2h-30.4v-19.7c0-5.1,4.2-9.3,9.3-9.3h11.8c5.1,0,9.3,4.2,9.3,9.3L636,306.2z"/>
<path id="XMLID_142_" class="st24" d="M718.6,618.6h-12.7V579h12.7c3.7,0,6.6,3,6.6,6.6V612C725.2,615.7,722.2,618.6,718.6,618.6z"
	/>
<path id="XMLID_160_" class="st25" d="M708.7,612.8h-1.3v-28.7c0-1.2,1-2.2,2.2-2.2l0,0c1.4,0,2.6,1.1,2.6,2.6v24.9
	C712.1,611.3,710.6,612.8,708.7,612.8z"/>
<path id="XMLID_173_" class="st26" d="M719.4,579c0,0.2,0.1,0.3,0.1,0.5v31.9c0,1.8-1.4,3.2-3.2,3.2h-10.4v4h12.7
	c3.7,0,6.6-3,6.6-6.6v-26.4C725.2,582.2,722.6,579.4,719.4,579z"/>
<path id="XMLID_157_" class="st3" d="M718.6,618.6h-10.3c-1.3,0-2.4-1.1-2.4-2.4v-34.8c0-1.3,1.1-2.4,2.4-2.4h10.3
	c3.7,0,6.6,3,6.6,6.6V612C725.2,615.7,722.2,618.6,718.6,618.6z"/>
<path id="XMLID_103_" class="st0" d="M444,620.5H221l0,0c0-3.8,3.1-6.9,6.9-6.9H444V620.5z"/>
<path id="XMLID_89_" class="st5" d="M444,620.5H221l0,0c0-3.8,3.1-6.9,6.9-6.9H444V620.5z"/>
<line id="XMLID_224_" class="st27" x1="567.5" y1="587.9" x2="631.8" y2="587.9"/>
<line id="XMLID_226_" class="st27" x1="568.1" y1="598.8" x2="582.2" y2="598.8"/>
<line id="XMLID_227_" class="st27" x1="568.1" y1="608.7" x2="594.7" y2="608.7"/>
<path id="XMLID_228_" class="st24" d="M497.9,613.6h-15.7c-3.7,0-6.8-3-6.8-6.8v-9c0-3.7,3-6.8,6.8-6.8h15.7V613.6z"/>
<path id="XMLID_231_" class="st25" d="M477.2,610.5L477.2,610.5v-16.4l0,0c2.1,0,3.9,1.7,3.9,3.9v8.6
	C481.1,608.8,479.3,610.5,477.2,610.5z"/>
<rect id="XMLID_229_" x="486.6" y="591.1" class="st28" width="11.2" height="22.5"/>
<path id="XMLID_230_" class="st3" d="M492.3,613.6L492.3,613.6c-3.1,0-5.6-2.5-5.6-5.6v-11.2c0-3.1,2.5-5.6,5.6-5.6l0,0
	c3.1,0,5.6,2.5,5.6,5.6V608C497.9,611,495.4,613.6,492.3,613.6z"/>
<path id="XMLID_223_" class="st3" d="M492.6,613.6h-10.4c-3.7,0-6.8-3-6.8-6.8v-9c0-3.7,3-6.8,6.8-6.8h10.4c2.9,0,5.3,2.4,5.3,5.3
	v11.9C497.9,611.2,495.5,613.6,492.6,613.6z"/>
<path id="XMLID_136_" class="st29" d="M401.7,616.5H263.2c-9.3,0-16.9-7.6-16.9-16.9V461.1c0-9.3,7.6-16.9,16.9-16.9h138.5
	c9.3,0,16.9,7.6,16.9,16.9v138.5C418.6,608.9,411,616.5,401.7,616.5z"/>
<path id="XMLID_266_" class="st30" d="M252.8,587.7V475.3c0-9.3,7.6-16.9,16.9-16.9h125.5c9.3,0,16.9,7.6,16.9,16.9v112.4
	c0,3.6,2.9,6.5,6.5,6.5l0,0v-133c0-9.3-7.6-16.9-16.9-16.9H263.2c-9.3,0-16.9,7.6-16.9,16.9v133l0,0
	C249.9,594.1,252.8,591.2,252.8,587.7z"/>
<circle id="XMLID_243_" class="st31" cx="332.5" cy="530.4" r="44.2"/>
<path id="XMLID_268_" class="st32" d="M249.1,451.8h166.7c-3-4.6-8.2-7.6-14.1-7.6H263.2C257.3,444.2,252.1,447.3,249.1,451.8z"/>
<path id="XMLID_248_" class="st33" d="M304.6,512.7v-64.3c0-3.4,2.8-6.2,6.2-6.2h35.6c3.4,0,6.2,2.8,6.2,6.2v39.4c0,2-1,3.9-2.6,5.1
	l-35.6,24.9C310.2,520.6,304.6,517.7,304.6,512.7z"/>
<path id="XMLID_277_" class="st34" d="M401.7,604.5H263.2c-9.3,0-16.9-7.6-16.9-16.9v12c0,9.3,7.6,16.9,16.9,16.9h138.5
	c9.3,0,16.9-7.6,16.9-16.9v-12C418.6,596.9,411,604.5,401.7,604.5z"/>
<path id="XMLID_234_" class="st3" d="M401.7,616.5H263.2c-9.3,0-16.9-7.6-16.9-16.9V461.1c0-9.3,7.6-16.9,16.9-16.9h138.5
	c9.3,0,16.9,7.6,16.9,16.9v138.5C418.6,608.9,411,616.5,401.7,616.5z"/>
<path id="XMLID_244_" class="st35" d="M302.6,514.9v-72.1c0-1.9,1.6-3.5,3.5-3.5h41c1.9,0,3.5,1.6,3.5,3.5v43.5
	c0,1.1-0.6,2.2-1.5,2.9l-41,28.6C305.8,519.3,302.6,517.7,302.6,514.9z"/>
<path id="XMLID_260_" class="st36" d="M347.1,439.2h-41c-1.9,0-3.5,1.6-3.5,3.5V468h48v-25.3C350.6,440.8,349,439.2,347.1,439.2z"/>
<path id="XMLID_270_" class="st37" d="M347.1,439.2h-41c-1.9,0-3.5,1.6-3.5,3.5v5.3h48v-5.3C350.6,440.8,349,439.2,347.1,439.2z"/>
<path id="XMLID_245_" class="st3" d="M302.6,514.9v-72.1c0-1.9,1.6-3.5,3.5-3.5h41c1.9,0,3.5,1.6,3.5,3.5v43.5
	c0,1.1-0.6,2.2-1.5,2.9l-41,28.6C305.8,519.3,302.6,517.7,302.6,514.9z"/>
<path id="XMLID_233_" class="st30" d="M264.3,571L264.3,571c-1.7,0-3.1-1.4-3.1-3.1v-94.2c0-1.7,1.4-3.1,3.1-3.1l0,0
	c1.7,0,3.1,1.4,3.1,3.1v94.2C267.4,569.6,266,571,264.3,571z"/>
<path id="XMLID_9_" class="st30" d="M264.3,585L264.3,585c-1.7,0-3.1-1.4-3.1-3.1v-2.7c0-1.7,1.4-3.1,3.1-3.1l0,0
	c1.7,0,3.1,1.4,3.1,3.1v2.7C267.4,583.6,266,585,264.3,585z"/>
<path id="XMLID_72_" class="st38" d="M400.3,589.6L400.3,589.6c-1.7,0-3.1-1.4-3.1-3.1V471.2c0-1.7,1.4-3.1,3.1-3.1l0,0
	c1.7,0,3.1,1.4,3.1,3.1v115.2C403.4,588.2,402,589.6,400.3,589.6z"/>
<path id="XMLID_4_" class="st39" d="M523.5,378.8h-9c-1.1,0-2-0.9-2-2l0,0c0-1.1,0.9-2,2-2h9c1.1,0,2,0.9,2,2l0,0
	C525.5,377.9,524.6,378.8,523.5,378.8z"/>
</svg>
