<?xml version="1.0" encoding="utf-8"?>
<!-- Generator: Adobe Illustrator 19.0.0, SVG Export Plug-In . SVG Version: 6.00 Build 0)  -->
<svg version="1.1" id="Layer_1" xmlns="http://www.w3.org/2000/svg" xmlns:xlink="http://www.w3.org/1999/xlink" x="0px" y="0px"
	 viewBox="300 -400 1000 1000" style="enable-background:new 300 -400 1000 1000;" xml:space="preserve">
<style type="text/css">
	.st0{opacity:0.34;fill:#353535;enable-background:new    ;}
	.st1{fill:#EDBEC4;}
	.st2{fill:#F4D7DE;}
	.st3{fill:none;stroke:#3A3842;stroke-width:6;stroke-linecap:round;stroke-linejoin:round;stroke-miterlimit:10;}
	.st4{fill:#3A3842;}
	.st5{fill:#DBA1A9;}
	.st6{fill:#CAB5EA;}
	.st7{fill:#33313A;}
	.st8{fill:none;stroke:#EDBEC4;stroke-width:6;stroke-linecap:round;stroke-linejoin:round;stroke-miterlimit:10;}
	.st9{fill:none;stroke:#3A3842;stroke-width:4;stroke-linecap:round;stroke-linejoin:round;stroke-miterlimit:10;}
	.st10{fill:#F26640;}
	.st11{fill:#5EB755;}
	.st12{fill:#6A82EA;}
	.st13{fill:#EFAD43;}
	.st14{fill:none;stroke:#FFFFFF;stroke-width:8;stroke-linecap:round;stroke-linejoin:round;stroke-miterlimit:10;}
	.st15{opacity:0.34;fill:#3A3842;enable-background:new    ;}
	.st16{fill:#E8B5BB;}
	.st17{fill:#F2CCD4;}
</style>
<path id="XMLID_74_" class="st0" d="M1239.3,463H389.8c-19.4,0-35.1-15.7-35.1-35.1l0,0c0-19.4,15.7-35.1,35.1-35.1h849.3
	c19.4,0,35.1,15.7,35.1,35.1l0,0C1274.4,447.3,1258.7,463,1239.3,463z"/>
<path id="XMLID_28_" class="st1" d="M579.3,171.9v-369.8c0-12.2,10-22.2,22.2-22.2h406.8c12.2,0,22.2,10,22.2,22.2v369.8
	c0,12.2-10,22.2-22.2,22.2H601.5C589.1,194.1,579.3,184.1,579.3,171.9z"/>
<path id="XMLID_31_" class="st2" d="M594.1,154.7v-347.6c0-5.2,4.1-9.2,9.2-9.2h403.1c5.2,0,9.2,4.1,9.2,9.2v347.6
	c0,5.2-4.1,9.2-9.2,9.2H603.4C598.2,164,594.1,159.7,594.1,154.7z"/>
<path id="XMLID_16_" class="st3" d="M579.3,171.9v-369.8c0-12.2,10-22.2,22.2-22.2h406.8c12.2,0,22.2,10,22.2,22.2v369.8
	c0,12.2-10,22.2-22.2,22.2H601.5C589.1,194.1,579.3,184.1,579.3,171.9z"/>
<path id="XMLID_32_" class="st1" d="M612.6,103v-270c0-7.2,5.7-12.9,12.9-12.9h358.7c7.2,0,12.9,5.7,12.9,12.9v270
	c0,7.2-5.7,12.9-12.9,12.9H625.6C618.4,115.9,612.6,110.2,612.6,103z"/>
<path id="XMLID_30_" class="st4" d="M666.3,99.3c-22.4,0-40.7-18.3-40.7-40.7v-181.2c0-22.4,18.3-40.7,40.7-40.7h277.4
	c22.4,0,40.7,18.3,40.7,40.7V58.6c0,22.4-18.3,40.7-40.7,40.7H666.3z"/>
<path id="XMLID_8_" class="st1" d="M951,227.4H658.9c-8.1,0-14.8-6.7-14.8-14.8v-18.5h321.8v18.5C965.8,220.8,959.2,227.4,951,227.4
	z"/>
<rect id="XMLID_29_" x="644.1" y="194.1" class="st5" width="321.8" height="16.6"/>
<path id="XMLID_6_" class="st3" d="M951,227.4H658.9c-8.1,0-14.8-6.7-14.8-14.8v-18.5h321.8v18.5C965.8,220.8,959.2,227.4,951,227.4
	z"/>
<path id="XMLID_7_" class="st1" d="M1123,404.9H486.9c-8.1,0-14.8-6.7-14.8-14.8V242.2c0-8.1,6.7-14.8,14.8-14.8H1123
	c8.1,0,14.8,6.7,14.8,14.8v147.9C1137.8,398.3,1131.1,404.9,1123,404.9z"/>
<path id="XMLID_4_" class="st3" d="M1123,404.9H486.9c-8.1,0-14.8-6.7-14.8-14.8V242.2c0-8.1,6.7-14.8,14.8-14.8H1123
	c8.1,0,14.8,6.7,14.8,14.8v147.9C1137.8,398.3,1131.1,404.9,1123,404.9z"/>
<path id="XMLID_34_" class="st2" d="M495,375.3V257c0-8.1,6.7-14.8,14.8-14.8h590.1c8.1,0,14.8,6.7,14.8,14.8v118.3
	c0,8.1-6.7,14.8-14.8,14.8H509.8C501.7,390.1,495,383.5,495,375.3z"/>
<circle id="XMLID_37_" class="st6" cx="934.8" cy="139.2" r="13.9"/>
<circle id="XMLID_1_" class="st4" cx="934.8" cy="139.2" r="12"/>
<circle id="XMLID_39_" class="st7" cx="934.8" cy="139.2" r="10.4"/>
<g id="XMLID_24_">
	<g id="XMLID_136_">
		<line id="XMLID_137_" class="st8" x1="694.7" y1="326.3" x2="694.7" y2="377.2"/>
	</g>
	<g id="XMLID_133_">
		<line id="XMLID_134_" class="st8" x1="676.2" y1="326.3" x2="676.2" y2="377.2"/>
	</g>
	<g id="XMLID_130_">
		<line id="XMLID_131_" class="st8" x1="657.7" y1="326.3" x2="657.7" y2="377.2"/>
	</g>
	<g id="XMLID_127_">
		<line id="XMLID_128_" class="st8" x1="639.3" y1="326.3" x2="639.3" y2="377.2"/>
	</g>
	<g id="XMLID_124_">
		<line id="XMLID_125_" class="st8" x1="620.8" y1="326.3" x2="620.8" y2="377.2"/>
	</g>
	<g id="XMLID_121_">
		<line id="XMLID_122_" class="st8" x1="602.3" y1="326.3" x2="602.3" y2="377.2"/>
	</g>
	<g id="XMLID_118_">
		<line id="XMLID_119_" class="st8" x1="583.8" y1="326.3" x2="583.8" y2="377.2"/>
	</g>
	<g id="XMLID_115_">
		<line id="XMLID_116_" class="st8" x1="565.3" y1="326.3" x2="565.3" y2="377.2"/>
	</g>
	<g id="XMLID_112_">
		<line id="XMLID_113_" class="st8" x1="546.8" y1="326.3" x2="546.8" y2="377.2"/>
	</g>
</g>
<g id="XMLID_42_">
	<g id="XMLID_60_">
		<line id="XMLID_61_" class="st9" x1="696.4" y1="326.3" x2="696.4" y2="377.2"/>
	</g>
	<g id="XMLID_58_">
		<line id="XMLID_59_" class="st9" x1="677.9" y1="326.3" x2="677.9" y2="377.2"/>
	</g>
	<g id="XMLID_56_">
		<line id="XMLID_57_" class="st9" x1="659.4" y1="326.3" x2="659.4" y2="377.2"/>
	</g>
	<g id="XMLID_54_">
		<line id="XMLID_55_" class="st9" x1="640.9" y1="326.3" x2="640.9" y2="377.2"/>
	</g>
	<g id="XMLID_52_">
		<line id="XMLID_53_" class="st9" x1="622.4" y1="326.3" x2="622.4" y2="377.2"/>
	</g>
	<g id="XMLID_50_">
		<line id="XMLID_51_" class="st9" x1="603.9" y1="326.3" x2="603.9" y2="377.2"/>
	</g>
	<g id="XMLID_48_">
		<line id="XMLID_49_" class="st9" x1="585.4" y1="326.3" x2="585.4" y2="377.2"/>
	</g>
	<g id="XMLID_46_">
		<line id="XMLID_47_" class="st9" x1="567" y1="326.3" x2="567" y2="377.2"/>
	</g>
	<g id="XMLID_44_">
		<line id="XMLID_45_" class="st9" x1="548.5" y1="326.3" x2="548.5" y2="377.2"/>
	</g>
</g>
<g id="XMLID_38_">
	<rect id="XMLID_12_" x="538.7" y="265.1" class="st10" width="12.6" height="12.6"/>
	<rect id="XMLID_25_" x="553.8" y="265.1" class="st11" width="12.6" height="12.6"/>
	<rect id="XMLID_26_" x="538.7" y="279.7" class="st12" width="12.6" height="12.6"/>
	<rect id="XMLID_27_" x="553.8" y="279.7" class="st13" width="12.6" height="12.6"/>
</g>
<line id="XMLID_36_" class="st14" x1="731.3" y1="-133.2" x2="833.6" y2="-133.2"/>
<path id="XMLID_33_" class="st14" d="M701.8-133.2"/>
<line id="XMLID_17_" class="st14" x1="672.2" y1="-133.2" x2="701.8" y2="-133.2"/>
<path id="XMLID_40_" class="st7" d="M943.6-163.3h-14.1C920.9-45.2,822.3,48,701.9,48h-76.4v10.5c0,22.4,18.3,40.7,40.7,40.7h277.4
	c22.4,0,40.7-18.3,40.7-40.7v-181.2C984.3-145,966-163.3,943.6-163.3z"/>
<rect id="XMLID_35_" x="572.5" y="271.2" class="st15" width="45.9" height="6.7"/>
<rect id="XMLID_41_" x="572.5" y="282.7" class="st15" width="22.9" height="3.5"/>
<rect id="XMLID_68_" x="622.2" y="378.5" class="st16" width="192.3" height="22.2"/>
<rect id="XMLID_67_" x="508" y="378.5" class="st16" width="37" height="22.2"/>
<rect id="XMLID_66_" x="565.1" y="378.5" class="st16" width="37" height="22.2"/>
<rect id="XMLID_65_" x="834.7" y="378.5" class="st16" width="37" height="22.2"/>
<rect id="XMLID_64_" x="891.9" y="378.5" class="st16" width="37" height="22.2"/>
<rect id="XMLID_63_" x="949.2" y="378.5" class="st16" width="37" height="22.2"/>
<rect id="XMLID_10_" x="622.2" y="378.5" class="st3" width="192.3" height="22.2"/>
<rect id="XMLID_19_" x="508" y="378.5" class="st3" width="37" height="22.2"/>
<rect id="XMLID_20_" x="565.1" y="378.5" class="st3" width="37" height="22.2"/>
<rect id="XMLID_21_" x="834.7" y="378.5" class="st3" width="37" height="22.2"/>
<rect id="XMLID_22_" x="891.9" y="378.5" class="st3" width="37" height="22.2"/>
<rect id="XMLID_23_" x="949.2" y="378.5" class="st3" width="37" height="22.2"/>
<path id="XMLID_62_" class="st17" d="M1021.3,434H473.9c-4.1,0-7.4-3.3-7.4-7.4v-18.5c0-4.1,3.3-7.4,7.4-7.4h547.4
	c4.1,0,7.4,3.3,7.4,7.4v18.5C1028.7,430.6,1025.4,434,1021.3,434z"/>
<path id="XMLID_15_" class="st3" d="M1021.3,434H473.9c-4.1,0-7.4-3.3-7.4-7.4v-18.5c0-4.1,3.3-7.4,7.4-7.4h547.4
	c4.1,0,7.4,3.3,7.4,7.4v18.5C1028.7,430.6,1025.4,434,1021.3,434z"/>
<path id="XMLID_71_" class="st17" d="M1140.2,434h-69v-8.9c0-13.5,10.9-24.4,24.4-24.4h20.3c13.5,0,24.4,10.9,24.4,24.4v8.9H1140.2z
	"/>
<path id="XMLID_70_" class="st3" d="M1140.2,434h-69v-8.9c0-13.5,10.9-24.4,24.4-24.4h20.3c13.5,0,24.4,10.9,24.4,24.4v8.9H1140.2z"
	/>
<g id="XMLID_72_">
	<path id="XMLID_14_" class="st1" d="M1068.6,302.7H899.8c-1.3,0-2.6-1.1-2.6-2.6v-14.8c0-1.3,1.1-2.6,2.6-2.6h168.8
		c1.3,0,2.6,1.1,2.6,2.6v14.8C1071.2,301.6,1070.1,302.7,1068.6,302.7z"/>
	<path id="XMLID_13_" class="st1" d="M1006.1,310.1h-43.8c-1.3,0-2.2-1.1-2.2-2.2v-30.1c0-1.3,1.1-2.2,2.2-2.2h43.8
		c1.3,0,2.2,1.1,2.2,2.2v30.1C1008.5,309.1,1007.4,310.1,1006.1,310.1z"/>
	<rect id="XMLID_9_" x="904.8" y="285.3" class="st4" width="159" height="14.8"/>
	<rect id="XMLID_11_" x="962.1" y="279.7" class="st4" width="44.4" height="25.9"/>
	<path id="XMLID_73_" class="st7" d="M908.5,292.7L908.5,292.7c0-2,1.7-3.7,3.7-3.7h144.2c2,0,3.7,1.7,3.7,3.7l0,0
		c0,2-1.7,3.7-3.7,3.7H912.2C910.2,296.4,908.5,294.7,908.5,292.7z"/>
</g>
<g id="XMLID_75_">
	<path id="XMLID_80_" class="st1" d="M1068.6,349.5H899.8c-1.3,0-2.6-1.1-2.6-2.6v-14.8c0-1.3,1.1-2.6,2.6-2.6h168.8
		c1.3,0,2.6,1.1,2.6,2.6v14.8C1071.2,348.3,1070.1,349.5,1068.6,349.5z"/>
	<path id="XMLID_79_" class="st1" d="M1006.1,357h-43.8c-1.3,0-2.2-1.1-2.2-2.2v-30.1c0-1.3,1.1-2.2,2.2-2.2h43.8
		c1.3,0,2.2,1.1,2.2,2.2v30.1C1008.5,355.9,1007.4,357,1006.1,357z"/>
	<rect id="XMLID_78_" x="904.8" y="332.3" class="st4" width="159" height="14.8"/>
	<rect id="XMLID_77_" x="962.1" y="326.7" class="st4" width="44.4" height="25.9"/>
	<path id="XMLID_76_" class="st7" d="M908.5,339.7L908.5,339.7c0-2,1.7-3.7,3.7-3.7h144.2c2,0,3.7,1.7,3.7,3.7l0,0
		c0,2-1.7,3.7-3.7,3.7H912.2C910.2,343.4,908.5,341.7,908.5,339.7z"/>
</g>
</svg>
