<?xml version="1.0" encoding="utf-8"?>
<!-- Generator: Adobe Illustrator 24.0.1, SVG Export Plug-In . SVG Version: 6.00 Build 0)  -->
<svg version="1.1" id="Layer_1" xmlns="http://www.w3.org/2000/svg" xmlns:xlink="http://www.w3.org/1999/xlink" x="0px" y="0px"
	 viewBox="0 0 1000 1000" style="enable-background:new 0 0 1000 1000;" xml:space="preserve">
<style type="text/css">
	.st0{fill:none;stroke:#601B23;stroke-width:6;stroke-linecap:round;stroke-linejoin:round;stroke-miterlimit:10;}
	.st1{fill:#E36535;}
	.st2{fill:#F4A045;}
	.st3{fill:#FFFFFF;}
	.st4{fill:#C11A4D;}
	.st5{fill:#CF264D;}
	.st6{opacity:0.72;fill:#A5143A;enable-background:new    ;}
	.st7{opacity:0.23;fill:#F4A15D;enable-background:new    ;}
	.st8{opacity:0.32;fill:#F4A15D;enable-background:new    ;}
	.st9{opacity:0.37;fill:#A5143A;enable-background:new    ;}
	.st10{fill:#601B23;}
	.st11{fill:none;stroke:#601B23;stroke-width:4;stroke-linecap:round;stroke-linejoin:round;stroke-miterlimit:10;}
	.st12{fill:#4E8280;}
	.st13{opacity:0.32;}
	.st14{fill:#F4A15D;}
	.st15{fill:#37605D;}
	
		.st16{opacity:0.72;fill:#A5143A;stroke:#A5143A;stroke-width:6;stroke-linecap:round;stroke-linejoin:round;stroke-miterlimit:10;enable-background:new    ;}
	.st17{fill:#ABCFD8;}
	.st18{opacity:0.93;fill:#E2F0F2;enable-background:new    ;}
	.st19{fill:#BC1D4E;}
	.st20{opacity:0.74;fill:#A5143A;enable-background:new    ;}
	.st21{opacity:0.53;}
	.st22{opacity:0.41;fill:#FFFFFF;enable-background:new    ;}
</style>
<path id="XMLID_29_" class="st0" d="M496.6,655.5c-9.4,1.2-16.9,14.4-18.3,25.3c-0.4,3.2-0.6,6.3-0.6,9.5c0,10.4,2.2,20.3,6.2,30.4
	c4,9.9,10,20,17.2,25.8c7.3-5.8,13.2-15.9,17.2-25.8c4-10.1,6.2-20,6.2-30.4c0-3.2-0.2-6.3-0.6-9.5c-1.4-11-8.9-24.1-18.3-25.3
	C502.7,655.2,499.6,655.2,496.6,655.5z"/>
<path id="XMLID_35_" class="st1" d="M496.6,655.5c-9.4,1.2-16.9,14.4-18.3,25.3c-0.4,3.2-0.6,6.3-0.6,9.5c0,10.4,2.2,20.3,6.2,30.4
	c4,9.9,10,20,17.2,25.8c7.3-5.8,13.2-15.9,17.2-25.8c4-10.1,6.2-20,6.2-30.4c0-3.2-0.2-6.3-0.6-9.5c-1.4-11-8.9-24.1-18.3-25.3
	C502.7,655.2,499.6,655.2,496.6,655.5z"/>
<path id="XMLID_178_" class="st2" d="M543.1,718.2c0,18.6-3.9,36.4-11.1,54.5c-0.2,0.6-0.5,1.2-0.8,1.9c-7.2,17.2-17.5,34.4-30,44.5
	c-12.9-10.4-23.4-28.3-30.7-46c-0.1-0.1-0.1-0.2-0.2-0.4c-7.2-18.1-11.1-35.9-11.1-54.5c0-5.7,0.4-11.3,1.1-17.1
	c2.4-19.4,15.6-42.8,32.1-45.3c0.2,0,0.4-0.1,0.6-0.1c5.2-0.6,10.5-0.6,15.7-0.1c0.2,0,0.5,0,0.7,0.1c16.8,2.1,30.3,25.8,32.7,45.4
	C542.7,706.9,543.1,712.5,543.1,718.2z"/>
<path id="XMLID_177_" class="st0" d="M543.1,718.2c0,18.6-3.9,36.4-11.1,54.5c-0.2,0.6-0.5,1.2-0.8,1.9c-7.2,17.2-17.5,34.4-30,44.5
	c-12.9-10.4-23.4-28.3-30.7-46c-0.1-0.1-0.1-0.2-0.2-0.4c-7.2-18.1-11.1-35.9-11.1-54.5c0-5.7,0.4-11.3,1.1-17.1
	c2.4-19.4,15.6-42.8,32.1-45.3c0.2,0,0.4-0.1,0.6-0.1c5.2-0.6,10.5-0.6,15.7-0.1c0.2,0,0.5,0,0.7,0.1c16.8,2.1,30.3,25.8,32.7,45.4
	C542.7,706.9,543.1,712.5,543.1,718.2z"/>
<path id="XMLID_62_" class="st3" d="M1006.5,821.2c-15.2,4.5-27.6,15.6-33.8,30c-12-4.3-25-6.7-38.5-6.7c-40,0-75.2,20.6-95.6,51.7
	c-10.6-5-22.4-7.7-34.9-7.7c-5.5,0-10.8,0.5-15.9,1.6c0-0.5,0-1,0-1.6c0-25.5-18-46.8-41.9-51.9c-9.2-31.5-38.2-54.6-72.7-54.6
	c-28.7,0-53.7,16-66.5,39.5c-8.9-8.3-20.8-13.5-33.9-13.5c-7.5,0-14.6,1.7-21,4.6c-7.8-12.1-14.7-24.8-20.6-38.2
	c-14.6-33-22.7-69.8-22.7-108.4c0-3.5,0.1-6.9,0.2-10.4c1.7-44.7,14.2-86.6,35.1-123.2h-86.5c20.9,36.6,33.4,78.6,35.1,123.3
	c0.1,3.4,0.2,6.8,0.2,10.2c0,38-7.9,74.3-22.1,107.1c-9.3,21.4-21.2,41.4-35.5,59.5c-12.1-15-30.6-24.5-51.3-24.5
	c-20.8,0-39.3,9.6-51.4,24.6c-9.7-5.7-20.9-9-33-9c-19.4,0-36.9,8.6-48.8,22.1c-17.6-26.1-47.4-43.3-81.2-43.3
	c-54,0-97.8,43.8-97.8,97.8c0,0.3,0,0.6,0,0.9C34.9,919.7,9.2,956.7,6.7,1000h236h483.9h279.9V821.2z"/>
<path id="XMLID_79_" class="st4" d="M380.5,502.8l-32.6,12.7v-61.9L448,375.5v117.1l-24.2,12.7C410.9,498.5,395.2,497.1,380.5,502.8
	z"/>
<path id="XMLID_19_" class="st5" d="M337.3,531.7c-10.2-14.8-16.1-32.3-16.1-51c0-23.7,9.3-45.4,24.8-62.1
	c15.5,16.7,24.9,38.4,25,62.1c0,18.8-5.9,36.2-16,51H337.3z"/>
<path id="XMLID_83_" class="st6" d="M347.9,515.5l32.4-12.6c0.4-8.6-0.2-17.4-1.8-26.2c-2.4-13.2-6.9-25.6-13.1-36.8l-17.5,13.7
	V515.5z"/>
<polygon id="XMLID_63_" class="st7" points="352.1,470.9 448.1,396.1 448.1,375.5 347.9,453.5 347.9,515.5 352.1,513.9 "/>
<path id="XMLID_69_" class="st6" d="M408.2,500c5.5,0.9,10.7,2.7,15.6,5.3l24.2-12.7V375.5l-42.2,32.9c-2.1,12.7-3.1,26-3.1,39.7
	C402.8,466.2,404.7,483.7,408.2,500z"/>
<path id="XMLID_72_" class="st0" d="M380.5,502.8l-32.6,12.7v-61.9L448,375.5v117.1l-24.2,12.7C410.9,498.5,395.2,497.1,380.5,502.8
	z"/>
<path id="XMLID_34_" class="st5" d="M337.3,531.7c-10.2-14.8-16.1-32.3-16.1-51c0-23.7,9.3-45.4,24.8-62.1
	c15.5,16.7,24.9,38.4,25,62.1c0,18.8-5.9,36.2-16,51H337.3z"/>
<path id="XMLID_37_" class="st7" d="M344.5,418.6c1.2,1.3,2.4,2.7,3.5,4.1c-10.4,16-16.4,34.8-16.5,54.8c0,19.8,3,38.3,13.2,54.3
	h-9.2c-10.1-14.8-16-32.3-16-51C319.6,457,329,435.3,344.5,418.6z"/>
<path id="XMLID_4_" class="st8" d="M344.5,418.6c0.4,0.4,0.8,0.9,1.2,1.4c-11.7,17.3-18.4,37.6-18.5,59.4c0,18.9,5.1,36.7,14,52.4
	h-5.7c-10.1-14.8-16-32.3-16-51C319.6,457,329,435.3,344.5,418.6z"/>
<path id="XMLID_9_" class="st9" d="M371,480.7c0-23.7-9.4-45.3-25-62.1c-1.2,1.3-2.4,2.7-3.5,4.1c10.4,16,16.4,34.8,16.5,54.8
	c0,19.8-5.8,38.3-16,54.3h12C365.1,516.9,371,499.4,371,480.7z"/>
<path id="XMLID_45_" class="st6" d="M371,480.7c0-23.7-9.4-45.3-25-62.1c-0.4,0.4-0.8,0.9-1.2,1.4c11.7,17.3,18.4,37.6,18.5,59.4
	c0,18.9-5.1,36.7-14,52.4h5.7C365.1,516.9,371,499.4,371,480.7z"/>
<path id="XMLID_10_" class="st9" d="M346,418.6c-1.2,1.3-2.4,2.7-3.5,4.1c10.4,16,16.4,34.8,16.5,54.8c0,19.8-5.8,38.3-16,54.3h12
	c10.1-14.8,16-32.3,16-51C370.9,457,361.5,435.3,346,418.6z"/>
<path id="XMLID_16_" class="st6" d="M346,418.6c-0.4,0.4-0.8,0.9-1.2,1.4c11.7,17.3,18.4,37.6,18.5,59.4c0,18.9-5.1,36.7-14,52.4
	h5.7c10.1-14.8,16-32.3,16-51C370.9,457,361.5,435.3,346,418.6z"/>
<path id="XMLID_95_" class="st10" d="M357.4,436.6c-3.7-6.5-8.1-12.5-13.2-18.1c-5.1,5.5-9.5,11.6-13.2,18.1H357.4z"/>
<path id="XMLID_28_" class="st0" d="M337.3,531.7c-10.2-14.8-16.1-32.3-16.1-51c0-23.7,9.3-45.4,24.8-62.1
	c15.5,16.7,24.9,38.4,25,62.1c0,18.8-5.9,36.2-16,51H337.3z"/>
<path id="XMLID_31_" class="st5" d="M467.2,608.9c0,0-12.1,2.6-29.5,20c-6.3,6.3-16.2,19.1-23.5,28.8c-3,4-9.4,2-9.5-3l-2.4-106.5
	c-0.5-3,0.3-6.1,2.2-8.4l26.2-32.6L467.2,608.9z"/>
<path id="XMLID_24_" class="st8" d="M404.5,656.8L404.5,656.8c5.7-0.8,10-5.7,10.1-11.5l1.1-99c-0.5-3,0.3-6.1,2.2-8.4l16.4-20.5
	l-3.7-10.2l-26.1,32.5c-1.9,2.4-2.7,5.4-2.2,8.4L404.5,656.8z"/>
<path id="XMLID_84_" class="st6" d="M467.2,608.9l-36.5-101.7l-14.5,18.1c7.8,30,20.1,60.5,36.7,90.9
	C461.7,610.1,467.2,608.9,467.2,608.9z"/>
<path id="XMLID_21_" class="st0" d="M467.2,608.9c0,0-12.1,2.6-29.5,20c-6.3,6.3-16.2,19.1-23.5,28.8c-3,4-9.4,2-9.5-3l-2.4-106.5
	c-0.5-3,0.3-6.1,2.2-8.4l26.2-32.6L467.2,608.9z"/>
<line id="XMLID_32_" class="st11" x1="327.8" y1="518.5" x2="360.7" y2="518.5"/>
<path id="XMLID_192_" class="st5" d="M337.3,531.7c-10.2-14.8-16.1-32.3-16.1-51c0-23.7,9.3-45.4,24.8-62.1
	c15.5,16.7,24.9,38.4,25,62.1c0,18.8-5.9,36.2-16,51H337.3z"/>
<path id="XMLID_161_" class="st5" d="M337.3,531.7c-10.2-14.8-16.1-32.3-16.1-51c0-23.7,9.3-45.4,24.8-62.1
	c15.5,16.7,24.9,38.4,25,62.1c0,18.8-5.9,36.2-16,51H337.3z"/>
<path id="XMLID_155_" class="st7" d="M344.5,418.6c1.2,1.3,2.4,2.7,3.5,4.1c-10.4,16-16.4,34.8-16.5,54.8c0,19.8,3,38.3,13.2,54.3
	h-9.2c-10.1-14.8-16-32.3-16-51C319.6,457,329,435.3,344.5,418.6z"/>
<path id="XMLID_147_" class="st8" d="M344.5,418.6c0.4,0.4,0.8,0.9,1.2,1.4c-11.7,17.3-18.4,37.6-18.5,59.4c0,18.9,5.1,36.7,14,52.4
	h-5.7c-10.1-14.8-16-32.3-16-51C319.6,457,329,435.3,344.5,418.6z"/>
<path id="XMLID_144_" class="st9" d="M371,480.7c0-23.7-9.4-45.3-25-62.1c-1.2,1.3-2.4,2.7-3.5,4.1c10.4,16,16.4,34.8,16.5,54.8
	c0,19.8-5.8,38.3-16,54.3h12C365.1,516.9,371,499.4,371,480.7z"/>
<path id="XMLID_140_" class="st6" d="M371,480.7c0-23.7-9.4-45.3-25-62.1c-0.4,0.4-0.8,0.9-1.2,1.4c11.7,17.3,18.4,37.6,18.5,59.4
	c0,18.9-5.1,36.7-14,52.4h5.7C365.1,516.9,371,499.4,371,480.7z"/>
<path id="XMLID_134_" class="st9" d="M346,418.6c-1.2,1.3-2.4,2.7-3.5,4.1c10.4,16,16.4,34.8,16.5,54.8c0,19.8-5.8,38.3-16,54.3h12
	c10.1-14.8,16-32.3,16-51C370.9,457,361.5,435.3,346,418.6z"/>
<path id="XMLID_130_" class="st6" d="M346,418.6c-0.4,0.4-0.8,0.9-1.2,1.4c11.7,17.3,18.4,37.6,18.5,59.4c0,18.9-5.1,36.7-14,52.4
	h5.7c10.1-14.8,16-32.3,16-51C370.9,457,361.5,435.3,346,418.6z"/>
<path id="XMLID_67_" class="st10" d="M359.2,436.6c-3.7-6.5-8.1-12.5-13.2-18.1c-5.1,5.5-9.5,11.6-13.2,18.1H359.2z"/>
<path id="XMLID_39_" class="st0" d="M337.3,531.7c-10.2-14.8-16.1-32.3-16.1-51c0-23.7,9.3-45.4,24.8-62.1
	c15.5,16.7,24.9,38.4,25,62.1c0,18.8-5.9,36.2-16,51H337.3z"/>
<line id="XMLID_12_" class="st11" x1="327.8" y1="518.5" x2="360.7" y2="518.5"/>
<path id="XMLID_196_" class="st4" d="M616,502.8l32.6,12.7v-61.9l-100.1-78.1v117.1l24.2,12.7C585.6,498.5,601.3,497.1,616,502.8z"
	/>
<path id="XMLID_188_" class="st6" d="M648.6,515.5l-32.4-12.6c-0.4-8.6,0.2-17.4,1.8-26.2c2.4-13.2,6.9-25.6,13.1-36.8l17.5,13.7
	L648.6,515.5L648.6,515.5z"/>
<polygon id="XMLID_181_" class="st7" points="644.5,470.9 548.5,396.1 548.5,375.5 648.6,453.5 648.6,515.5 644.5,513.9 "/>
<path id="XMLID_175_" class="st6" d="M588.3,500c-5.5,0.9-10.7,2.7-15.6,5.3l-24.2-12.7V375.5l42.2,32.9c2.1,12.7,3.1,26,3.1,39.7
	C593.8,466.2,591.9,483.7,588.3,500z"/>
<path id="XMLID_166_" class="st0" d="M616,502.8l32.6,12.7v-61.9l-100.1-78.1v117.1l24.2,12.7C585.6,498.5,601.3,497.1,616,502.8z"
	/>
<path id="XMLID_59_" class="st5" d="M529.4,608.9c0,0,12.1,2.6,29.5,20c6.3,6.3,16.2,19.1,23.5,28.8c3,4,9.4,2,9.5-3l2.4-106.5
	c0.5-3-0.3-6.1-2.2-8.4l-26.2-32.6L529.4,608.9z"/>
<path id="XMLID_48_" class="st6" d="M592,656.8L592,656.8c-5.7-0.8-10-5.7-10.1-11.5l-1.1-99c0.5-3-0.3-6.1-2.2-8.4l-16.4-20.5
	l3.7-10.2l26.2,32.6c1.9,2.4,2.7,5.4,2.2,8.4L592,656.8z"/>
<path id="XMLID_47_" class="st6" d="M529.4,608.9l36.5-101.7l14.5,18.1c-7.8,30-20.1,60.5-36.7,90.9
	C534.9,610.1,529.4,608.9,529.4,608.9z"/>
<path id="XMLID_33_" class="st0" d="M529.4,608.9c0,0,12.1,2.6,29.5,20c6.3,6.3,16.2,19.1,23.5,28.8c3,4,9.4,2,9.5-3l2.4-106.5
	c0.5-3-0.3-6.1-2.2-8.4l-26.2-32.6L529.4,608.9z"/>
<path id="XMLID_22_" class="st12" d="M528.9,666.1c1.1-11.9-0.5-23.1-20.5-52.6c-3.3-4.7-11.2-4.7-14.5,0
	c-20,29.6-21.6,40.8-20.5,52.6c0.2,1.5,2.9,3.2,4.6,2.6c11.5-5.9,34.8-5.9,46.3,0C526,669.3,528.7,667.7,528.9,666.1z"/>
<g id="XMLID_107_" class="st13">
	<g id="XMLID_222_">
		<g id="XMLID_225_">
			<path id="XMLID_226_" class="st14" d="M483.5,666.1c-1.1-11.9,0.5-23.1,20.5-52.6c0.6-0.9,1.4-1.6,2.2-2.1
				c-3.8-2.5-9.6-1.8-12.3,2.1c-20,29.6-21.6,40.8-20.5,52.6c0.2,1.5,2.9,3.2,4.6,2.6c1.7-0.8,3.6-1.6,5.6-2.2
				C483.6,666.4,483.5,666.3,483.5,666.1z"/>
		</g>
		<g id="XMLID_223_">
			<path id="XMLID_224_" class="st14" d="M506.2,664.5c6.9,0.5,13.4,1.9,18.1,4.2c1.5,0.6,3.9-0.8,4.5-2.2
				C522.2,664.6,514,663.9,506.2,664.5z"/>
		</g>
	</g>
</g>
<g id="XMLID_46_">
	<g id="XMLID_168_">
		<g id="XMLID_169_">
			<path id="XMLID_170_" class="st15" d="M497.4,613.5c-0.3-0.4-0.6-0.7-0.9-1c3.7-3.7,10.6-3.3,13.6,1c20,29.6,21.6,40.8,20.5,52.6
				c-0.2,1.5-2.9,3.2-4.6,2.6c-2.3-1.2-5.1-2.1-8.1-2.8C519,654.1,517.3,642.9,497.4,613.5z"/>
		</g>
	</g>
</g>
<path id="XMLID_17_" class="st0" d="M528.9,666.1c1.1-11.9-0.5-23.1-20.5-52.6c-3.3-4.7-11.2-4.7-14.5,0
	c-20,29.6-21.6,40.8-20.5,52.6c0.2,1.5,2.9,3.2,4.6,2.6c11.5-5.9,34.8-5.9,46.3,0C526,669.3,528.7,667.7,528.9,666.1z"/>
<path id="XMLID_15_" class="st5" d="M523.7,630.2c47.1-77.1,64.2-152.8,53.6-215.9c-9.2-54.8-38.8-94.3-76.2-119
	c-37.4,24.7-67,64.2-76.2,119c-10.6,63.1,6.6,138.8,53.6,215.9H523.7z"/>
<path id="XMLID_20_" class="st7" d="M460.7,415.4c6-49.6,21.6-89,42.6-118.5c-0.7-0.5-1.5-1-2.2-1.5c-37.4,24.7-67,64.2-76.2,119
	c-10.6,63.1,6.6,138.8,53.6,215.9h9.5C461.9,553.2,453.1,479.1,460.7,415.4z"/>
<path id="XMLID_54_" class="st9" d="M577.3,414.3c-9.1-54.4-38.3-93.7-75.4-118.4c6.9,11.1,15.7,27.1,23.1,47.4
	c13.5,36.9,15,67.3,15.8,86.4c3.6,85.9-29.3,180.9-36.2,200.6h19.1C570.8,553.1,587.9,477.4,577.3,414.3z"/>
<path id="XMLID_5_" class="st6" d="M577.3,414.3c-9.2-54.8-38.8-94.3-76.2-119c-1,0.6-1.9,1.3-2.9,1.9c14.2,11.1,25,23,33.2,34.4
	c73.6,102.4,3,255.7-6.7,276c-0.4-13.8-2.2-30.9-7.3-50c-3.3-12.2-7.3-22.9-11.3-32c-1.5,33.9-3,67.8-4.5,101.7H514
	c-0.3,1-0.6,1.9-1,2.9h10.5C570.8,553.1,587.9,477.4,577.3,414.3z"/>
<path id="XMLID_6_" class="st8" d="M437.5,431.7c1.4-16,6.6-68,38.7-110.7c5.1-6.7,12.7-15.8,12.1-16.3c-0.9-0.8-18.5,15.1-31,32
	c-15.7,21.1-27.2,47-32.3,77.6c-10.6,63.1,6.6,138.8,53.6,215.9h4.1c-12.9-25.7-21.4-48.9-27.2-67.2c-3.8-12.3-10.5-34.1-14.7-63.3
	C438.1,480.1,435.1,459.1,437.5,431.7z"/>
<circle id="XMLID_13_" class="st16" cx="506.5" cy="425.1" r="27.2"/>
<path id="XMLID_11_" class="st0" d="M523.7,630.2c47.1-77.1,64.2-152.8,53.6-215.9c-9.2-54.8-38.8-94.3-76.2-119
	c-37.4,24.7-67,64.2-76.2,119c-10.6,63.1,6.6,138.8,53.6,215.9H523.7z"/>
<ellipse id="XMLID_25_" transform="matrix(0.1602 -0.9871 0.9871 0.1602 5.4011 848.1483)" class="st17" cx="501.1" cy="420.9" rx="27.2" ry="27.2"/>
<circle id="XMLID_26_" class="st18" cx="497.4" cy="419.4" r="16.4"/>
<ellipse id="XMLID_1_" transform="matrix(0.1602 -0.9871 0.9871 0.1602 5.4011 848.1483)" class="st0" cx="501.1" cy="420.9" rx="27.2" ry="27.2"/>
<path id="XMLID_44_" class="st10" d="M462.7,329.8c24.9-8.6,52.2-8.6,77.1,0.1c-11.3-13.7-24.4-25.2-38.6-34.6
	C487,304.7,473.9,316.2,462.7,329.8z"/>
<path id="XMLID_23_" class="st0" d="M462.7,329.8c24.9-8.6,52.2-8.6,77.1,0.1c-11.3-13.7-24.4-25.2-38.6-34.6
	C487,304.7,473.9,316.2,462.7,329.8z"/>
<path id="XMLID_18_" class="st19" d="M501.1,677L501.1,677c1.1,0,2-1.2,2.1-2.8l7.5-122.4c0.8-12.6-3.2-24.3-9.1-27.1
	c-0.4-0.2-0.8-0.2-1.1,0c-5.9,2.7-9.9,14.4-9.1,27.1l7.5,122.4C499.1,675.8,500.1,677,501.1,677z"/>
<path id="XMLID_2_" class="st20" d="M501.1,677L501.1,677c1.1,0,2-1.2,2.1-2.8l7.5-122.4c0.8-12.6-3.2-24.3-9.1-27.1
	c-0.4-0.2-0.8-0.2-1.1,0c-5.9,2.7-9.9,14.4-9.1,27.1l7.5,122.4C499.1,675.8,500.1,677,501.1,677z"/>
<g id="XMLID_8_" class="st21">
	<g id="XMLID_199_">
		<g id="XMLID_202_">
			<path id="XMLID_203_" class="st14" d="M500.6,524.7c-5.9,2.7-9.9,14.4-9.1,27.1l7.5,122.4c0.1,1.3,0.7,2.4,1.5,2.7V524.7H500.6z"
				/>
		</g>
		<g id="XMLID_200_">
			<path id="XMLID_201_" class="st14" d="M500.6,524.7h1.1C501.3,524.5,500.9,524.5,500.6,524.7z"/>
		</g>
	</g>
</g>
<path id="XMLID_27_" class="st0" d="M501.1,677L501.1,677c1.1,0,2-1.2,2.1-2.8l7.5-122.4c0.8-12.6-3.2-24.3-9.1-27.1
	c-0.4-0.2-0.8-0.2-1.1,0c-5.9,2.7-9.9,14.4-9.1,27.1l7.5,122.4C499.1,675.8,500.1,677,501.1,677z"/>
<path id="XMLID_255_" class="st5" d="M647.9,531.7c-10.2-14.8-16.1-32.3-16.1-51c0-23.7,9.3-45.4,24.8-62.1
	c15.5,16.7,24.9,38.4,25,62.1c0,18.8-5.9,36.2-16,51H647.9z"/>
<path id="XMLID_249_" class="st5" d="M647.9,531.7c-10.2-14.8-16.1-32.3-16.1-51c0-23.7,9.3-45.4,24.8-62.1
	c15.5,16.7,24.9,38.4,25,62.1c0,18.8-5.9,36.2-16,51H647.9z"/>
<path id="XMLID_245_" class="st7" d="M655.2,418.6c1.2,1.3,2.4,2.7,3.5,4.1c-10.4,16-16.4,34.8-16.5,54.8c0,19.8,3,38.3,13.2,54.3
	h-9.2c-10.1-14.8-16-32.3-16-51C630.2,457,639.6,435.3,655.2,418.6z"/>
<path id="XMLID_242_" class="st8" d="M655.2,418.6c0.4,0.4,0.8,0.9,1.2,1.4c-11.7,17.3-18.4,37.6-18.5,59.4c0,18.9,5.1,36.7,14,52.4
	h-5.7c-10.1-14.8-16-32.3-16-51C630.2,457,639.6,435.3,655.2,418.6z"/>
<path id="XMLID_239_" class="st9" d="M681.6,480.7c0-23.7-9.4-45.3-25-62.1c-1.2,1.3-2.4,2.7-3.5,4.1c10.4,16,16.4,34.8,16.5,54.8
	c0,19.8-5.8,38.3-16,54.3h12C675.7,516.9,681.6,499.4,681.6,480.7z"/>
<path id="XMLID_236_" class="st6" d="M681.6,480.7c0-23.7-9.4-45.3-25-62.1c-0.4,0.4-0.8,0.9-1.2,1.4c11.7,17.3,18.4,37.6,18.5,59.4
	c0,18.9-5.1,36.7-14,52.4h5.7C675.7,516.9,681.6,499.4,681.6,480.7z"/>
<path id="XMLID_233_" class="st9" d="M656.6,418.6c-1.2,1.3-2.4,2.7-3.5,4.1c10.4,16,16.4,34.8,16.5,54.8c0,19.8-5.8,38.3-16,54.3
	h12c10.1-14.8,16-32.3,16-51C681.6,457,672.2,435.3,656.6,418.6z"/>
<path id="XMLID_230_" class="st6" d="M656.6,418.6c-0.4,0.4-0.8,0.9-1.2,1.4c11.7,17.3,18.4,37.6,18.5,59.4c0,18.9-5.1,36.7-14,52.4
	h5.7c10.1-14.8,16-32.3,16-51C681.6,457,672.2,435.3,656.6,418.6z"/>
<path id="XMLID_227_" class="st10" d="M669.9,436.6c-3.7-6.5-8.1-12.5-13.2-18.1c-5.1,5.5-9.5,11.6-13.2,18.1H669.9z"/>
<path id="XMLID_219_" class="st0" d="M647.9,531.7c-10.2-14.8-16.1-32.3-16.1-51c0-23.7,9.3-45.4,24.8-62.1
	c15.5,16.7,24.9,38.4,25,62.1c0,18.8-5.9,36.2-16,51H647.9z"/>
<line id="XMLID_210_" class="st11" x1="640.3" y1="518.5" x2="673.2" y2="518.5"/>
<path id="XMLID_228_" class="st22" d="M470.3,326.4c0,0,6.8-10.7,29.9-28.7c-10.7,14.5-12.8,23.6-13.5,24.3
	C479.9,323.3,470.3,326.4,470.3,326.4z"/>
</svg>
