<?xml version="1.0" encoding="utf-8"?>
<!-- Generator: Adobe Illustrator 19.0.0, SVG Export Plug-In . SVG Version: 6.00 Build 0)  -->
<svg version="1.1" id="Layer_1" xmlns="http://www.w3.org/2000/svg" xmlns:xlink="http://www.w3.org/1999/xlink" x="0px" y="0px"
	 viewBox="300 -400 1000 1000" style="enable-background:new 300 -400 1000 1000;" xml:space="preserve">
<style type="text/css">
	.st0{fill:#2B2727;}
	.st1{fill:#72361F;}
	.st2{fill:#5B3318;}
	.st3{fill:#783F21;}
	.st4{opacity:0.4;}
	.st5{clip-path:url(#SVGID_2_);}
	.st6{fill:none;stroke:#300F0F;stroke-width:6;stroke-linecap:round;stroke-linejoin:round;stroke-miterlimit:10;}
	.st7{opacity:0.44;fill:#72361F;enable-background:new    ;}
	.st8{fill:#C9C9C9;}
	.st9{fill:#B5B5B5;}
	.st10{fill:#F45145;}
	.st11{fill:#DB493E;}
	.st12{fill:#AA3930;}
	.st13{fill:#ABABAB;}
	.st14{fill:#3B69A9;}
	.st15{fill:#355E98;}
	.st16{opacity:0.23;fill:#72361F;enable-background:new    ;}
	.st17{fill:#E1E1E1;}
	.st18{fill:#FDC457;}
	.st19{fill:#F2B24C;}
	.st20{fill:#323B40;}
	.st21{fill:#2D363A;}
	.st22{fill:#7D4025;}
	.st23{opacity:8.000000e-002;clip-path:url(#SVGID_4_);}
	.st24{fill:none;stroke:#300F0F;stroke-width:5.8435;stroke-linecap:round;stroke-linejoin:round;stroke-miterlimit:10;}
	.st25{fill:none;stroke:#300F0F;stroke-width:7.8052;stroke-linecap:round;stroke-linejoin:round;stroke-miterlimit:10;}
	.st26{fill:none;stroke:#300F0F;stroke-width:5.3519;stroke-linecap:round;stroke-linejoin:round;stroke-miterlimit:10;}
	.st27{fill:#D98C40;}
	.st28{fill:#C87634;}
	.st29{clip-path:url(#SVGID_6_);}
	.st30{fill:none;stroke:#CF8139;stroke-width:6;stroke-linecap:round;stroke-linejoin:round;stroke-miterlimit:10;}
	.st31{fill:none;stroke:#CF8139;stroke-width:4.9126;stroke-linecap:round;stroke-linejoin:round;stroke-miterlimit:10;}
</style>
<path id="XMLID_30_" class="st0" d="M1222.6,431.8H349.8c-19.7,0-35.6-15.9-35.6-35.6l0,0c0-19.7,15.9-35.6,35.6-35.6h872.8
	c19.7,0,35.6,15.9,35.6,35.6l0,0C1258.2,415.8,1242.3,431.8,1222.6,431.8z"/>
<path id="XMLID_46_" class="st1" d="M1106,45.3V-31c0-29.2-23.7-52.9-52.9-52.9l0,0c-29.2,0-52.9,23.7-52.9,52.9v76.1
	c0,48.6-39.5,88.1-88.1,88.1l0,0v223.3c0,19.5,15.7,35.3,35.3,35.3h211.6c19.5,0,35.3-15.7,35.3-35.3V133.3l0,0
	C1145.3,133.4,1106,93.9,1106,45.3z"/>
<rect id="XMLID_2_" x="1032.5" y="-83.9" class="st1" width="24.1" height="12.2"/>
<path id="XMLID_43_" class="st2" d="M1085.4,45.3V-31c0-29.2-23.7-52.9-52.9-52.9l0,0c-29.2,0-52.9,23.7-52.9,52.9v76.1
	c0,48.6-39.5,88.1-88.1,88.1l0,0v223.3c0,19.5,15.7,35.3,35.3,35.3h211.6c19.5,0,35.3-15.7,35.3-35.3V133.3l0,0
	C1124.8,133.4,1085.4,93.9,1085.4,45.3z"/>
<path id="XMLID_20_" class="st2" d="M1173.5,133.4L1173.5,133.4c-33.2,0-62-18.4-77.1-45.4l-81.5,32.9l-41.3,22.9l97.8,15.3
	l102.1-20.3V133.4z"/>
<circle id="XMLID_31_" class="st3" cx="1032.5" cy="-29.9" r="17.6"/>
<rect id="XMLID_1_" x="516.7" y="-98.8" class="st1" width="20.6" height="5.4"/>
<rect id="XMLID_28_" x="525.6" y="-47.6" class="st3" width="507" height="35.3"/>
<g class="st4">
	<g>
		<g>
			<defs>
				<rect id="SVGID_1_" x="525.6" y="-47.6" width="507" height="35.3"/>
			</defs>
			<clipPath id="SVGID_2_">
				<use xlink:href="#SVGID_1_"  style="overflow:visible;"/>
			</clipPath>
			<g id="XMLID_82_" class="st5">
				<path id="XMLID_11_" class="st6" d="M555.3-96.1c1.8,12.2,11.9,78.2,60.7,100.9c5.9,2.8,29.5,13.8,42.2,4
					c16.6-13.1-4.6-48.8,13.7-70.5c11.8-14.1,34.8-16.2,50-13.7c52.3,8.7,53.3,79.8,103.9,91.1c32,7.2,65.8-13.7,83.3-24.5
					c36.4-22.5,42.9-46.6,64.6-47c13.4-0.3,33.1,8.2,57.7,51.9"/>
				<path id="XMLID_10_" class="st6" d="M595.4-67.7c-5.6,8.5-6.5,19.1-1.9,27.5c4.4,8.1,12.2,11,14.7,11.8
					c2.6,0.9,12.2,3.4,20.6-1.9c8.2-5.3,12.3-16.3,9.8-27.5"/>
				<path id="XMLID_95_" class="st6" d="M688.4-8.9c-0.7-2.1-7.2-20.7,4-37.2c0.6-1,10.1-14.8,22.5-15.7c17.5-1.3,39.1,23.4,46,63.6
					"/>
				<path id="XMLID_96_" class="st6" d="M711.9-35.4c-5,2.5-5.9,12.6-2.9,19.5c0.6,1.3,4.3,9.7,10.7,9.8c6.3,0.1,12-7.8,11.8-14.7
					C731.2-30.7,718.1-38.3,711.9-35.4z"/>
				<path id="XMLID_97_" class="st6" d="M796.3-68.6c0.4,4.8,1.8,14.1,7.8,23.5c8.7,13.5,21,18.8,25.4,20.6
					c4.3,1.8,17.8,7.1,33.3,2.9c10.3-2.6,14.4-7.8,40.1-31.3c9-8.2,16.3-14.7,20.6-18.7"/>
				<path id="XMLID_98_" class="st6" d="M949.1-3.1c1.3-12,9.3-21.7,19.5-24.5c1-0.3,14.5-3.7,23.5,5.9c6.5,6.9,6,15.9,5.9,17.6"/>
				<path id="XMLID_99_" class="st6" d="M843.3-64.8c0,13.4,6.5,23.2,13.7,24.5c6.2,1,12-4.4,14.7-6.9c7.3-6.8,9.3-15.3,9.8-18.7"/>
			</g>
		</g>
	</g>
</g>
<rect id="XMLID_101_" x="719.4" y="-47.6" class="st7" width="23.4" height="35"/>
<rect id="XMLID_134_" x="591.9" y="-47.6" class="st7" width="36.9" height="35"/>
<rect id="XMLID_103_" x="879.7" y="-47.6" class="st7" width="32.3" height="35"/>
<g id="XMLID_107_">
	<polygon id="XMLID_26_" class="st8" points="705.2,-60.1 705,-60.1 692.3,-94.4 692.3,-94.4 692.3,-94.4 692.3,-94.4 692.3,-94.4 
		702.7,-142.3 730.4,-142.3 741,-94.4 741,-94.4 741,-94.4 741,-94.4 741,-94.4 728.1,-60.1 728.1,-60.1 728.1,43.2 705.2,43.2 	"/>
	<polygon id="XMLID_24_" class="st9" points="720.8,-60.1 733.7,-94.4 733.7,-94.4 733.7,-94.4 733.7,-94.4 723.1,-142.3 
		730.4,-142.3 741,-94.4 741,-94.4 741,-94.4 741,-94.4 728.1,-60.1 728.1,-60.1 728.1,43.2 720.8,43.2 	"/>
	<path id="XMLID_15_" class="st10" d="M681.2,256.1V88.5c0-8.1,4.8-15.1,11.9-18.1c2.9-1.2,3.4-5.1,0.9-7.2l-9.8-8.2
		c-2.6-2.2-4.1-5.4-4.1-8.8v-7.8c0-2.9,2.4-5.3,5.3-5.3h62.3c2.9,0,5.3,2.4,5.3,5.3v7.8c0,3.4-1.5,6.6-4.1,8.8l-9.8,8.2
		c-2.4,2.1-1.9,5.9,0.9,7.2c7.1,3.1,11.9,10,11.9,18.1v167.6c0,10.9-8.8,19.7-19.7,19.7h-31.4C690,275.9,681.2,267,681.2,256.1z"/>
	<path id="XMLID_16_" class="st11" d="M740.3,256.1V88.5c0-8.1-4.8-15.1-11.9-18.1c-2.9-1.2-3.4-5.1-0.9-7.2l9.8-8.2
		c2.6-2.2,4.1-5.4,4.1-8.8v-7.8c0-2.9-2.4-5.3-5.3-5.3h11.8c2.9,0,5.3,2.4,5.3,5.3v7.8c0,3.4-1.5,6.6-4.1,8.8l-9.8,8.2
		c-2.4,2.1-1.9,5.9,0.9,7.2c7.1,3.1,11.9,10,11.9,18.1v167.6c0,10.9-8.8,19.7-19.7,19.7h-11.8C731.5,275.9,740.3,267,740.3,256.1z"
		/>
	<path id="XMLID_23_" class="st12" d="M710.3,247.1v-140c0-4.1-3.2-7.3-7.3-7.3l0,0c-4.1,0-7.3,3.2-7.3,7.3v140
		c0,4.1,3.2,7.3,7.3,7.3l0,0C707.1,254.5,710.3,251.1,710.3,247.1z"/>
	<path id="XMLID_25_" class="st12" d="M737.5,247.1v-140c0-4.1-3.2-7.3-7.3-7.3l0,0c-4.1,0-7.3,3.2-7.3,7.3v140
		c0,4.1,3.2,7.3,7.3,7.3l0,0C734.3,254.5,737.5,251.1,737.5,247.1z"/>
</g>
<g id="XMLID_108_">
	<path id="XMLID_9_" class="st8" d="M925.4-143.1c-2.4,2.6-5.9,6.5-8.8,9.7c-3.1,3.4-8.2,4-12,1.2c-8.4-6-22.2-16.5-39.7-17.8
		c-25.3-2.1-42.3,6.9-57.7,19c-22.8,17.9-37.2,39.4-44.8,52.6c5.7,5,8.2,6.5,12.6,10.1c7.2-7.5,21.3-23.2,41.3-28.2
		c3.1-0.7,8.5-2.1,15,0c2.2,0.7,6.3,2.4,10,6.5c6.3,7.1,5.9,15.7,5.9,17.6v57h37.5v-54.5c-0.7-9.5,3.4-18.4,10.6-22
		c0.6-0.3,7.6-3.8,14.5-1.2c5,1.9,11.2,7.6,15.9,12.2c0.4,0.4,1.6,1.5,3.5,2.2c1,0.3,2.2,0.6,3.2,0.4c6.8-0.1,20.6-0.4,30.1-0.9
		c4.6-0.1,8.1-3.8,8.1-8.4v-49.7c0-4.6-3.7-8.2-8.2-8.4c-9.1-0.1-22-0.4-29.8-0.6C929.8-146.2,927.2-145,925.4-143.1z"/>
	<g id="XMLID_12_">
		<path id="XMLID_27_" class="st13" d="M828.1-99.1c-4.1-4.7-9.1-6.6-11.5-7.5c-7.3-2.4-13.8-0.9-17.3,0c-11,2.6-20.4,8.2-28.2,14.3
			c-3.5,5.1-6.5,9.8-8.8,13.8c5.7,5,8.2,6.5,12.6,10.1c7.2-7.5,21.3-23.2,41.3-28.2c2.8-0.7,7.8-1.9,13.7-0.4
			C829.5-97.5,828.9-98.3,828.1-99.1z"/>
		<path id="XMLID_44_" class="st13" d="M968.5-86.5c-11,0.3-27,0.7-34.8,0.9c-1.3,0-2.6-0.1-3.8-0.6c-2.2-0.7-3.7-2.1-4.1-2.5
			c-5.4-5.1-12.6-11.8-18.4-14c-7.9-3.1-16.2,1.2-16.7,1.5c-8.2,4.4-12.9,14.4-12.2,25.6v60.5h6.3v-54.5c-0.7-9.5,3.4-18.4,10.6-22
			c0.6-0.3,7.6-3.8,14.5-1.2c5,1.9,11.2,7.6,15.9,12.2c0.4,0.4,1.6,1.5,3.5,2.2c1,0.3,2.2,0.6,3.2,0.4c6.8-0.1,20.6-0.4,30.1-0.9
			c4.3-0.1,7.8-3.5,8.1-7.6C969.9-86.6,969.2-86.5,968.5-86.5z"/>
	</g>
	<path id="XMLID_4_" class="st14" d="M870.5,244.8h-7.1c-18.5,0-33.2-18.2-32.6-40.1l6.9-219.9h58.5l6.9,219.9
		C903.7,226.6,889,244.8,870.5,244.8z"/>
	<path id="XMLID_93_" class="st15" d="M903.1,204.7l-6.9-219.9h-14.3l6.9,219.9c0.6,20.4-12.2,37.6-28.9,39.8
		c1.2,0.1,2.4,0.3,3.5,0.3h7.1C889,244.8,903.7,226.6,903.1,204.7z"/>
	<path id="XMLID_7_" class="st15" d="M903.8,2.5h-73.8c-4.8,0-8.8-4-8.8-8.8l0,0c0-4.8,4-8.8,8.8-8.8h73.8c4.8,0,8.8,4,8.8,8.8l0,0
		C912.6-1.4,908.7,2.5,903.8,2.5z"/>
</g>
<polygon id="XMLID_102_" class="st16" points="834.9,81.4 897.6,38.2 899,78 833.9,114.5 "/>
<g id="XMLID_109_">
	<polygon id="XMLID_70_" class="st8" points="1070.6,-87.4 680.2,215 756.5,313.3 1188.8,63.8 	"/>
	<polygon id="XMLID_65_" class="st17" points="1171.8,39.1 737.6,288.9 757,313.7 1183.4,66.9 	"/>
	<path id="XMLID_13_" class="st18" d="M1278-35.8l-80.4-103.7c-12.3-16-35.4-19-51.4-6.5l-8.5,6.6l30,38.6l0,0c2.1-0.7,4.1-1,6.3-1
		h0.1c0.4,0,1,0,1.5,0c0.1,0,0.1,0,0.3,0c1.3,0.1,2.8,0.3,4.1,0.7c0.1,0,0.4,0.1,0.6,0.1c0.3,0.1,0.6,0.1,1,0.3
		c0.3,0.1,0.6,0.1,0.9,0.3c0.3,0.1,0.6,0.3,0.9,0.3c0.3,0.1,0.7,0.3,1,0.4c0.1,0.1,0.4,0.1,0.6,0.3c0.6,0.3,1,0.6,1.5,1
		c0.1,0.1,0.3,0.3,0.6,0.4c0.3,0.3,0.7,0.6,1,0.7c0.1,0.1,0.3,0.3,0.6,0.4c0.3,0.3,0.6,0.6,1,0.9c0.1,0.1,0.3,0.3,0.4,0.4
		c0.4,0.4,0.9,1,1.3,1.5l38.2,49.4c0.4,0.6,0.7,1,1.2,1.6c0.1,0.1,0.1,0.3,0.3,0.6c0.3,0.4,0.4,0.7,0.6,1.2c0.1,0.1,0.1,0.4,0.3,0.6
		c0.1,0.4,0.3,0.7,0.6,1.2c0.1,0.1,0.1,0.4,0.3,0.6c0.1,0.6,0.4,1.2,0.6,1.8c0,0.3,0.1,0.4,0.1,0.7c0.1,0.4,0.1,0.7,0.3,1.2
		c0,0.3,0.1,0.6,0.1,0.9s0,0.6,0.1,0.9c0,0.3,0,0.7,0.1,1c0,0.3,0,0.4,0,0.7c0,1.5-0.1,2.8-0.3,4.1c0,0.1,0,0.1,0,0.3
		c-0.1,0.4-0.1,0.9-0.3,1.5v0.1c-0.6,2.1-1.5,4-2.6,5.9l0,0l31.7,41l5-2.9C1286.7,7.4,1291.7-18.2,1278-35.8z"/>
	<g id="XMLID_135_">
		<path id="XMLID_146_" class="st19" d="M1221.1-55.2l-38.2-49.4c-0.4-0.6-0.9-1-1.3-1.5c-0.1-0.1-0.3-0.3-0.4-0.4
			c-0.3-0.3-0.6-0.6-1-0.9c-0.1-0.1-0.3-0.3-0.6-0.4c-0.3-0.3-0.7-0.6-1-0.7c-0.1-0.1-0.3-0.3-0.6-0.4c-0.4-0.3-1-0.7-1.5-1
			c-0.1-0.1-0.4-0.1-0.6-0.3c-0.3-0.1-0.7-0.3-1-0.4c-0.3-0.1-0.6-0.3-0.9-0.3c-0.3-0.1-0.6-0.1-0.9-0.3c-0.3-0.1-0.6-0.3-1-0.3
			c-0.1,0-0.4-0.1-0.6-0.1c-1.3-0.4-2.8-0.6-4.1-0.7c-0.1,0-0.1,0-0.3,0c-0.4,0-1,0-1.5,0h-0.1c-2.1,0-4.3,0.4-6.3,1l0,0l-21.3-28.1
			l0,0l30,38.6l0,0c2.1-0.7,4.1-1,6.3-1h0.1c0.4,0,1,0,1.5,0c0.1,0,0.1,0,0.3,0c1.3,0.1,2.8,0.3,4.1,0.7c0.1,0,0.4,0.1,0.6,0.1
			c0.3,0.1,0.6,0.1,1,0.3c0.3,0.1,0.6,0.1,0.9,0.3c0.3,0.1,0.6,0.3,0.9,0.3c0.3,0.1,0.7,0.3,1,0.4c0.1,0.1,0.4,0.1,0.6,0.3
			c0.6,0.3,1,0.6,1.5,1c0.1,0.1,0.3,0.3,0.6,0.4c0.3,0.3,0.7,0.6,1,0.7c0.1,0.1,0.3,0.3,0.6,0.4c0.3,0.3,0.6,0.6,1,0.9
			c0.1,0.1,0.3,0.3,0.4,0.4c0.4,0.4,0.9,1,1.3,1.5l30.4,39.2C1221.6-54.6,1221.3-54.9,1221.1-55.2z"/>
		<path id="XMLID_149_" class="st19" d="M1278-35.8l-7.2-9.3c12,17.5,6.8,41.7-11.9,52.6l-5,2.9l-23.2-30.1l0,0l0,0l31.7,41l5-2.9
			C1286.7,7.4,1291.7-18.2,1278-35.8z"/>
	</g>
	<g id="XMLID_45_">
		<path id="XMLID_66_" class="st20" d="M1188.1-96.9L1188.1-96.9L1188.1-96.9L1188.1-96.9z"/>
		<path id="XMLID_67_" class="st20" d="M1186.5-98.1c-0.4-0.3-1-0.7-1.5-1l0,0C1185.4-98.8,1186-98.4,1186.5-98.1L1186.5-98.1z"/>
		<path id="XMLID_68_" class="st20" d="M1188.5-96.5L1188.5-96.5c0.3,0.3,0.6,0.6,0.9,0.9C1189.3-95.9,1189-96.2,1188.5-96.5z"/>
		<path id="XMLID_72_" class="st20" d="M1184.4-99.4c-0.3-0.1-0.7-0.3-1-0.4l0,0C1183.7-99.7,1184-99.6,1184.4-99.4L1184.4-99.4z"/>
		<path id="XMLID_76_" class="st20" d="M1178-101.6C1178-101.6,1178-101.5,1178-101.6C1178-101.5,1178-101.5,1178-101.6z"/>
		<path id="XMLID_77_" class="st20" d="M1174.3-101.9C1174.1-101.9,1174.1-101.9,1174.3-101.9
			C1174.1-101.9,1174.1-101.9,1174.3-101.9L1174.3-101.9z"/>
		<path id="XMLID_79_" class="st20" d="M1233.8-34.1c0,0.3,0,0.6,0.1,0.9l0,0C1233.9-33.5,1233.8-33.8,1233.8-34.1L1233.8-34.1z"/>
		<path id="XMLID_81_" class="st20" d="M1182.5-100.3c-0.1,0-0.3-0.1-0.4-0.1C1182.2-100.3,1182.4-100.3,1182.5-100.3L1182.5-100.3z
			"/>
		<path id="XMLID_83_" class="st20" d="M1175.9-101.8c-0.1,0-0.1,0-0.3,0l0,0C1175.7-101.8,1175.9-101.8,1175.9-101.8L1175.9-101.8z
			"/>
		<path id="XMLID_84_" class="st20" d="M1233.6-35.4c0,0.1,0,0.3,0.1,0.4l0,0C1233.6-35.1,1233.6-35.2,1233.6-35.4z"/>
		<path id="XMLID_85_" class="st20" d="M1232.8-38.5c0.1,0.3,0.3,0.7,0.3,1.2C1232.9-37.7,1232.9-38.2,1232.8-38.5L1232.8-38.5z"/>
		<path id="XMLID_86_" class="st20" d="M1233.9-32.1L1233.9-32.1c0,0.3,0,0.4,0,0.7l0,0C1233.9-31.7,1233.9-31.9,1233.9-32.1z"/>
		<path id="XMLID_87_" class="st20" d="M1232-40.2c0.1,0.1,0.1,0.4,0.3,0.6C1232.2-39.9,1232-40.1,1232-40.2L1232-40.2z"/>
		<path id="XMLID_88_" class="st20" d="M1230.5-19.7L1230.5-19.7c-1.3,2.1-2.9,3.8-4.8,5.3l-12.5,9.7c-18.8,14.5-45.7,11.2-60.2-7.6
			l-11.8-15.3c-14.5-18.8-11.2-45.7,7.6-60.2l12.5-9.7c1.9-1.5,4.1-2.6,6.5-3.4l0,0l0,0l-30-38.6l-78.3,60.7l116.4,150.1l91.5-52.9
			l-5,2.9L1230.5-19.7z"/>
		<path id="XMLID_89_" class="st20" d="M1231-42.1c0.1,0.1,0.3,0.4,0.3,0.6C1231.3-41.7,1231.1-41.8,1231-42.1L1231-42.1z"/>
		<path id="XMLID_90_" class="st20" d="M1229.5-44.3c0.4,0.6,0.7,1,1.2,1.6l0,0C1230.3-43.2,1230-43.8,1229.5-44.3z"/>
		<path id="XMLID_91_" class="st20" d="M1233.6-27.3L1233.6-27.3L1233.6-27.3z"/>
		<path id="XMLID_92_" class="st20" d="M1233.9-29.4L1233.9-29.4L1233.9-29.4z"/>
	</g>
	<path id="XMLID_19_" class="st18" d="M1133.7-143.9"/>
</g>
<polygon id="XMLID_195_" class="st21" points="1262.3,21.3 1175.7,71.3 1167.8,61.1 1254.1,10.8 "/>
<path id="XMLID_14_" class="st22" d="M1153,392H638.5V133.4h534.9v238C1173.5,382.7,1164.3,392,1153,392z"/>
<g>
	<g>
		<g>
			<g>
				<defs>
					<path id="SVGID_3_" d="M1153,392H638.5V133.4h534.9v238C1173.5,382.7,1164.3,392,1153,392z"/>
				</defs>
				<clipPath id="SVGID_4_">
					<use xlink:href="#SVGID_3_"  style="overflow:visible;"/>
				</clipPath>
				<g id="XMLID_166_" class="st23">
					<path id="XMLID_147_" class="st6" d="M676.7,317.4c13.2-22.3,59.9,2.4,38.6,26.9C698.7,363.5,664,338.8,676.7,317.4
						C683.4,305.9,671.5,326,676.7,317.4z"/>
					<path id="XMLID_148_" class="st24" d="M730.9,114.9c0.1,35.7,12,89.5,34.2,107.7c44.1,36,183.2-23.5,185.1-81.2
						C952.6,70.7,749.7-0.1,722.1,33.7c-8.5,10.4-7.8,40.5-2.5,42.2c1.8,0.6,3.4-3.2,5.4-2.8C731.2,73.9,730.9,107.4,730.9,114.9z"
						/>
					<path id="XMLID_150_" class="st6" d="M638.9,145.6c-35.1,97.7,104.8,78.6,130.9,143.1c27.6,68-62.3,121.2-115,136.8"/>
					<path id="XMLID_154_" class="st6" d="M643.9,288.9c59.4-40.5,120.3-5,84.2,61.9c-21.2,39.1-63.9,59.1-107.1,61.6"/>
					<path id="XMLID_176_" class="st6" d="M1081.7,271.1"/>
					<path id="XMLID_172_" class="st6" d="M1063.1,571.4"/>
					<path id="XMLID_155_" class="st6" d="M1138.3,222.6c5.7,3.5,15.6,8.2,27.9,8.2c5.6,0,12.6-0.1,18.7-5c1.6-1.3,6.5-5.3,6.6-10.4
						c0.3-9.3-14-18.2-26.9-19.1c-10.4-0.6-25.1,3.8-27.9,14.4C1135.5,215.4,1137,219.8,1138.3,222.6z"/>
					<path id="XMLID_161_" class="st6" d="M1119,256.8c13.4,7.3,26.6,5.3,52.9,1c17.8-2.8,27.5-4.6,37.3-12.5
						c2.8-2.2,17.5-14.1,18.7-32.2c1.6-23.4-20.4-42.5-38.3-49.8c-31.1-12.6-60.1,6-65.2,9.3c-9,5.9-31,20-31.1,43.5
						C1093,234.8,1106.4,249.9,1119,256.8z"/>
					<path id="XMLID_162_" class="st6" d="M1223.2,285.9c-7.8,6-33.3,24.8-68.6,20.6c-28.2-3.4-46-19.7-51-24.5
						c-22-21.6-25.6-47.6-26.4-55.8s-2.9-27.9,7.6-49.2c9-17.9,22-27.5,30.1-33.2c33.2-23.8,69.1-20.4,75.7-19.7
						c12.3,1.3,31,3.4,47.7,17.6c29.4,25,25.6,66.7,24.8,73.6C1259.3,257.4,1229.1,281.5,1223.2,285.9z"/>
					<path id="XMLID_164_" class="st6" d="M1237.3,305.5c-4.8,4.7-12.5,11-23.1,16.2c-40.5,19.4-85.9,0.6-111.2-9.8
						c-26-10.7-43.9-23.2-68.6-40.1c-42.8-29.5-47.9-41.9-75.4-48.9c-8.8-2.4-37-9.1-65.4,3.7c-8.5,3.8-15,8.8-21.7,14.4
						c-32.8,26.7-41.9,57-70.5,120.5c-6.6,14.7-16.5,36-29.4,61.7"/>
					<path id="XMLID_165_" class="st6" d="M836.7,502.3c23.2,7.5,70.4-98.3,102.1-87c17.8,6.3,16,44.5,30.1,45.8
						c15.6,1.3,30.9-44.1,32.3-48.5c3.7-11.3,28.5-86.5-13.2-135.2c-5.7-6.6-18.7-21.3-40-26c0,0-22.8-5-49.7,8.4
						C827.4,294.7,806.6,492.5,836.7,502.3z"/>
					<path id="XMLID_173_" class="st6" d="M898.4,374.5c8.4,6.2,29.7-8.4,41.1-22c5.7-6.8,17.8-21,12.3-32
						c-4.3-8.5-17.3-11.6-27-9.1c-11,2.8-16.2,12.5-20.6,20.6C897.2,345,890.1,368.5,898.4,374.5z"/>
					<path id="XMLID_174_" class="st6" d="M955.7,82.6c14.4,14.8,30.4,36,25.9,57c-3.4,15.6-16.2,22.2-13.7,26.3
						c4.8,8.1,58.6-3.5,94-41.1c18.8-20,27.5-42.2,31.6-56.7"/>
					<path id="XMLID_177_" class="st6" d="M813.2,168.8c11.2,12,33.2,22.6,50,14.7c16.2-7.6,19.7-28.8,20.6-34.2
						c7.3-43.8-31.4-96.7-54.4-92.4C804.3,61.4,783.2,136.2,813.2,168.8z"/>
					<path id="XMLID_178_" class="st6" d="M835.5,78.8c8.2,0.1,15.3,25.4,15.9,46c0.3,10.3-0.7,35-7.8,36.3
						c-8.8,1.5-28.9-33.5-20.6-63.3C823.2,97,828.4,78.6,835.5,78.8z"/>
					<path id="XMLID_179_" class="st6" d="M1241,368.5c-57.3,35.4-84.3,34.1-98.4,24.8c-10.1-6.6-14.5-18.1-41.4-39.4
						c-11.3-9-20.3-14.7-31.1-13.5c-10.6,1.2-17.8,8.2-19.7,10.4c-6.9,7.3-8.4,15.9-10.4,29.1c-2.4,15.3-0.1,19.5-3.1,34.2
						c-1.6,7.6-3.7,13.7-5.1,17.6"/>
					<path id="XMLID_52_" class="st24" d="M765.1,56"/>
					<path id="XMLID_53_" class="st6" d="M1068.5,404.5c-10.7-15.6-12-30.7-5.9-36.3c7.3-6.5,23.7,2.1,25.4,2.9
						c18.2,9.7,23.4,30,24.5,35.3"/>
					<path id="XMLID_56_" class="st6" d="M805.1,252.9c-10.6,1.8-21.7,12-19.5,23.5c1.5,7.6,8.7,14.8,15.7,14.7
						c13.4-0.1,24.5-26.7,17.6-35.3C815.1,251.1,806.8,252.6,805.1,252.9z"/>
					<path id="XMLID_137_" class="st6" d="M873.4,339.3c5.7-18.7,14.3-46.3,39.7-57.3c3.5-1.5,21.6-9.4,40.8-0.9
						c20,8.8,26.2,28.8,27.5,33.3c8.4,29.8-14.4,53.5-15.7,54.8c-4.6,4.7-8.5,6.8-28.4,15.7c-38.6,17.2-58,25.7-63.9,22
						C856.1,396,871.5,345.7,873.4,339.3z"/>
					<path id="XMLID_144_" class="st6" d="M1156.7,476.2"/>
					<path id="XMLID_145_" class="st25" d="M660.4,155.2c0.7,6.3,4.3,33.6,25.6,45.1c6.3,3.4,19.8,8.5,25.6,2.9
						c7.5-7.2-5.6-24.7-13.7-58.9c-9.7-40.3-2.5-61.3-8.8-62.7C680.1,79.4,655.5,117,660.4,155.2z"/>
					<path id="XMLID_6_" class="st6" d="M1186.3,411.2c-30.3-16.3-44.5-39.8-39.7-50c4.8-10,31.9-13.4,63.2,0"/>
					<path id="XMLID_8_" class="st6" d="M1057,318.7c-0.1-5.9-13.2-14-20.6-8.8c-6,4.3-6,15.4-1.5,19.1
						C1041.2,334,1057.2,325.3,1057,318.7z"/>
					<path id="XMLID_18_" class="st26" d="M990.9,185c-7.3,3.8-10.9,5.7-11.8,8.8c-3.1,10.7,18.8,27.2,38.2,34.5
						c11.8,4.6,25.6,9.5,35.7,2.4c12.5-8.8,12-31.6,4-44.2c-1.3-2.1-4.7-7.2-11.2-10.1c-3.1-1.5-7.1-3.2-16.7-1.6
						C1010.5,177.9,1001.8,179.3,990.9,185z"/>
					<path id="XMLID_21_" class="st6" d="M1023.8,195c-8.8,0.9-16.3,7.9-13.2,13.2c2.5,4.3,11.2,6.6,18.1,5
						c7.8-1.8,12.9-8.4,9.7-13.2C1035.9,196.2,1029.3,194.4,1023.8,195z"/>
					<path id="XMLID_29_" class="st6" d="M787.7,90.5c-2.9,5.1-25.4,46.7-5.9,87.1c3.2,6.6,13.2,27.5,35.3,35.3
						c32.3,11.5,68-13.2,85.2-36.3c19-25.4,19.1-53.6,18.7-64.6"/>
				</g>
			</g>
		</g>
	</g>
</g>
<circle id="XMLID_49_" class="st3" cx="640.5" cy="192.8" r="13.2"/>
<path id="XMLID_3_" class="st1" d="M599.1,45.3V-31c0-29.2-23.7-52.9-52.9-52.9l0,0c-29.2,0-52.9,23.7-52.9,52.9v76.1
	c0,48.6-39.5,88.1-88.1,88.1l0,0v223.3c0,19.5,15.7,35.3,35.3,35.3H652c19.5,0,35.3-15.7,35.3-35.3V133.3l0,0
	C638.5,133.4,599.1,93.9,599.1,45.3z"/>
<polygon id="XMLID_17_" class="st1" points="1159,392 654.3,392 676.4,371.4 1178.1,371.4 "/>
<path id="XMLID_42_" class="st1" d="M1173.5,133.4v198.9l0,0v24.2c0,8.1-6.6,14.7-14.7,14.7h-24.2l0,0h-41v20.6h65.4
	c19.5,0,35.3-15.7,35.3-35.3V133.3h-20.7V133.4z"/>
<path id="XMLID_5_" class="st27" d="M578.5,45.3V-31c0-29.2-23.7-52.9-52.9-52.9l0,0c-29.2,0-52.9,23.7-52.9,52.9v76.1
	c0,48.6-39.5,88.1-88.1,88.1l0,0v223.3c0,19.5,15.7,35.3,35.3,35.3h211.6c19.5,0,35.3-15.7,35.3-35.3V133.3l0,0
	C617.9,133.4,578.5,93.9,578.5,45.3z"/>
<path id="XMLID_69_" class="st28" d="M387.7,371.4c5.6,12.2,17.8,20.6,32,20.6h211.6c14.3,0,26.4-8.4,32-20.6H387.7z"/>
<g>
	<g>
		<g>
			<g>
				<defs>
					<path id="SVGID_5_" d="M578.5,45.3V-31c0-29.2-23.7-52.9-52.9-52.9l0,0c-29.2,0-52.9,23.7-52.9,52.9v76.1
						c0,48.6-39.5,88.1-88.1,88.1l0,0v223.3c0,19.5,15.7,35.3,35.3,35.3h211.6c19.5,0,35.3-15.7,35.3-35.3V133.3l0,0
						C617.9,133.4,578.5,93.9,578.5,45.3z"/>
				</defs>
				<clipPath id="SVGID_6_">
					<use xlink:href="#SVGID_5_"  style="overflow:visible;"/>
				</clipPath>
				<g id="XMLID_117_" class="st29">
					<path id="XMLID_104_" class="st30" d="M438.7,435.8c-26.9-37.6-9.3-108.7,34.2-131.2c20.3-10.4,40-7.2,45.7-6.3
						c54.7,9.7,101.7,81,83.3,123.4C581,470,473.9,484.9,438.7,435.8z"/>
					<path id="XMLID_106_" class="st30" d="M385.8,394.6c-11.8-32.9,15.7-82.4,52.4-105.8c68.6-43.8,144.3,19.4,196.9-23.5
						c43.9-36,27.3-109.9,36.7-110.2c14.3-0.4,85.4,169.1,0,258.6C588.5,501,408.3,457.7,385.8,394.6z"/>
					<path id="XMLID_110_" class="st30" d="M476.4,403.5c-13.5-14.7-20.6-40.3-8.4-58.8c9.1-13.8,25.3-16.7,30.4-17.6
						c23.4-4.4,60.8,4.6,67.6,33.3c5.7,24.2-13.2,51-38.2,57.7C509.6,423.1,489.2,417.4,476.4,403.5z"/>
					<path id="XMLID_111_" class="st31" d="M625.8,357.9c7.8-3.5,8.7-28.6-3.7-37.9c-4.3-3.2-12.2-6-17.5-2.4
						c-5.7,3.8-5,12.9-4.8,14.4C601.2,347.2,618.5,361.3,625.8,357.9z"/>
					<path id="XMLID_112_" class="st30" d="M379.9,213.5c10.7-3.8,25.9,3.2,31.3,13.7c13.1,25.1-29.5,71.7-43,66.6
						C354.3,288.6,355.4,222.3,379.9,213.5z"/>
					<path id="XMLID_113_" class="st30" d="M373.6,172.8c10.3,9,26.4,20.9,48.5,29.8c28.2,11.5,53.3,13.1,68.6,12.8
						c22.9-5.7,35.6-15.7,43-25c38.3-46.9,8.2-152.4-79.3-260"/>
					<path id="XMLID_115_" class="st30" d="M390.6,129.2c11.8,28.9,49.7,52.7,77,42.2c19.1-7.3,26.4-28.8,28.8-35.6
						c16.2-47-11.9-113-43.5-115.8C420,17.2,371.4,82,390.6,129.2z"/>
					<path id="XMLID_116_" class="st30" d="M661.5-6.4c-8.7-29.4-33.9-69.5-57.2-66C577.7-68.3,569.9-8,567.5-0.6
						c-17,54.8,10.7,124.4,38.2,127.8c20.4,2.5,39.7-33.2,45.5-44.1C656,74.5,674.6,37.5,661.5-6.4z"/>
					<path id="XMLID_132_" class="st30" d="M586.8,159c-4.4,2.4-10.4,6.6-36.9,59.4c-12.8,25.4-14.1,29.8-11.8,33.8
						c7.1,12,43.5,9.4,68.5-7.2c29.8-20,49.7-63.3,35.3-81.5C631.4,150,604.2,149.6,586.8,159z"/>
					<path id="XMLID_136_" class="st30" d="M602.2,181c-16.3,11.5-31.3,33.5-25.9,40.3c6.2,7.6,40.7-1.6,47.7-22.3
						c2.8-8.4,1.8-20.7-4.4-23.8C614.4,172.7,607.2,177.5,602.2,181z"/>
					<path id="XMLID_139_" class="st30" d="M504.3,362.3c-16,8.5-11,53.8,1.9,57.7c11.3,3.5,39.5-21.7,31.3-42.2
						C532.6,365.1,514,357.2,504.3,362.3z"/>
					<path id="XMLID_140_" class="st30" d="M427.9,244.8c-0.7,4.8,13.1,11.6,24.5,12.8c4,0.4,10.9,1,13.7-2.9
						c2.4-3.2,1.3-8.5-1-11.8C457.5,232.3,429,238.2,427.9,244.8z"/>
					<path id="XMLID_141_" class="st30" d="M409.3,106.7c1.5,23.5,27.3,46.3,40.7,41.1c12-4.7,18.1-33.6,5.4-51
						c-8.8-12-27.8-20-38.2-12.8C408.3,90.2,409.1,104.6,409.3,106.7z"/>
					<path id="XMLID_114_" class="st30" d="M517.6-47.6c-5.4,3.7-4.8,20.4,5.9,29.4c12,10,30.3,4.8,32.3-1.5
						C559-29.5,526.4-53.6,517.6-47.6z"/>
					<path id="XMLID_50_" class="st31" d="M733.5,277.1c-20.9-7.5-59.2-11.9-77.9,11.8c-21,26.6-0.3,67.3,2.9,73.5
						c2.4,4.4,21.7,39.5,63.2,45.5c24.5,3.5,60.8-2.6,73.5-26.4C812.9,348.1,777.5,293,733.5,277.1z"/>
				</g>
			</g>
		</g>
	</g>
</g>
<circle id="XMLID_57_" class="st1" cx="640.5" cy="262.7" r="13.2"/>
<circle id="XMLID_105_" class="st1" cx="640.5" cy="192.8" r="13.2"/>
<circle id="XMLID_60_" class="st1" cx="640.5" cy="332.5" r="13.2"/>
<circle id="XMLID_64_" class="st1" cx="400.4" cy="177.8" r="13.2"/>
<circle id="XMLID_63_" class="st1" cx="400.4" cy="247.8" r="13.2"/>
<circle id="XMLID_61_" class="st1" cx="400.4" cy="317.5" r="13.2"/>
<circle id="XMLID_38_" class="st1" cx="516.7" cy="-44.9" r="17.6"/>
</svg>
