<?xml version="1.0" encoding="utf-8"?>
<!-- Generator: Adobe Illustrator 19.0.0, SVG Export Plug-In . SVG Version: 6.00 Build 0)  -->
<svg version="1.1" id="Layer_1" xmlns="http://www.w3.org/2000/svg" xmlns:xlink="http://www.w3.org/1999/xlink" x="0px" y="0px"
	 viewBox="300 -400 1000 1000" style="enable-background:new 300 -400 1000 1000;" xml:space="preserve">
<style type="text/css">
	.st0{fill:#36303E;}
	.st1{fill:#403A46;}
	.st2{opacity:0.75;fill:#37333D;enable-background:new    ;}
	.st3{fill:none;stroke:#36303E;stroke-width:4;stroke-linecap:round;stroke-linejoin:round;stroke-miterlimit:10;}
	.st4{opacity:0.13;fill:#EDEDED;enable-background:new    ;}
	.st5{fill:none;stroke:#372F3C;stroke-width:4;stroke-linecap:round;stroke-linejoin:round;stroke-miterlimit:10;}
	.st6{fill:#FCAF43;}
	.st7{fill:#FA932A;}
	.st8{fill:#3BA2DC;}
	.st9{opacity:0.63;fill:#36303E;enable-background:new    ;}
	.st10{fill:#385A78;}
	.st11{fill:none;stroke:#385A78;stroke-width:6;stroke-linecap:round;stroke-linejoin:round;stroke-miterlimit:10;}
	.st12{opacity:0.76;fill:#3BA2DC;enable-background:new    ;}
	.st13{opacity:0.35;fill:#FFFFFF;enable-background:new    ;}
	.st14{opacity:0.35;fill:#FDE3BE;enable-background:new    ;}
	.st15{opacity:0.14;fill:#FDE3BE;enable-background:new    ;}
	.st16{opacity:8.000000e-002;fill:#FFFFFF;enable-background:new    ;}
	.st17{fill:#67646D;}
	.st18{opacity:0.74;fill:#36303E;enable-background:new    ;}
	.st19{opacity:0.4;fill:#FDE3BE;enable-background:new    ;}
	.st20{fill:none;stroke:#36303E;stroke-width:6;stroke-linecap:round;stroke-linejoin:round;stroke-miterlimit:10;}
	.st21{fill:#9B989F;}
	.st22{fill:#8F8D91;}
	.st23{opacity:0.75;fill:#403A46;enable-background:new    ;}
	.st24{fill:#C71F2C;}
	.st25{opacity:0.27;fill:#FDE3BE;enable-background:new    ;}
	.st26{fill:#AD1E2F;}
	.st27{fill:none;stroke:#FA932A;stroke-width:5;stroke-linecap:round;stroke-linejoin:round;stroke-miterlimit:10;}
	.st28{fill:#FFB808;}
	.st29{fill:#47A942;}
	.st30{fill:#81C347;}
	.st31{fill:#5CB342;}
	.st32{fill:#CADB2A;}
	.st33{fill:#26863F;stroke:#26863F;stroke-width:5;stroke-miterlimit:10;}
	.st34{fill:#26863F;}
	.st35{fill:#F78F1E;}
	.st36{fill:#FDB813;}
	.st37{fill:#FEF200;}
	.st38{opacity:0.28;fill:#26863F;enable-background:new    ;}
	.st39{fill:#4F4F59;}
</style>
<path id="XMLID_2_" class="st0" d="M1250,452.7H362.7c-10.5,0-18.8-8.5-18.8-18.8l0,0c0-10.5,8.5-18.8,18.8-18.8H1250
	c10.5,0,18.8,8.5,18.8,18.8l0,0C1269,444.2,1260.5,452.7,1250,452.7z"/>
<rect id="XMLID_53_" x="893" y="326.7" class="st1" width="142" height="55.3"/>
<rect id="XMLID_1_" x="893" y="331.9" class="st2" width="142" height="28.3"/>
<rect id="XMLID_58_" x="893" y="326.7" class="st3" width="142" height="55.3"/>
<path id="XMLID_28_" class="st1" d="M1173-143.8H829.7l0,0c0-29.5,23.8-53.3,53.3-53.3h236.7C1149.2-197.1,1173-173.3,1173-143.8
	L1173-143.8z"/>
<path id="XMLID_141_" class="st4" d="M866.7-170.5H1136c12.5,0,16.3-17.3,4.8-22.3c-6.5-2.8-13.7-4.3-21.2-4.3H883
	c-7.5,0-14.7,1.5-21.2,4.3C850.3-187.8,854.2-170.5,866.7-170.5z"/>
<path id="XMLID_55_" class="st3" d="M1173-143.8H829.7l0,0c0-29.5,23.8-53.3,53.3-53.3h236.7C1149.2-197.1,1173-173.3,1173-143.8
	L1173-143.8z"/>
<rect id="XMLID_3_" x="733.8" y="244.2" class="st1" width="62.2" height="55.8"/>
<rect id="XMLID_56_" x="733.8" y="244.2" class="st5" width="62.2" height="55.8"/>
<path id="XMLID_19_" class="st6" d="M1122.7,337.9H826.8c-30,0-53.3-26-49.7-56l52.5-425.7H1173v432
	C1173,315.7,1150.3,337.9,1122.7,337.9z"/>
<path id="XMLID_106_" class="st7" d="M789,302h-12.2v-14.2h26.3l0,0C803.2,295.7,796.8,302,789,302z"/>
<path id="XMLID_50_" class="st7" d="M1152.8-96.1v376.8c0,22.3-18.2,40.5-40.5,40.5H822.2c-8.2,0-14.8,6.8-14.5,15l0,0
	c4,1,14.8,1.7,19.2,1.7h295.8c27.7,0,50.3-22.7,50.3-50.3v-403.8C1161.8-116.3,1152.8-107.3,1152.8-96.1z"/>
<path id="XMLID_162_" class="st7" d="M1158.5,214.4H1148c-6.2,0-11,5-11,11V296c0,8,6.5,14.3,14.3,14.3h7.2V214.4z"/>
<path id="XMLID_31_" class="st8" d="M1058.3-122.1H827l-42.7,346.7h274c44.2,0,79.7-35.5,79.7-79.7V-43
	C1138-87.3,1102.5-122.1,1058.3-122.1z"/>
<path id="XMLID_70_" class="st9" d="M1052.2,226.9H964v-33.3c0-51.5,41.8-93.3,93.3-93.3h83.8v37.7
	C1141.2,187,1101.3,226.9,1052.2,226.9z"/>
<path id="XMLID_119_" class="st9" d="M1141.2,100.2h-59.3v-64c0-16.7,13.5-30.2,30.2-30.2h29.2V100.2z"/>
<path id="XMLID_163_" class="st9" d="M1141.2,6.2H1123v-48c0-6.2,5-11,11-11h7v59H1141.2z"/>
<polygon id="XMLID_164_" class="st10" points="797.3,119.2 784.3,224.5 895.3,224.5 "/>
<line id="XMLID_116_" class="st11" x1="918" y1="106" x2="878.8" y2="148.4"/>
<line id="XMLID_112_" class="st11" x1="946.5" y1="135.7" x2="889.5" y2="76.4"/>
<polygon id="XMLID_71_" class="st10" points="856.7,187.9 837.8,167.2 870.3,134.7 890.2,154.5 "/>
<path id="XMLID_81_" class="st12" d="M1058.3-122.1H827l-42.7,346.7h274c44.2,0,79.7-35.5,79.7-79.7V-43
	C1138-87.3,1102.5-122.1,1058.3-122.1z"/>
<path id="XMLID_183_" class="st13" d="M1005.2-122.1H889.3L1137,157.2c0.7-4,1-8.2,1-12.3V27.7L1005.2-122.1z"/>
<path id="XMLID_179_" class="st13" d="M853.7-122.1h-26.2l287,323.5c4.7-4.7,8.8-10,12.3-15.7L853.7-122.1z"/>
<path id="XMLID_51_" class="st14" d="M829.7-143.8l-52.5,425.7c-0.2,1.7-0.3,3.3-0.3,5.2l0,0c11.2,0,20.5-8.3,21.8-19.3l49-397.7
	h301.8c7.7,0,13.8-6.2,13.8-13.8H829.7z"/>
<path id="XMLID_232_" class="st15" d="M813.3,295"/>
<path id="XMLID_118_" class="st16" d="M1058.3-122.1H827l-11.3,92.5h14.2h49H1061c36.8,0,67.7,24.3,77,58.2V-43
	C1138-87.3,1102.5-122.1,1058.3-122.1z"/>
<path id="XMLID_32_" class="st3" d="M1058.3-122.1H827l-42.7,346.7h274c44.2,0,79.7-35.5,79.7-79.7V-43
	C1138-87.3,1102.5-122.1,1058.3-122.1z"/>
<path id="XMLID_29_" class="st3" d="M1122.7,337.9H826.8c-30,0-53.3-26-49.7-56l52.5-425.7H1173v432
	C1173,315.7,1150.3,337.9,1122.7,337.9z"/>
<path id="XMLID_15_" class="st17" d="M715.5-73.1v371.7H343.8l0,0c0,15.7,12.7,28.3,28.3,28.3h345l0,0h26.7l0,0v-26.7V-73.1H715.5z"
	/>
<path id="XMLID_7_" class="st4" d="M710.2,310.4h-350c-2.8,0-5.2-2.3-5.2-5.2l0,0c0-2.8,2.3-5.2,5.2-5.2h350.2
	c2.8,0,5.2,2.3,5.2,5.2l0,0C715.5,308,713.2,310.4,710.2,310.4z"/>
<path id="XMLID_5_" class="st4" d="M721.7,302L721.7,302c-3.5,0-6.3-2.8-6.3-6.3v-352c0-3.5,2.8-6.3,6.3-6.3l0,0
	c3.5,0,6.3,2.8,6.3,6.3v352C728,299.2,725.2,302,721.7,302z"/>
<path id="XMLID_12_" class="st5" d="M715.5-63.3v361.7H343.8l0,0c0,15.7,12.7,28.3,28.3,28.3h345l0,0h26.7l0,0V300V-63.3
	c0-5.5-4.5-10-10-10h-8.5C719.8-73.1,715.5-68.8,715.5-63.3z"/>
<path id="XMLID_79_" class="st1" d="M855.5-118.8h-21.8c2-10.5,8.2-19.5,16.8-25h-20.8c-10.5,6.8-17.3,18.7-17.3,32.2
	c0,0.7,0,1.3,0,2c0,0.3,0,0.7,0,1V-57c0,5.5,4.5,10,10,10h33.3c5.5,0,10-4.5,10-10v-51.7C865.5-114.3,861-118.8,855.5-118.8z"/>
<path id="XMLID_154_" class="st18" d="M855-102.8v41.5c0,3.5-2.8,6.2-6.2,6.2h-36.3c1,4.5,5,8,9.8,8h33.3c5.5,0,10-4.5,10-10v-51.7
	c0-0.7-0.2-1.5-0.2-2.2h-2.2C858.7-111,855-107.3,855-102.8z"/>
<path id="XMLID_52_" class="st4" d="M819.3-56.1h-5.5v-60.7c0-3,2.5-5.5,5.5-5.5l0,0c3,0,5.5,2.5,5.5,5.5v55.2
	C824.7-58.6,822.3-56.1,819.3-56.1z"/>
<path id="XMLID_83_" class="st3" d="M855.5-118.8h-21.8c2-10.5,8.2-19.5,16.8-25h-20.8c-10.5,6.8-17.3,18.7-17.3,32.2
	c0,0.7,0,1.3,0,2c0,0.3,0,0.7,0,1V-57c0,5.5,4.5,10,10,10h33.3c5.5,0,10-4.5,10-10v-51.7C865.5-114.3,861-118.8,855.5-118.8z"/>
<g id="XMLID_21_">
	<path id="XMLID_158_" class="st1" d="M952.7,365.9c0,4-3.7,7.7-4.3,11.5c-0.7,4,1.5,8.7,0.2,12.3c-1.3,3.8-6,6-8,9.3
		c-2,3.5-1.5,8.7-4.2,11.7c-2.5,3-7.7,3.5-10.8,6c-3,2.5-4.3,7.5-7.8,9.5c-3.5,2-8.5,0.7-12.2,2s-6.7,5.7-10.7,6.3
		c-3.8,0.7-8.2-2.3-12.2-2.3c-4,0-8.3,3-12.2,2.3c-4-0.7-7-5-10.7-6.3c-3.8-1.3-8.8,0-12.2-2c-3.5-2-4.8-7-7.8-9.5
		c-3-2.5-8.2-3-10.8-6c-2.5-3-2.2-8.2-4.2-11.7c-2-3.5-6.7-5.7-8-9.3c-1.3-3.7,0.8-8.3,0.2-12.3c-0.7-3.8-4.3-7.5-4.3-11.5
		s3.7-7.7,4.3-11.5c0.7-4-1.5-8.7-0.2-12.3c1.3-3.8,6-6,8-9.3c2-3.5,1.5-8.7,4.2-11.7c2.5-3,7.7-3.5,10.8-6c3-2.5,4.3-7.5,7.8-9.5
		c3.5-2,8.5-0.7,12.2-2c3.7-1.3,6.7-5.7,10.7-6.3c3.8-0.7,8.2,2.3,12.2,2.3c4,0,8.3-3,12.2-2.3c4,0.7,7,5,10.7,6.3
		c3.8,1.3,8.8,0,12.2,2c3.5,2,4.8,7,7.8,9.5c3,2.5,8.2,3,10.8,6c2.5,3,2.2,8.2,4.2,11.7c2,3.5,6.7,5.7,8,9.3
		c1.3,3.7-0.8,8.3-0.2,12.3C949,358.2,952.7,361.9,952.7,365.9z"/>
</g>
<path id="XMLID_75_" class="st19" d="M990.8-236.8L990.8-236.8c-4.5,0-8.2-3.7-8.2-8.2v-15.8c0-4.5,3.7-8.2,8.2-8.2l0,0
	c4.5,0,8.2,3.7,8.2,8.2v15.8C999-240.5,995.3-236.8,990.8-236.8z"/>
<g id="XMLID_57_">
	<path id="XMLID_68_" class="st20" d="M950.3,383.4c-1,4-5.5,6.5-7.2,10.2c-1.7,3.7-0.7,8.8-3,12c-2.3,3.3-7.3,4.3-10.2,7
		c-2.8,2.8-3.7,8-6.8,10.3c-3.2,2.3-8.3,1.5-12,3.2c-3.5,1.7-6.2,6.2-10,7.3c-3.8,1-8.3-1.5-12.3-1.2c-4,0.3-7.8,3.7-11.8,3.3
		c-3.8-0.3-7.3-4.2-11.2-5.3s-8.8,0.8-12.3-0.8c-3.7-1.7-5.5-6.5-8.7-8.8c-3.3-2.3-8.5-2.3-11.3-5c-2.8-2.8-2.8-8-5.2-11.2
		c-2.3-3.2-7.2-5-8.8-8.5c-1.7-3.5,0-8.5-1-12.3c-1-3.8-5-7.2-5.5-11.2c-0.3-4,2.8-8,3.2-12c0.3-3.8-2.3-8.3-1.3-12.3
		s5.5-6.5,7.2-10.2c1.7-3.7,0.7-8.8,3-12c2.3-3.3,7.3-4.3,10.2-7c2.8-2.8,3.7-8,6.8-10.3c3.2-2.3,8.3-1.5,12-3.2
		c3.5-1.7,6.2-6.2,10-7.3c3.8-1,8.3,1.5,12.3,1.2c4-0.3,7.8-3.7,11.8-3.3c3.8,0.3,7.3,4.2,11.2,5.3s8.8-0.8,12.3,0.8
		c3.7,1.7,5.5,6.5,8.7,8.8c3.3,2.3,8.5,2.3,11.3,5c2.8,2.8,2.8,8,5.2,11.2c2.3,3.2,7.2,5,8.8,8.5c1.7,3.5,0,8.5,1,12.3
		c1,3.8,5,7.2,5.5,11.2c0.3,4-2.8,8-3.2,12C948.8,375,951.3,379.5,950.3,383.4z"/>
</g>
<circle id="XMLID_27_" class="st21" cx="882.7" cy="365.9" r="41.7"/>
<path id="XMLID_150_" class="st22" d="M882.7,337.9c20.7,0,37.8,15.2,41.2,34.8c0.3-2.2,0.5-4.5,0.5-6.8c0-23-18.7-41.7-41.7-41.7
	S841,342.9,841,365.9c0,2.3,0.2,4.7,0.5,6.8C844.7,352.9,861.8,337.9,882.7,337.9z"/>
<circle id="XMLID_59_" class="st6" cx="882.7" cy="365.9" r="17.7"/>
<circle id="XMLID_20_" class="st3" cx="882.7" cy="365.9" r="17.7"/>
<circle id="XMLID_36_" class="st3" cx="882.7" cy="365.9" r="41.7"/>
<g id="XMLID_127_">
	<path id="XMLID_139_" class="st1" d="M1132,365.9c0,4-3.7,7.7-4.3,11.5c-0.7,4,1.5,8.7,0.2,12.3c-1.3,3.8-6,6-8,9.3
		c-2,3.5-1.5,8.7-4.2,11.7c-2.5,3-7.7,3.5-10.8,6c-3,2.5-4.3,7.5-7.8,9.5c-3.5,2-8.5,0.7-12.2,2c-3.7,1.3-6.7,5.7-10.7,6.3
		c-3.8,0.7-8.2-2.3-12.2-2.3s-8.3,3-12.2,2.3c-4-0.7-7-5-10.7-6.3c-3.8-1.3-8.8,0-12.2-2c-3.5-2-4.8-7-7.8-9.5c-3-2.5-8.2-3-10.8-6
		c-2.5-3-2.2-8.2-4.2-11.7c-2-3.5-6.7-5.7-8-9.3c-1.3-3.7,0.8-8.3,0.2-12.3c-0.7-3.8-4.3-7.5-4.3-11.5s3.7-7.7,4.3-11.5
		c0.7-4-1.5-8.7-0.2-12.3c1.3-3.8,6-6,8-9.3c2-3.5,1.5-8.7,4.2-11.7c2.5-3,7.7-3.5,10.8-6c3-2.5,4.3-7.5,7.8-9.5
		c3.5-2,8.5-0.7,12.2-2s6.7-5.7,10.7-6.3c3.8-0.7,8.2,2.3,12.2,2.3c4,0,8.3-3,12.2-2.3c4,0.7,7,5,10.7,6.3c3.8,1.3,8.8,0,12.2,2
		c3.5,2,4.8,7,7.8,9.5c3,2.5,8.2,3,10.8,6c2.5,3,2.2,8.2,4.2,11.7c2,3.5,6.7,5.7,8,9.3c1.3,3.7-0.8,8.3-0.2,12.3
		C1128.3,358.2,1132,361.9,1132,365.9z"/>
</g>
<g id="XMLID_123_">
	<path id="XMLID_125_" class="st20" d="M1129.7,383.4c-1,4-5.5,6.5-7.2,10.2c-1.7,3.7-0.7,8.8-3,12c-2.3,3.3-7.3,4.3-10.2,7
		c-2.8,2.8-3.7,8-6.8,10.3c-3.2,2.3-8.3,1.5-12,3.2c-3.5,1.7-6.2,6.2-10,7.3c-3.8,1-8.3-1.5-12.3-1.2c-4,0.3-7.8,3.7-11.8,3.3
		c-3.8-0.3-7.3-4.2-11.2-5.3c-4-1-8.8,0.8-12.3-0.8c-3.7-1.7-5.5-6.5-8.7-8.8c-3.3-2.3-8.5-2.3-11.3-5c-2.8-2.8-2.8-8-5.2-11.2
		c-2.3-3.2-7.2-5-8.8-8.5c-1.7-3.5,0-8.5-1-12.3c-1-3.8-5-7.2-5.5-11.2c-0.3-4,2.8-8,3.2-12c0.3-3.8-2.3-8.3-1.3-12.3
		c1-4,5.5-6.5,7.2-10.2c1.7-3.7,0.7-8.8,3-12c2.3-3.3,7.3-4.3,10.2-7c2.8-2.8,3.7-8,6.8-10.3c3.2-2.3,8.3-1.5,12-3.2
		c3.5-1.7,6.2-6.2,10-7.3c3.8-1,8.3,1.5,12.3,1.2c4-0.3,7.8-3.7,11.8-3.3c3.8,0.3,7.3,4.2,11.2,5.3c4,1,8.8-0.8,12.3,0.8
		c3.7,1.7,5.5,6.5,8.7,8.8c3.3,2.3,8.5,2.3,11.3,5c2.8,2.8,2.8,8,5.2,11.2c2.3,3.2,7.2,5,8.8,8.5c1.7,3.5,0,8.5,1,12.3
		c1,3.8,5,7.2,5.5,11.2c0.3,4-2.8,8-3.2,12C1128.2,375,1130.8,379.5,1129.7,383.4z"/>
</g>
<circle id="XMLID_108_" class="st21" cx="1062" cy="365.9" r="41.7"/>
<path id="XMLID_92_" class="st22" d="M1062,337.9c20.7,0,37.8,15.2,41.2,34.8c0.3-2.2,0.5-4.5,0.5-6.8c0-23-18.7-41.7-41.7-41.7
	c-23,0-41.7,18.7-41.7,41.7c0,2.3,0.2,4.7,0.5,6.8C1024.2,352.9,1041.3,337.9,1062,337.9z"/>
<circle id="XMLID_88_" class="st6" cx="1062" cy="365.9" r="17.7"/>
<circle id="XMLID_64_" class="st3" cx="1062" cy="365.9" r="17.7"/>
<circle id="XMLID_54_" class="st3" cx="1062" cy="365.9" r="41.7"/>
<rect id="XMLID_11_" x="984.8" y="-225.3" class="st17" width="50.7" height="28"/>
<rect id="XMLID_140_" x="984.8" y="-207" class="st23" width="50.7" height="9.7"/>
<rect id="XMLID_30_" x="984.8" y="-225.3" class="st3" width="50.7" height="28"/>
<path id="XMLID_63_" class="st6" d="M1035.5-225.3h-50.7v-32.8c0-8.5,7-15.5,15.5-15.5h19.7c8.5,0,15.5,7,15.5,15.5L1035.5-225.3z"
	/>
<path id="XMLID_73_" class="st19" d="M994.8-235.3h-8.3v-23.8c0-4.5,3.7-8.3,8.3-8.3l0,0c4.5,0,8.3,3.7,8.3,8.3v15.7
	C1003-239,999.3-235.3,994.8-235.3z"/>
<path id="XMLID_77_" class="st7" d="M1024-259.3v25.3h-39.2v8.7h50.7v-34.2c0-2.8-2-5.2-4.3-5.2h-2.5
	C1026.2-264.6,1024-262.1,1024-259.3z"/>
<path id="XMLID_69_" class="st3" d="M1035.5-225.3h-50.7v-32.8c0-8.5,7-15.5,15.5-15.5h19.7c8.5,0,15.5,7,15.5,15.5L1035.5-225.3z"
	/>
<path id="XMLID_142_" class="st24" d="M1173.2,295.4H1152v-66h21.2c6.2,0,11,5,11,11v44C1184.2,290.5,1179.2,295.4,1173.2,295.4z"/>
<path id="XMLID_160_" class="st25" d="M1156.7,285.7h-2.2v-47.8c0-2,1.7-3.7,3.7-3.7l0,0c2.3,0,4.3,1.8,4.3,4.3V280
	C1162.3,283.2,1159.8,285.7,1156.7,285.7z"/>
<path id="XMLID_173_" class="st26" d="M1174.5,229.4c0,0.3,0.2,0.5,0.2,0.8v53.2c0,3-2.3,5.3-5.3,5.3H1152v6.7h21.2
	c6.2,0,11-5,11-11v-44C1184.2,234.7,1179.8,230,1174.5,229.4z"/>
<path id="XMLID_157_" class="st3" d="M1173.2,295.4H1156c-2.2,0-4-1.8-4-4v-58c0-2.2,1.8-4,4-4h17.2c6.2,0,11,5,11,11v44
	C1184.2,290.5,1179.2,295.4,1173.2,295.4z"/>
<path id="XMLID_103_" class="st0" d="M715.5,298.5H343.8l0,0c0-6.3,5.2-11.5,11.5-11.5h360.2V298.5z"/>
<path id="XMLID_89_" class="st5" d="M715.5,298.5H343.8l0,0c0-6.3,5.2-11.5,11.5-11.5h360.2V298.5z"/>
<line id="XMLID_224_" class="st27" x1="921.3" y1="244.2" x2="1028.5" y2="244.2"/>
<line id="XMLID_226_" class="st27" x1="922.3" y1="262.4" x2="945.8" y2="262.4"/>
<line id="XMLID_227_" class="st27" x1="922.3" y1="278.9" x2="966.7" y2="278.9"/>
<path id="XMLID_228_" class="st24" d="M805.3,287h-26.2c-6.2,0-11.3-5-11.3-11.3v-15c0-6.2,5-11.3,11.3-11.3h26.2V287z"/>
<path id="XMLID_231_" class="st25" d="M770.8,281.9L770.8,281.9v-27.3l0,0c3.5,0,6.5,2.8,6.5,6.5v14.3
	C777.3,279,774.3,281.9,770.8,281.9z"/>
<rect id="XMLID_229_" x="786.5" y="249.5" class="st28" width="18.7" height="37.5"/>
<path id="XMLID_230_" class="st3" d="M796,287L796,287c-5.2,0-9.3-4.2-9.3-9.3V259c0-5.2,4.2-9.3,9.3-9.3l0,0c5.2,0,9.3,4.2,9.3,9.3
	v18.7C805.3,282.7,801.2,287,796,287z"/>
<path id="XMLID_223_" class="st3" d="M796.5,287h-17.3c-6.2,0-11.3-5-11.3-11.3v-15c0-6.2,5-11.3,11.3-11.3h17.3
	c4.8,0,8.8,4,8.8,8.8V278C805.3,283,801.3,287,796.5,287z"/>
<path id="XMLID_136_" class="st29" d="M645,291.9H414.2c-15.5,0-28.2-12.7-28.2-28.2V32.9c0-15.5,12.7-28.2,28.2-28.2H645
	c15.5,0,28.2,12.7,28.2,28.2v230.8C673.2,279.2,660.5,291.9,645,291.9z"/>
<path id="XMLID_266_" class="st30" d="M396.8,243.9V56.5c0-15.5,12.7-28.2,28.2-28.2h209.2c15.5,0,28.2,12.7,28.2,28.2v187.3
	c0,6,4.8,10.8,10.8,10.8l0,0V33c0-15.5-12.7-28.2-28.2-28.2H414.2C398.7,4.9,386,17.5,386,33v221.7l0,0
	C392,254.5,396.8,249.7,396.8,243.9z"/>
<circle id="XMLID_243_" class="st31" cx="529.7" cy="148.4" r="73.7"/>
<path id="XMLID_268_" class="st32" d="M390.7,17.4h277.8c-5-7.7-13.7-12.7-23.5-12.7H414.2C404.3,4.7,395.7,9.9,390.7,17.4z"/>
<path id="XMLID_248_" class="st33" d="M483.2,118.9V11.7c0-5.7,4.7-10.3,10.3-10.3h59.3c5.7,0,10.3,4.7,10.3,10.3v65.7
	c0,3.3-1.7,6.5-4.3,8.5l-59.3,41.5C492.5,132,483.2,127.2,483.2,118.9z"/>
<path id="XMLID_277_" class="st34" d="M645,271.9H414.2c-15.5,0-28.2-12.7-28.2-28.2v20c0,15.5,12.7,28.2,28.2,28.2H645
	c15.5,0,28.2-12.7,28.2-28.2v-20C673.2,259.2,660.5,271.9,645,271.9z"/>
<path id="XMLID_234_" class="st3" d="M645,291.9H414.2c-15.5,0-28.2-12.7-28.2-28.2V32.9c0-15.5,12.7-28.2,28.2-28.2H645
	c15.5,0,28.2,12.7,28.2,28.2v230.8C673.2,279.2,660.5,291.9,645,291.9z"/>
<path id="XMLID_244_" class="st35" d="M479.8,122.5V2.4c0-3.2,2.7-5.8,5.8-5.8H554c3.2,0,5.8,2.7,5.8,5.8v72.5c0,1.8-1,3.7-2.5,4.8
	L489,127.4C485.2,129.9,479.8,127.2,479.8,122.5z"/>
<path id="XMLID_260_" class="st36" d="M554-3.6h-68.3c-3.2,0-5.8,2.7-5.8,5.8v42.2h80V2.2C559.8-1,557.2-3.6,554-3.6z"/>
<path id="XMLID_270_" class="st37" d="M554-3.6h-68.3c-3.2,0-5.8,2.7-5.8,5.8V11h80V2.2C559.8-1,557.2-3.6,554-3.6z"/>
<path id="XMLID_245_" class="st3" d="M479.8,122.5V2.4c0-3.2,2.7-5.8,5.8-5.8H554c3.2,0,5.8,2.7,5.8,5.8v72.5c0,1.8-1,3.7-2.5,4.8
	L489,127.4C485.2,129.9,479.8,127.2,479.8,122.5z"/>
<path id="XMLID_233_" class="st30" d="M416,216L416,216c-2.8,0-5.2-2.3-5.2-5.2v-157c0-2.8,2.3-5.2,5.2-5.2l0,0
	c2.8,0,5.2,2.3,5.2,5.2v157C421.2,213.7,418.8,216,416,216z"/>
<path id="XMLID_9_" class="st30" d="M416,239.4L416,239.4c-2.8,0-5.2-2.3-5.2-5.2v-4.5c0-2.8,2.3-5.2,5.2-5.2l0,0
	c2.8,0,5.2,2.3,5.2,5.2v4.5C421.2,237,418.8,239.4,416,239.4z"/>
<path id="XMLID_72_" class="st38" d="M642.7,247L642.7,247c-2.8,0-5.2-2.3-5.2-5.2V49.7c0-2.8,2.3-5.2,5.2-5.2l0,0
	c2.8,0,5.2,2.3,5.2,5.2v192C647.8,244.7,645.5,247,642.7,247z"/>
<path id="XMLID_4_" class="st39" d="M848-104.3h-15c-1.8,0-3.3-1.5-3.3-3.3l0,0c0-1.8,1.5-3.3,3.3-3.3h15c1.8,0,3.3,1.5,3.3,3.3l0,0
	C851.3-105.8,849.8-104.3,848-104.3z"/>
</svg>
