<?xml version="1.0" encoding="utf-8"?>
<!-- Generator: Adobe Illustrator 19.0.0, SVG Export Plug-In . SVG Version: 6.00 Build 0)  -->
<svg version="1.1" id="Layer_1" xmlns="http://www.w3.org/2000/svg" xmlns:xlink="http://www.w3.org/1999/xlink" x="0px" y="0px"
	 viewBox="300 -400 1000 1000" style="enable-background:new 300 -400 1000 1000;" xml:space="preserve">
<style type="text/css">
	
		.st0{opacity:0.5;fill:#232323;stroke:#232323;stroke-width:8;stroke-linecap:round;stroke-linejoin:round;stroke-miterlimit:10;enable-background:new    ;}
	.st1{fill:#43597A;}
	.st2{opacity:0.7;fill:#6A87AD;enable-background:new    ;}
	.st3{fill:#394E6B;}
	.st4{fill:none;stroke:#202454;stroke-width:8;stroke-linecap:round;stroke-linejoin:round;stroke-miterlimit:10;}
	.st5{fill:#2F3F56;}
	.st6{fill:none;stroke:#283356;stroke-linecap:round;stroke-linejoin:round;stroke-miterlimit:10;}
	.st7{opacity:0.8;}
	.st8{opacity:0.8;fill:#B4C7E7;enable-background:new    ;}
	.st9{fill:none;stroke:#22293F;stroke-width:6;stroke-linecap:round;stroke-linejoin:round;stroke-miterlimit:10;}
	.st10{fill:none;stroke:#202454;stroke-width:5;stroke-linecap:round;stroke-linejoin:round;stroke-miterlimit:10;}
	.st11{fill:none;stroke:#707A99;stroke-width:3;stroke-linecap:round;stroke-linejoin:round;stroke-miterlimit:10;}
	.st12{opacity:0.4;}
	.st13{fill:#232323;stroke:#232323;stroke-width:8.0001;stroke-linecap:round;stroke-linejoin:round;stroke-miterlimit:10.0001;}
	.st14{fill:#232323;stroke:#232323;stroke-width:8;stroke-linecap:round;stroke-linejoin:round;stroke-miterlimit:10;}
	.st15{fill:none;stroke:#232323;stroke-width:8;stroke-linecap:round;stroke-linejoin:round;stroke-miterlimit:10;}
	.st16{opacity:0.5;fill:#6A87AD;enable-background:new    ;}
	.st17{fill:none;stroke:#202454;stroke-width:8.0001;stroke-linecap:round;stroke-linejoin:round;stroke-miterlimit:10.0001;}
	.st18{fill:#6A87AD;}
	.st19{fill:#334665;}
	.st20{opacity:0.4;fill:#43597A;enable-background:new    ;}
	.st21{fill:#81A0C1;}
	.st22{fill:#E2E9F2;}
</style>
<path id="XMLID_276_" class="st0" d="M1142.8,111.5L580,455.2c-17.4,10.6-40.2,5.2-50.8-12.3L335.1,124.9
	c-10.6-17.4-5.2-40.2,12.3-50.8l562.8-343.6c17.4-10.6,40.2-5.2,50.8,12.3l194.1,317.9C1165.7,78.1,1160.2,100.9,1142.8,111.5z"/>
<g>
	<path id="XMLID_74_" class="st1" d="M1146.1,84.9L583.3,428.5c-17.4,10.6-40.2,5.2-50.8-12.3L338.4,98.3
		c-10.6-17.4-5.2-40.2,12.3-50.8L913.6-296c17.4-10.6,40.2-5.2,50.8,12.3l194.1,317.9C1169,51.5,1163.6,74.3,1146.1,84.9z"/>
	<path id="XMLID_148_" class="st2" d="M904.3-290.4l-12.2,7.5c22.5-13.8,52-6.7,65.8,15.9l182.8,299.3c13.8,22.5,6.7,52-15.9,65.8
		l12.2-7.5c22.5-13.8,29.7-43.2,15.9-65.8L970.1-274.6C956.3-297.1,926.9-304.1,904.3-290.4z"/>
	<path id="XMLID_147_" class="st3" d="M542.5,397.4L359.7,98.1c-13.8-22.5-6.7-52,15.9-65.8l-18.4,11.2
		c-22.5,13.8-29.7,43.2-15.9,65.8l182.8,299.3c13.8,22.5,43.2,29.7,65.8,15.9l18.4-11.2C585.8,427.1,556.3,420,542.5,397.4z"/>
	<path id="XMLID_1_" class="st4" d="M1146.1,84.9L583.3,428.5c-17.4,10.6-40.2,5.2-50.8-12.3L338.4,98.3
		c-10.6-17.4-5.2-40.2,12.3-50.8L913.6-296c17.4-10.6,40.2-5.2,50.8,12.3l194.1,317.9C1169,51.5,1163.6,74.3,1146.1,84.9z"/>
	<path id="XMLID_234_" class="st5" d="M1119.5,67.5L678.4,336.8c-10.5,6.4-24.1,3.1-30.4-7.4l-179.6-294
		c-6.4-10.5-3.1-24.1,7.4-30.4l441.1-269.3c10.5-6.4,24.1-3.1,30.4,7.4l179.6,294.2C1133.3,47.6,1130,61.1,1119.5,67.5z"/>
	<g id="XMLID_21_">
		<line id="XMLID_56_" class="st6" x1="533" y1="-30.2" x2="735.7" y2="301.8"/>
		<line id="XMLID_58_" class="st6" x1="598.3" y1="-69.9" x2="801" y2="262"/>
		<line id="XMLID_59_" class="st6" x1="663.6" y1="-109.9" x2="866.4" y2="222.1"/>
		<line id="XMLID_60_" class="st6" x1="728.9" y1="-149.8" x2="931.7" y2="182.2"/>
		<line id="XMLID_62_" class="st6" x1="794.3" y1="-189.6" x2="997" y2="142.4"/>
		<line id="XMLID_63_" class="st6" x1="859.6" y1="-229.5" x2="1062.2" y2="102.5"/>
		<line id="XMLID_64_" class="st6" x1="498.3" y1="84.4" x2="977.4" y2="-208"/>
		<line id="XMLID_66_" class="st6" x1="538.2" y1="149.7" x2="1017.2" y2="-142.6"/>
		<line id="XMLID_67_" class="st6" x1="578.1" y1="215.1" x2="1057.1" y2="-77.3"/>
		<line id="XMLID_68_" class="st6" x1="617.9" y1="280.4" x2="1097" y2="-12"/>
	</g>
	<path id="XMLID_4_" class="st4" d="M1119.5,67.5L678.4,336.8c-10.5,6.4-24.1,3.1-30.4-7.4l-179.6-294c-6.4-10.5-3.1-24.1,7.4-30.4
		l441.1-269.3c10.5-6.4,24.1-3.1,30.4,7.4l179.6,294.2C1133.3,47.6,1130,61.1,1119.5,67.5z"/>
	<g id="XMLID_75_" class="st7">
		<path id="XMLID_78_" class="st1" d="M605,355.5l-30.9,18.8c-3.4,2.1-8,1-10.1-2.5l-12.2-20.1c-2.1-3.4-1-8,2.5-10.1l30.9-18.8
			c3.4-2.1,8-1,10.1,2.5l12.2,20.1C609.5,348.9,608.4,353.4,605,355.5z"/>
		<path id="XMLID_76_" class="st1" d="M571.7,301.1l-30.9,18.8c-3.4,2.1-8,1-10.1-2.5l-12.2-20.1c-2.1-3.4-1-8,2.5-10.1l30.9-18.8
			c3.4-2.1,8-1,10.1,2.5l12.2,20.1C576.4,294.4,575.3,299,571.7,301.1z"/>
	</g>
	<g id="XMLID_7_">
		<path id="XMLID_11_" class="st4" d="M605,355.5l-30.9,18.8c-3.4,2.1-8,1-10.1-2.5l-12.2-20.1c-2.1-3.4-1-8,2.5-10.1l30.9-18.8
			c3.4-2.1,8-1,10.1,2.5l12.2,20.1C609.5,348.9,608.4,353.4,605,355.5z"/>
		<path id="XMLID_13_" class="st4" d="M571.7,301.1l-30.9,18.8c-3.4,2.1-8,1-10.1-2.5l-12.2-20.1c-2.1-3.4-1-8,2.5-10.1l30.9-18.8
			c3.4-2.1,8-1,10.1,2.5l12.2,20.1C576.4,294.4,575.3,299,571.7,301.1z"/>
	</g>
	<g id="XMLID_14_" class="st7">
		<path id="XMLID_16_" class="st1" d="M484.3,157.8l-30.9,18.8c-3.4,2.1-8,1-10.1-2.5l-12.2-20.1c-2.1-3.4-1-8,2.5-10.1l30.9-18.8
			c3.4-2.1,8-1,10.1,2.5l12.2,20.1C488.8,151,487.7,155.6,484.3,157.8z"/>
		<path id="XMLID_15_" class="st1" d="M451,103.4l-30.9,18.8c-3.4,2.1-8,1-10.1-2.5l-12.2-20.1c-2.1-3.4-1-8,2.5-10.1l30.9-18.8
			c3.4-2.1,8-1,10.1,2.5l12.2,20.1C455.7,96.7,454.6,101.3,451,103.4z"/>
	</g>
	<g id="XMLID_193_">
		<path id="XMLID_227_" class="st4" d="M484.3,157.8l-30.9,18.8c-3.4,2.1-8,1-10.1-2.5l-12.2-20.1c-2.1-3.4-1-8,2.5-10.1l30.9-18.8
			c3.4-2.1,8-1,10.1,2.5l12.2,20.1C488.8,151,487.7,155.6,484.3,157.8z"/>
		<path id="XMLID_213_" class="st4" d="M451,103.4l-30.9,18.8c-3.4,2.1-8,1-10.1-2.5l-12.2-20.1c-2.1-3.4-1-8,2.5-10.1l30.9-18.8
			c3.4-2.1,8-1,10.1,2.5l12.2,20.1C455.7,96.7,454.6,101.3,451,103.4z"/>
	</g>
	<ellipse id="XMLID_79_" class="st8" cx="502.6" cy="222.5" rx="38.3" ry="38.3"/>
	<ellipse id="XMLID_8_" class="st9" cx="502.6" cy="222.5" rx="38.3" ry="38.3"/>
	<ellipse id="XMLID_141_" class="st4" cx="502.6" cy="222.5" rx="38.3" ry="38.3"/>
	<path id="XMLID_143_" class="st10" d="M486.2,232.5c-5.5-9-2.6-20.8,6.4-26.2"/>
	<g id="XMLID_25_">
		<g id="XMLID_253_">
			<g id="XMLID_270_">
				<line id="XMLID_272_" class="st11" x1="1018.3" y1="30.4" x2="1023.2" y2="38.6"/>
				<line id="XMLID_271_" class="st11" x1="1024.8" y1="31.9" x2="1016.7" y2="37"/>
			</g>
			<g id="XMLID_267_">
				<line id="XMLID_269_" class="st11" x1="953" y1="70.2" x2="957.9" y2="78.5"/>
				<line id="XMLID_268_" class="st11" x1="959.5" y1="71.8" x2="951.4" y2="76.9"/>
			</g>
			<g id="XMLID_264_">
				<line id="XMLID_266_" class="st11" x1="887.6" y1="110.1" x2="892.6" y2="118.3"/>
				<line id="XMLID_265_" class="st11" x1="894.2" y1="111.8" x2="886" y2="116.7"/>
			</g>
			<g id="XMLID_261_">
				<line id="XMLID_263_" class="st11" x1="822.3" y1="150.1" x2="827.3" y2="158.2"/>
				<line id="XMLID_262_" class="st11" x1="828.9" y1="151.7" x2="820.7" y2="156.6"/>
			</g>
			<g id="XMLID_258_">
				<line id="XMLID_260_" class="st11" x1="757" y1="189.8" x2="761.9" y2="198.1"/>
				<line id="XMLID_259_" class="st11" x1="763.5" y1="191.5" x2="755.4" y2="196.5"/>
			</g>
			<g id="XMLID_255_">
				<line id="XMLID_257_" class="st11" x1="691.7" y1="229.8" x2="696.6" y2="237.9"/>
				<line id="XMLID_256_" class="st11" x1="698.2" y1="231.4" x2="690.1" y2="236.3"/>
			</g>
		</g>
		<g id="XMLID_233_">
			<g id="XMLID_250_">
				<line id="XMLID_252_" class="st11" x1="978.4" y1="-35" x2="983.4" y2="-26.7"/>
				<line id="XMLID_251_" class="st11" x1="984.9" y1="-33.4" x2="976.8" y2="-28.3"/>
			</g>
			<g id="XMLID_247_">
				<line id="XMLID_249_" class="st11" x1="913.1" y1="5" x2="918" y2="13.1"/>
				<line id="XMLID_248_" class="st11" x1="919.6" y1="6.6" x2="911.5" y2="11.5"/>
			</g>
			<g id="XMLID_244_">
				<line id="XMLID_246_" class="st11" x1="847.8" y1="44.9" x2="852.7" y2="53"/>
				<line id="XMLID_245_" class="st11" x1="854.3" y1="46.5" x2="846.2" y2="51.4"/>
			</g>
			<g id="XMLID_241_">
				<line id="XMLID_243_" class="st11" x1="782.5" y1="84.6" x2="787.4" y2="92.9"/>
				<line id="XMLID_242_" class="st11" x1="789" y1="86.3" x2="780.9" y2="91.3"/>
			</g>
			<g id="XMLID_238_">
				<line id="XMLID_240_" class="st11" x1="717.1" y1="124.6" x2="722.1" y2="132.7"/>
				<line id="XMLID_239_" class="st11" x1="723.7" y1="126.2" x2="715.5" y2="131.1"/>
			</g>
			<g id="XMLID_235_">
				<line id="XMLID_237_" class="st11" x1="651.8" y1="164.5" x2="656.8" y2="172.6"/>
				<line id="XMLID_236_" class="st11" x1="658.3" y1="166.1" x2="650.2" y2="171"/>
			</g>
		</g>
		<g id="XMLID_212_">
			<g id="XMLID_230_">
				<line id="XMLID_232_" class="st11" x1="938.4" y1="-100.2" x2="943.5" y2="-92.1"/>
				<line id="XMLID_231_" class="st11" x1="945.1" y1="-98.6" x2="937" y2="-93.6"/>
			</g>
			<g id="XMLID_226_">
				<line id="XMLID_229_" class="st11" x1="873.2" y1="-60.3" x2="878.2" y2="-52.2"/>
				<line id="XMLID_228_" class="st11" x1="879.8" y1="-58.7" x2="871.6" y2="-53.8"/>
			</g>
			<g id="XMLID_223_">
				<line id="XMLID_225_" class="st11" x1="807.9" y1="-20.4" x2="812.8" y2="-12.3"/>
				<line id="XMLID_224_" class="st11" x1="814.4" y1="-18.9" x2="806.3" y2="-13.9"/>
			</g>
			<g id="XMLID_220_">
				<line id="XMLID_222_" class="st11" x1="742.6" y1="19.4" x2="747.5" y2="27.6"/>
				<line id="XMLID_221_" class="st11" x1="749.1" y1="21" x2="741" y2="26"/>
			</g>
			<g id="XMLID_217_">
				<line id="XMLID_219_" class="st11" x1="677.3" y1="59.3" x2="682.2" y2="67.4"/>
				<line id="XMLID_218_" class="st11" x1="683.8" y1="60.9" x2="675.7" y2="65.8"/>
			</g>
			<g id="XMLID_214_">
				<line id="XMLID_216_" class="st11" x1="611.9" y1="99.2" x2="616.9" y2="107.3"/>
				<line id="XMLID_215_" class="st11" x1="618.5" y1="100.8" x2="610.4" y2="105.7"/>
			</g>
		</g>
		<g id="XMLID_192_">
			<g id="XMLID_209_">
				<line id="XMLID_211_" class="st11" x1="898.7" y1="-165.5" x2="903.6" y2="-157.4"/>
				<line id="XMLID_210_" class="st11" x1="905.2" y1="-163.9" x2="897.1" y2="-159"/>
			</g>
			<g id="XMLID_206_">
				<line id="XMLID_208_" class="st11" x1="833.4" y1="-125.6" x2="838.3" y2="-117.5"/>
				<line id="XMLID_207_" class="st11" x1="839.9" y1="-124" x2="831.8" y2="-119.1"/>
			</g>
			<g id="XMLID_203_">
				<line id="XMLID_205_" class="st11" x1="768" y1="-85.8" x2="773" y2="-77.6"/>
				<line id="XMLID_204_" class="st11" x1="774.6" y1="-84.2" x2="766.4" y2="-79.2"/>
			</g>
			<g id="XMLID_200_">
				<line id="XMLID_202_" class="st11" x1="702.7" y1="-45.9" x2="707.7" y2="-37.8"/>
				<line id="XMLID_201_" class="st11" x1="709.3" y1="-44.3" x2="701.1" y2="-39.4"/>
			</g>
			<g id="XMLID_197_">
				<line id="XMLID_199_" class="st11" x1="637.4" y1="-6" x2="642.3" y2="2.1"/>
				<line id="XMLID_198_" class="st11" x1="643.9" y1="-4.4" x2="635.8" y2="0.5"/>
			</g>
			<g id="XMLID_194_">
				<line id="XMLID_196_" class="st11" x1="572.1" y1="33.8" x2="577" y2="42"/>
				<line id="XMLID_195_" class="st11" x1="578.6" y1="35.4" x2="570.5" y2="40.4"/>
			</g>
		</g>
	</g>
	<g id="XMLID_139_" class="st12">
		
			<rect id="XMLID_138_" x="761.4" y="-83.2" transform="matrix(-0.3877 0.9218 -0.9218 -0.3877 1156.7937 -618.1592)" class="st13" width="44.6" height="316.7"/>
		<path id="XMLID_137_" class="st14" d="M936.6,120.3l-13.7,32.6l13.6,4.6c2.3,0.7,4.8-0.4,5.8-2.6l9.2-22c1-2.2,0-4.8-2.2-5.9
			L936.6,120.3z"/>
		
			<rect id="XMLID_136_" x="863" y="91.4" transform="matrix(-0.3877 0.9218 -0.9218 -0.3877 1342.5902 -653.6237)" class="st13" width="50.8" height="55.3"/>
		<path id="XMLID_135_" class="st14" d="M780,52.1l-0.7,1.6c-1.5,3.4-5.4,5.1-8.9,3.6l-83.1-35c-3.4-1.5-5.1-5.4-3.6-8.9l0.7-1.6
			c1.5-3.4,5.4-5.1,8.9-3.6l83.1,35C779.9,44.7,781.5,48.7,780,52.1z"/>
		<polygon id="XMLID_116_" class="st14" points="595.1,-10.9 590.3,0.5 629.1,34.3 646.4,-6.9 		"/>
		<polygon id="XMLID_115_" class="st14" points="591.2,-1.5 581.5,-10 594.3,-8.8 		"/>
		<line id="XMLID_114_" class="st15" x1="572.2" y1="-13.9" x2="581.2" y2="-10.1"/>
	</g>
	<g id="XMLID_2_">
		
			<rect id="XMLID_254_" x="753.5" y="-101" transform="matrix(-0.3877 0.9218 -0.9218 -0.3877 1129.39 -635.5012)" class="st1" width="44.6" height="316.7"/>
		
			<rect id="XMLID_9_" x="762.8" y="-86.8" transform="matrix(-0.3877 0.9218 -0.9218 -0.3877 1134.2013 -610.2952)" class="st3" width="13.9" height="316.7"/>
		
			<rect id="XMLID_110_" x="774.8" y="-115.2" transform="matrix(-0.3877 0.9218 -0.9218 -0.3877 1124.5785 -660.7078)" class="st16" width="13.9" height="316.7"/>
		
			<rect id="XMLID_12_" x="753.5" y="-101" transform="matrix(-0.3877 0.9218 -0.9218 -0.3877 1129.39 -635.5012)" class="st17" width="44.6" height="316.7"/>
		<path id="XMLID_274_" class="st18" d="M928.6,102.5l-13.7,32.6l13.6,4.6c2.3,0.7,4.8-0.4,5.8-2.6l9.2-22c1-2.2,0-4.8-2.2-5.9
			L928.6,102.5z"/>
		<path id="XMLID_17_" class="st4" d="M928.6,102.5l-13.7,32.6l13.6,4.6c2.3,0.7,4.8-0.4,5.8-2.6l9.2-22c1-2.2,0-4.8-2.2-5.9
			L928.6,102.5z"/>
		
			<rect id="XMLID_273_" x="854.9" y="73.7" transform="matrix(-0.3877 0.9218 -0.9218 -0.3877 1315.024 -670.8069)" class="st19" width="50.8" height="55.3"/>
		
			<rect id="XMLID_10_" x="865.9" y="90.2" transform="matrix(-0.3877 0.9218 -0.9218 -0.3877 1320.5878 -641.4503)" class="st5" width="14.9" height="55.3"/>
		
			<rect id="XMLID_145_" x="879.7" y="56.9" transform="matrix(-0.3877 0.9218 -0.9218 -0.3877 1309.3564 -700.6672)" class="st20" width="15.4" height="55.3"/>
		
			<rect id="XMLID_19_" x="854.9" y="73.7" transform="matrix(-0.3877 0.9218 -0.9218 -0.3877 1315.024 -670.8069)" class="st17" width="50.8" height="55.3"/>
		<path id="XMLID_3_" class="st21" d="M772,34.4l-0.7,1.6c-1.5,3.4-5.4,5.1-8.9,3.6l-83.1-35c-3.4-1.5-5.1-5.4-3.6-8.9l0.7-1.6
			c1.5-3.4,5.4-5.1,8.9-3.6l83.1,35C771.8,27,773.5,30.9,772,34.4z"/>
		<path id="XMLID_20_" class="st4" d="M772,34.4l-0.7,1.6c-1.5,3.4-5.4,5.1-8.9,3.6l-83.1-35c-3.4-1.5-5.1-5.4-3.6-8.9l0.7-1.6
			c1.5-3.4,5.4-5.1,8.9-3.6l83.1,35C771.8,27,773.5,30.9,772,34.4z"/>
		<polygon id="XMLID_275_" class="st19" points="587.1,-28.7 582.3,-17.2 621,16.5 638.4,-24.6 		"/>
		<polygon id="XMLID_134_" class="st20" points="582.3,-17.2 621,16.5 626.4,3.7 584.7,-23 		"/>
		<polygon id="XMLID_144_" class="st20" points="587.1,-28.7 638.4,-24.6 633,-11.8 584.7,-23 		"/>
		<polygon id="XMLID_23_" class="st4" points="587.1,-28.7 582.3,-17.2 621,16.5 638.4,-24.6 		"/>
		<polygon id="XMLID_18_" class="st4" points="583.2,-19.3 573.5,-27.7 586.3,-26.7 		"/>
		<line id="XMLID_22_" class="st4" x1="564.1" y1="-31.6" x2="573.1" y2="-27.8"/>
	</g>
</g>
<g>
	<path id="XMLID_53_" class="st0" d="M1210.7,445.3h-23c-28.8,0-52.2-23.4-52.2-52.2l-1.8-124c1-24.5,23.5-43.7,50.4-43.7h30.3
		c26.9,0,49.4,19.2,50.4,43.7l-1.8,124C1262.9,421.9,1239.5,445.3,1210.7,445.3z"/>
	<path id="XMLID_51_" class="st22" d="M1198.4,427.5h-23c-28.8,0-52.2-23.4-52.2-52.2l-1.8-124c1-24.5,23.5-43.7,50.4-43.7h30.3
		c26.9,0,49.4,19.2,50.4,43.7l-1.8,124C1250.6,404.1,1227.2,427.5,1198.4,427.5z"/>
	<path id="XMLID_65_" class="st8" d="M1206.6,207.7l-1.7,113.7c0,28.8-23.4,52.2-52.2,52.2h-23c-2.2,0-4.4-0.1-6.7-0.5v2.1
		c0,28.8,23.4,52.2,52.2,52.2h23c28.8,0,52.2-23.4,52.2-52.2l2-124C1251.5,228.2,1231.4,209.8,1206.6,207.7z"/>
	<path id="XMLID_32_" class="st4" d="M1198.4,427.5h-23c-28.8,0-52.2-23.4-52.2-52.2l-1.8-124c1-24.5,23.5-43.7,50.4-43.7h30.3
		c26.9,0,49.4,19.2,50.4,43.7l-1.8,124C1250.6,404.1,1227.2,427.5,1198.4,427.5z"/>
	<line id="XMLID_52_" class="st4" x1="1186.8" y1="207.5" x2="1186.8" y2="279.2"/>
</g>
</svg>
