<?xml version="1.0" encoding="utf-8"?>
<!-- Generator: Adobe Illustrator 19.0.0, SVG Export Plug-In . SVG Version: 6.00 Build 0)  -->
<svg version="1.1" id="Layer_1" xmlns="http://www.w3.org/2000/svg" xmlns:xlink="http://www.w3.org/1999/xlink" x="0px" y="0px"
	 viewBox="300 -400 1000 1000" style="enable-background:new 300 -400 1000 1000;" xml:space="preserve">
<style type="text/css">
	.st0{opacity:0.34;enable-background:new    ;}
	.st1{fill:#65706C;}
	.st2{fill:#2F262D;}
	.st3{fill:#FC9F6F;}
	.st4{fill:#F2F2F2;}
	.st5{fill:#3B323A;}
	.st6{fill:#AFAFAF;}
	.st7{fill:#EF9067;}
	.st8{fill:#603936;}
	.st9{fill:#F05364;}
	.st10{fill:#494149;}
	.st11{opacity:0.71;fill:#D36B46;enable-background:new    ;}
	.st12{fill:#DD9883;}
	.st13{fill:none;stroke:#DD9883;stroke-width:3;stroke-linecap:round;stroke-linejoin:round;stroke-miterlimit:10;}
	.st14{opacity:0.6;fill:#EF9067;enable-background:new    ;}
	.st15{fill:none;stroke:#F6CDF7;stroke-width:3;stroke-linecap:round;stroke-linejoin:round;stroke-miterlimit:10;}
	.st16{fill:#FCFAFA;}
	.st17{fill:none;stroke:#161515;stroke-width:3;stroke-linecap:round;stroke-linejoin:round;stroke-miterlimit:10;}
	.st18{fill:#754743;}
	.st19{fill:#F4EFF0;}
	.st20{fill:#FFFFFF;}
	.st21{fill:#E2E2E2;}
	.st22{fill:#352934;}
	.st23{fill:#CECECE;}
	.st24{fill:#535452;}
	.st25{fill:#FFFDFD;}
	.st26{fill:#424441;}
	.st27{fill:#FF6161;}
	.st28{fill:#F4A36C;}
	.st29{fill:#F7BC8B;}
	.st30{fill:#EFA573;}
	.st31{opacity:0.77;fill:#F2F2F2;enable-background:new    ;}
</style>
<path id="XMLID_1_" class="st0" d="M1200.2,494.5H395.9c-10.3,0-18.6-8.3-18.6-18.6l0,0c0-10.3,8.3-18.6,18.6-18.6h804.3
	c10.3,0,18.6,8.3,18.6,18.6l0,0C1218.8,486.2,1210.5,494.5,1200.2,494.5z"/>
<path id="XMLID_28_" class="st1" d="M1253.8,248.9h-163.5c-16.6,0-30.1-13.5-30.1-30.1l0,0c0-16.6,13.5-30.1,30.1-30.1h91.3
	c19.7,0,35.7-16,35.7-35.7l0,0c0-19.7-16-35.7-35.7-35.7h-81.2c-22.2,0-40.3-18.1-40.3-40.3l0,0c0-22.2,18.1-40.3,40.3-40.3h90.3
	c19.7,0,35.9-16.1,35.9-35.9l0,0c0-19.7-16.1-35.9-35.9-35.9h-130.4h-31.2c-19.7,0-35.9-16.1-35.9-35.9l0,0
	c0-19.7,16.1-35.9,35.9-35.9h35.3c19.7,0,35.9-16.1,35.9-35.9l0,0c0-19.7-16.1-35.9-35.9-35.9h-20.1h-3.4H827.5h-7.3H597.3h-51
	c-19.7,0-35.9,16.1-35.9,35.9l0,0c0,19.7,16.1,35.9,35.9,35.9h15.2c19.7,0,35.9,16.1,35.9,35.9l0,0c0,19.7-16.1,35.9-35.9,35.9
	H424.7c-15.2,0-27.5,12.3-27.5,27.5l0,0c0,15.2,12.3,27.5,27.5,27.5h144.1c15.8,0,28.7,12.9,28.7,28.7l0,0
	c0,15.8-12.9,28.7-28.7,28.7H338.8c-19.7,0-35.9,16.1-35.9,35.9l0,0c0,19.7,16.1,35.9,35.9,35.9h222.6c19.7,0,35.9,16.1,35.9,35.9
	l0,0c0,19.7-16.1,35.9-35.9,35.9H427c-31.7,0-57.4,25.7-57.4,57.4l0,0c0,31.7,25.7,57.4,57.4,57.4h170.3h75.6h42.5h344.9h193.5
	c23.9,0,43.3-19.4,43.3-43.3l0,0C1297.1,268.2,1277.7,248.9,1253.8,248.9z"/>
<rect id="XMLID_114_" x="955.9" y="124.2" class="st2" width="23.4" height="351.8"/>
<path id="XMLID_85_" class="st3" d="M866.9,195.1c-3.8-8.4,0-18.4,8.6-22.3c2.2-0.9,4.5-1.4,6.9-1.4c6.6,0,12.7,3.9,15.5,10
	l83.1,187.3L950,382.4L866.9,195.1z"/>
<rect id="XMLID_7_" x="727.9" y="124.2" class="st2" width="23.4" height="351.8"/>
<path id="XMLID_80_" class="st4" d="M836.1,147.1c-80.4,0-145.5-61.3-145.5-136.8c0-19.5,4.4-38.1,12.2-54.9
	c-51.2,21.2-86.9,69.4-86.9,125.2c0,75.6,65.1,136.8,145.5,136.8c59.6,0,110.8-33.6,133.3-81.8C876.6,143,856.9,147.1,836.1,147.1z"
	/>
<ellipse id="XMLID_15_" class="st5" cx="755.6" cy="111" rx="79.6" ry="73.1"/>
<path id="XMLID_4_" class="st6" d="M612.2,124.2H434.1c-6.8,0-12.3-5.6-12.3-12.3v-11.7c0-6.8,5.6-12.3,12.3-12.3h178.1
	c6.8,0,12.3,5.6,12.3,12.3v11.7C624.5,118.6,618.9,124.2,612.2,124.2z"/>
<path id="XMLID_19_" class="st7" d="M824.5,55.3c-24.9,0-45.2-20.3-45.2-45.2v-45.2c0-17.3-13.9-31.2-31.2-31.2l0,0v76.4
	c0,42.2,34.2,76.4,76.4,76.4h63.3V55.3H824.5z"/>
<path id="XMLID_8_" class="st8" d="M834.8-183.3c-4.7,59.1-56.6,124.6-105.2,116.3c-46.5-7.9-78.5-81.3-62.7-132.8
	c9.7-31.7,36.5-51.6,58.1-67.5c22.3-16.6,37.4-27.8,54.6-25.1C813.5-287.2,838.6-230.3,834.8-183.3z"/>
<path id="XMLID_30_" class="st9" d="M769.2-15.1c-0.9-1-8.2-9.5-9.5-10.7c-3.4-13.9-10.3-29.2-8.8-47.2
	c-9.7-7.1-25.8-16.2-44.2-14.9c-5.5,0.4-11.2,1.7-14,2.3c-15.8,3.6-25.8,9.5-29.1,11.4c-4.4,2.7-6.6,4-9.2,6.6
	c-7,7.3-8.7,16.1-9.6,21.3c-7.8,45.2-1.7,88.6-0.9,92.4c1.4,6.9,3.4,13,3.4,13c3.2,10.3,7.1,16.6,8.2,19.5c5.2,14,17,43.5,29.5,66
	c9.1,1.4,29.7,10.5,43.4,5.8c20.8-7.1,63.6-23.1,79-26.4c-19.1-21.4-36.6-45.3-41.2-74.4c-1.2-7.5-2.2-14.9-3-22.2
	c1.8-0.9,12.9-6.5,15.1-17.7C780.5-2.2,771-13,769.2-15.1z"/>
<ellipse id="XMLID_48_" transform="matrix(-0.2686 -0.9632 0.9632 -0.2686 971.8785 605.0665)" class="st7" cx="715.7" cy="-66.4" rx="24.8" ry="21.3"/>
<path id="XMLID_20_" class="st8" d="M712.3-95.9c7.1,16.9,19,22.7,26.5,27.1c14.7,8.6,42.2,7.8,42.2,7.8c0.9-6,1.8-11.2,6.5-21
	c6.8-14.7,13-18.2,21.7-31.4c13-20,19.5-44.2,15.3-46.5c-3-1.8-11.2,7.5-16.5,13C792.8-131.4,758.8-108.2,712.3-95.9z"/>
<path id="XMLID_10_" class="st7" d="M711.8-58.7h-5.5c-12,0-21.6-9.6-21.6-21.6v-82h43.1V-75C727.9-66,720.6-58.7,711.8-58.7z"/>
<rect id="XMLID_5_" x="469" y="124.2" class="st2" width="23.4" height="351.8"/>
<rect id="XMLID_96_" x="612.8" y="124.2" class="st10" width="23.4" height="351.8"/>
<rect id="XMLID_102_" x="1096.7" y="124.2" class="st10" width="23.4" height="351.8"/>
<path id="XMLID_27_" class="st11" d="M684.8-153.6c2.9,24.8,20,45.3,43.1,53.1v-66.8h-43.1V-153.6z"/>
<path id="XMLID_6_" class="st3" d="M748.2-103.7L748.2-103.7c-31.7,0-57.3-25.6-57.3-57.3v-69.9c0-3,2.3-5.3,5.3-5.3h81.4
	c15.3,0,27.8,12.5,27.8,27.8v47.4C805.4-129.3,779.9-103.7,748.2-103.7z"/>
<path id="XMLID_29_" class="st12" d="M805.4-169.2c-0.6,1.6-2.2,2.6-3.9,2.6h-25.2c-2.3,0-4.3-1.9-4.3-4.3V-185
	c0-2.3,1.9-4.3,4.3-4.3h25.2c1.7,0,3.2,1,3.9,2.6v-5.5c-1.2-0.6-2.5-1-3.9-1h-25.2c-4.5,0-8.2,3.6-8.2,8.2v14.2
	c0,4.5,3.6,8.2,8.2,8.2h25.2c1.4,0,2.7-0.4,3.9-1V-169.2z"/>
<path id="XMLID_13_" class="st13" d="M754.8-164.7h-25.2c-3.5,0-6.2-2.9-6.2-6.2v-14.2c0-3.5,2.9-6.2,6.2-6.2h25.2
	c3.5,0,6.2,2.9,6.2,6.2v14.2C761-167.5,758.2-164.7,754.8-164.7z"/>
<path id="XMLID_36_" class="st14" d="M726.5-150.1v-69.9c0-3,2.3-5.3,5.3-5.3l47-16.5c-5.1-6.6,7.8,5.7-1.2,5.7h-81.4
	c-3,0-5.3,2.3-5.3,5.3v69.9c0,31.7,25.6,57.3,57.3,57.3l0,0c0.6,0,1.3,0,2.1,0C735.8-114.1,726.5-131,726.5-150.1z"/>
<path id="XMLID_14_" class="st15" d="M801.5-167.3h-25.2c-3.5,0-6.2-2.9-6.2-6.2v-14.2c0-3.5,2.9-6.2,6.2-6.2h25.2
	c3.5,0,6.2,2.9,6.2,6.2v14.2C807.8-170.1,804.9-167.3,801.5-167.3z"/>
<path id="XMLID_17_" class="st16" d="M763.1-132.5L763.1-132.5c-7.3,0-13.1-5.8-13.1-13v-6.1h26v6.1
	C776-138.4,770.2-132.5,763.1-132.5z"/>
<line id="XMLID_11_" class="st17" x1="739.6" y1="-182.3" x2="751.3" y2="-182.3"/>
<line id="XMLID_22_" class="st17" x1="783.8" y1="-182.3" x2="795.4" y2="-182.3"/>
<path id="XMLID_9_" class="st15" d="M754.8-167.3h-25.2c-3.5,0-6.2-2.9-6.2-6.2v-14.2c0-3.5,2.9-6.2,6.2-6.2h25.2
	c3.5,0,6.2,2.9,6.2,6.2v14.2C761-170.1,758.2-167.3,754.8-167.3z"/>
<path id="XMLID_23_" class="st18" d="M772.2-288.8c-15.7-20.3-42.5-19.9-47.4-20.4c-4.4-0.9-28.7,0.3-46.5,4.9
	c-41,10.9-69.6,48.1-69.6,90.7v54.6c0,36.6,27,81.1,61.7,92.6c19.2,6.5,40.5,11.4,45.6,10.7c-25.7-47.7-22.2-75.9-14.9-92.4
	c17.4-40.3,68.5-38.8,81.1-83.7C782.3-233.1,790.2-265.4,772.2-288.8z"/>
<path id="XMLID_21_" class="st9" d="M755.2-59.7"/>
<path id="XMLID_32_" class="st7" d="M932.5,86.1c1.3-3.4,1.9-7,1.9-10.8c0-17.3-13.9-31.2-31.2-31.2S872.1,58,872.1,75.3
	c0,3.8,0.6,7.4,1.9,10.8H932.5z"/>
<path id="XMLID_42_" class="st19" d="M832.5,87.8c-2.6-12-17-21-34.6-21c-17.4,0-32,9.1-34.6,21H832.5z"/>
<ellipse id="XMLID_16_" class="st7" cx="661.4" cy="-32.9" rx="19" ry="29.7"/>
<path id="XMLID_24_" class="st3" d="M718.8,56.3c-24.9,0-45.2-20.3-45.2-45.2v-55.2c0-8.6-7-15.6-15.6-15.6l0,0
	c-8.6,0-15.6,7-15.6,15.6v55.2c0,42.2,34.2,76.4,76.4,76.4h63.3V56.3h-31.7H718.8z"/>
<path id="XMLID_33_" class="st20" d="M981.5,87.8H836c-1.8,0-3.4-1.6-3.4-3.4l0,0c0-1.8,1.6-3.4,3.4-3.4h145.6
	c1.8,0,3.4,1.6,3.4,3.4l0,0C985,86.2,983.4,87.8,981.5,87.8z"/>
<path id="XMLID_76_" class="st19" d="M981.5,84.4H836c-1.3,0-2.3-0.6-3-1.7c-0.3,0.5-0.5,1-0.5,1.7c0,1.8,1.6,3.4,3.4,3.4h145.6
	c1.8,0,3.4-1.6,3.4-3.4c0-0.6-0.1-1.2-0.5-1.7C983.8,83.6,982.8,84.4,981.5,84.4z"/>
<path id="XMLID_70_" class="st19" d="M864.2,87.8H836c-1.8,0-3.4-1.6-3.4-3.4l0,0c0-1.8,1.6-3.4,3.4-3.4h28.2c1.8,0,3.4,1.6,3.4,3.4
	l0,0C867.5,86.2,866.1,87.8,864.2,87.8z"/>
<g id="XMLID_37_">
	<g id="XMLID_148_">
		<path id="XMLID_150_" class="st19" d="M971.2,81h-10.7v-2.5c0-1.3,1-2.5,2.5-2.5h5.7c1.3,0,2.5,1,2.5,2.5L971.2,81L971.2,81z"/>
	</g>
	<g id="XMLID_145_">
		<path id="XMLID_147_" class="st19" d="M958.2,81h-10.7v-2.5c0-1.3,1-2.5,2.5-2.5h5.7c1.3,0,2.5,1,2.5,2.5L958.2,81L958.2,81z"/>
	</g>
	<g id="XMLID_142_">
		<path id="XMLID_144_" class="st19" d="M945.2,81h-10.7v-2.5c0-1.3,1-2.5,2.5-2.5h5.7c1.3,0,2.5,1,2.5,2.5L945.2,81L945.2,81z"/>
	</g>
	<g id="XMLID_139_">
		<path id="XMLID_141_" class="st19" d="M932.2,81h-10.7v-2.5c0-1.3,1-2.5,2.5-2.5h5.7c1.3,0,2.5,1,2.5,2.5L932.2,81L932.2,81z"/>
	</g>
	<g id="XMLID_136_">
		<path id="XMLID_138_" class="st19" d="M919.2,81h-10.7v-2.5c0-1.3,1-2.5,2.5-2.5h5.7c1.3,0,2.5,1,2.5,2.5L919.2,81L919.2,81z"/>
	</g>
	<g id="XMLID_133_">
		<path id="XMLID_135_" class="st19" d="M906.2,81h-10.7v-2.5c0-1.3,1-2.5,2.5-2.5h5.7c1.3,0,2.5,1,2.5,2.5L906.2,81L906.2,81z"/>
	</g>
	<g id="XMLID_130_">
		<path id="XMLID_132_" class="st19" d="M893.3,81h-10.7v-2.5c0-1.3,1-2.5,2.5-2.5h5.7c1.3,0,2.5,1,2.5,2.5L893.3,81L893.3,81z"/>
	</g>
	<g id="XMLID_127_">
		<path id="XMLID_129_" class="st19" d="M880.3,81h-10.7v-2.5c0-1.3,1-2.5,2.5-2.5h5.7c1.3,0,2.5,1,2.5,2.5L880.3,81L880.3,81z"/>
	</g>
	<g id="XMLID_124_">
		<path id="XMLID_126_" class="st19" d="M867.3,81h-10.7v-2.5c0-1.3,1-2.5,2.5-2.5h5.7c1.3,0,2.5,1,2.5,2.5L867.3,81L867.3,81z"/>
	</g>
	<g id="XMLID_121_">
		<path id="XMLID_123_" class="st19" d="M854.3,81h-10.7v-2.5c0-1.3,1-2.5,2.5-2.5h5.7c1.3,0,2.5,1,2.5,2.5L854.3,81L854.3,81z"/>
	</g>
</g>
<path id="XMLID_74_" class="st21" d="M836,87.8h28.2c1.8,0,3.4-1.6,3.4-3.4h-35.1C832.5,86.2,834,87.8,836,87.8z"/>
<path id="XMLID_71_" class="st22" d="M848.6,193.3H745.8l-0.8-54.6h127.3c8.6,0,15.5,6.9,15.5,15.5l0,0
	C887.7,175.9,870.1,193.3,848.6,193.3z"/>
<path id="XMLID_100_" class="st7" d="M766,391.1l63-213c2.1-7.1,8.7-12.1,16.2-12.1c1.6,0,3.2,0.3,4.8,0.6c9,2.6,14,12.1,11.4,21
	l-63,213L766,391.1z"/>
<path id="XMLID_72_" class="st22" d="M818.3,373.7L766,358.2l66-223c4.3-14.4,19.5-22.7,33.9-18.4l0,0c14.4,4.3,22.7,19.5,18.4,33.9
	L818.3,373.7z"/>
<g id="XMLID_31_">
	<path id="XMLID_25_" class="st23" d="M1078.4,24.7H860.1c-4.3,0-7.8-3.5-7.8-7.8l27-155.9c0-4.3,3.5-7.8,7.8-7.8h218.2
		c4.3,0,7.8,3.5,7.8,7.8l-27,155.9C1086.2,21.1,1082.8,24.7,1078.4,24.7z"/>
	<path id="XMLID_26_" class="st19" d="M1091.3,24.7H873.1c-4.3,0-7.8-3.5-7.8-7.8l27-155.9c0-4.3,3.5-7.8,7.8-7.8h218.2
		c4.3,0,7.8,3.5,7.8,7.8l-27,155.9C1099.1,21.1,1095.8,24.7,1091.3,24.7z"/>
	<path id="XMLID_41_" class="st23" d="M1024.7,79.3l-17.9-90.8h-32c-3.9,0-6.9,3.6-6.1,7.4l15.8,80.1c0.6,3-1.7,5.7-4.7,5.7h-19.5
		c-3.5,0-6.2,2.9-6.2,6.2l0,0h32.7l0,0h30.4C1022.1,88.2,1025.6,83.9,1024.7,79.3z"/>
	<path id="XMLID_34_" class="st19" d="M1026.4,88.2h-33.1L974.1-9.3c-0.3-1.2,0.6-2.1,1.8-2.1h37.3l18.4,93.4
		C1032.1,85.2,1029.6,88.2,1026.4,88.2z"/>
	<polygon id="XMLID_38_" class="st19" points="987,88.2 993.3,88.2 991.6,79.3 985.2,79.3 	"/>
	<path id="XMLID_35_" class="st23" d="M987,88.2L987,88.2c3.2,0,5.7-3,5.1-6.2l-0.5-2.6h-7L987,88.2z"/>
	<path id="XMLID_69_" class="st23" d="M1015.6-58c-7,0-12.7-5.7-12.7-12.7c0-2.3,0.6-4.4,1.7-6.2c-1.8-0.5-3.8-0.9-5.8-0.9
		c-11,0-19.9,9-19.9,19.9s9,19.9,19.9,19.9c11,0,19.9-9,19.9-19.9c0-0.1,0-0.3,0-0.4C1017.6-58.1,1016.7-58,1015.6-58z"/>
</g>
<path id="XMLID_66_" class="st5" d="M864.5,163.5l-107,28.2c-29.1,7.7-58.6-13-72.7-47.2l165.9-33.9c14.5-3.8,29.5,4.9,33.3,19.5
	l0,0C887.8,144.8,879.1,159.7,864.5,163.5z"/>
<path id="XMLID_68_" class="st5" d="M972.2,325.9l-49.9,22.2l-87.4-196.7c-6.1-13.8,0.1-29.9,13.9-36l0,0c13.8-6.1,29.9,0.1,36,13.9
	L972.2,325.9z"/>
<path id="XMLID_2_" class="st4" d="M601.4,124.2h556.2c6.8,0,12.3-5.6,12.3-12.3v-11.7c0-6.8-5.6-12.3-12.3-12.3H601.4
	c-6.8,0-12.3,5.6-12.3,12.3v11.7C589,118.6,594.5,124.2,601.4,124.2z"/>
<path id="XMLID_73_" class="st24" d="M1053.5,389.1L943,409.3c-4.3,0.8-8.3-1.9-9.2-6l-0.8-3.5c-2.2-10.1,4.3-20.4,14.9-23.1
	l80.5-20.4c15.6-3.9,31.3,3.2,34.2,16.4l1,4.7C1064.8,382.6,1060.3,388,1053.5,389.1z"/>
<path id="XMLID_95_" class="st25" d="M1057.8,379.1l-123.5,22.5c-0.3,0-0.5,0.1-0.8,0.1l0.4,1.6c0.9,4.2,4.9,6.8,9.2,6l110.5-20.1
	c6.8-1.2,11.4-6.5,10.3-11.8l-0.1-0.4C1062,378,1060,378.8,1057.8,379.1z"/>
<path id="XMLID_89_" class="st26" d="M825.3,458.6L733,394.7c-3.5-2.5-4.5-7.3-2.2-10.8l1.9-3.1c5.6-8.7,17.5-11.4,26.9-5.7
	l71.3,42.6c13.9,8.3,19.9,24.6,12.6,35.7l-2.6,4C838,462,830.9,462.5,825.3,458.6z"/>
<path id="XMLID_87_" class="st23" d="M835.5,454.6l-103.3-71.4c-0.3-0.1-0.4-0.4-0.6-0.5l-0.8,1.3c-2.2,3.5-1.3,8.3,2.2,10.8
	l92.4,63.9c5.6,3.9,12.7,3.4,15.6-1.2l0.3-0.4C839.2,456.7,837.3,455.8,835.5,454.6z"/>
<path id="XMLID_86_" class="st27" d="M569.6,87.8h-21c-10.7,0-19.4-8.7-19.4-19.4V11.1h59.8v57.3C589,79.1,580.3,87.8,569.6,87.8z"
	/>
<path id="XMLID_112_" class="st28" d="M535.9,18.9c-13.9,0-25.1,11.3-25.1,25.1s11.3,25.1,25.1,25.1S561,57.8,561,44
	S549.7,18.9,535.9,18.9z M535.9,63.6c-10.8,0-19.6-8.8-19.6-19.6c0-10.8,8.8-19.6,19.6-19.6s19.6,8.8,19.6,19.6
	C555.4,54.9,546.7,63.6,535.9,63.6z"/>
<path id="XMLID_97_" class="st29" d="M569.6,87.8h-21c-10.7,0-19.4-8.7-19.4-19.4V11.1h59.8v57.3C589,79.1,580.3,87.8,569.6,87.8z"
	/>
<path id="XMLID_108_" class="st30" d="M557.5,69.6c-6,0-10.8-4.8-10.8-10.8V11.1h-17.5v57.3c0,10.7,8.7,19.4,19.4,19.4h21
	c10.3,0,18.7-8.1,19.4-18.2H557.5z"/>
<path id="XMLID_18_" class="st3" d="M805.2,87.8c1.3-3.4,1.9-7,1.9-10.8c0-17.3-13.9-31.2-31.2-31.2c-17.3,0-31.2,13.9-31.2,31.2
	c0,3.8,0.6,7.4,1.9,10.8H805.2z"/>
<path id="XMLID_44_" class="st9" d="M637.5-59.9"/>
<circle id="XMLID_12_" class="st31" cx="552.5" cy="-7.7" r="8.4"/>
<circle id="XMLID_43_" class="st31" cx="568.1" cy="-37.2" r="12.6"/>
<circle id="XMLID_45_" class="st1" cx="444.9" cy="-141.7" r="35.9"/>
</svg>
