<?xml version="1.0" encoding="utf-8"?>
<!-- Generator: Adobe Illustrator 19.0.0, SVG Export Plug-In . SVG Version: 6.00 Build 0)  -->
<svg version="1.1" id="Layer_1" xmlns="http://www.w3.org/2000/svg" xmlns:xlink="http://www.w3.org/1999/xlink" x="0px" y="0px"
	 viewBox="300 -400 1000 1000" style="enable-background:new 300 -400 1000 1000;" xml:space="preserve">
<style type="text/css">
	.st0{fill:#D6D6D4;}
	.st1{fill:#BABABA;}
	.st2{fill:#5EB173;}
	.st3{opacity:0.34;fill:#60A06C;enable-background:new    ;}
	.st4{fill:#60A06C;}
	.st5{fill:none;stroke:#474747;stroke-width:6;stroke-linecap:round;stroke-linejoin:round;stroke-miterlimit:10;}
	.st6{fill:#646464;}
	.st7{fill:#7C7C7C;}
	.st8{fill:#FFFFFF;}
	.st9{fill:#F6F9E4;}
</style>
<g>
	<path id="XMLID_104_" class="st0" d="M681.7,434.2l5.3,38.2c0.8,5.7,6.1,10.1,12.5,10.1h171.2c6.4,0,11.7-4.3,12.5-10.1l5.3-38.2
		H681.7z"/>
	<path id="XMLID_74_" class="st1" d="M867,482.4l12.4-3.2l9.1-45H681.8l2,14.7h170.7c0.2,0,0.2,0,0.2,0
		C879.1,448.8,867,482.4,867,482.4z"/>
	<path id="XMLID_103_" class="st2" d="M909.2,421.2L955.9,48H614.4l46.8,373.2c1,7.3,7.3,12.9,14.9,12.9h218.3
		C901.9,434.2,908.2,428.6,909.2,421.2z"/>
	<g id="XMLID_30_">
		<path id="XMLID_134_" class="st3" d="M775.6,353.5c-3.4,0-5.9-1.8-6.8-2.4c-3-2.4-4.7-6.4-4.8-11.3c-0.2-5.9,1.8-11.7,5.6-15.2
			c1-1,4.1-4,8.1-4c0.4,0,0.8,0,1.2,0.2c2.6,0.4,5.1,2.2,6.9,5.1c3,4.4,3.9,10.5,2.6,15.5c-1.4,5.9-6.4,12.1-12.7,12.3L775.6,353.5z
			 M777,335c-1.2,2.8-1,4.5-0.6,4.9c0,0,0.2,0,0.2,0.2c0.2-0.2,0.4-0.6,0.6-1.2C777.6,337.6,777.3,336.2,777,335z"/>
		<path id="XMLID_19_" class="st3" d="M791.1,370.1c-1.8,0-3.5-0.6-4.8-1.4c-3-2-2.8-4.7-2-14.4c0.6-6.1,1.4-15.6,2-30.3
			c0-0.8,0.2-1.4,0.2-2.2c-0.2,0-0.2,0-0.2,0c-0.2,0-0.6,0-1,0c-1,0.2-2.2,0.2-3.2,0.2c-1.2,0-2.2,0.2-3.4,0.2
			c-0.4,0-0.8,0.2-1.2,0.2c-0.8,0.2-1.4,0.2-2,0.2c-1.2,0-2.2-0.4-3-1.2c-2.8-2.8,0.2-8.8,2.6-11.1c1.8-1.8,4.4-2.6,7.5-2.6
			c1.8,0,3.8,0.2,6.1,0.8c1.4-4.3,3.6-7.3,6.3-9.2c1-0.8,4-2.8,7.9-2.8c0.6,0,1,0,1.6,0.2c0.8,0.2,3.4,0.6,5.5,2.6
			c2,2,2.6,4.7,2.6,6.5c1-0.4,2.2-0.6,3.5-0.6c0.6,0,1,0,1.4,0.2c0.8,0.2,3,0.4,4.9,2.4c3,3,2.2,7.5,2.2,8.3l-0.6,2.2
			c0.4-0.2,0.8-0.4,1-0.6c0.8-0.8,1.4-2,1.4-3.8l0.4-5.5l6.8,6.4l0.2,0.4c1.2,2.4,0.4,5.5-2.4,8.9c-2,2.6-5.9,3.8-11.7,3.8
			c-1.8,0-3.8-0.2-5.9-0.4c-0.8,6.5-0.6,13.7-0.6,13.7c0.2,2.6,0.2,5.2,0.2,7.3c0.4,11.9,0.6,16.7-3.2,19.5c-1.4,1-3,1.4-4.8,1.4
			l0,0c-1.6,0-3-0.4-4.4-1.4s-2-1.8-2.2-3.8c-0.6,1.6-1.4,2.8-2.8,3.9C795,369.4,793.1,370.1,791.1,370.1z M800.2,324.5
			c-0.6,6.7-0.4,13.1-0.4,13.1c0.2,3,0.2,5.9,0.2,8.4c0,1,0.2,2,0.2,3c0.4-4.9,0.8-11.3,1.2-19.9c0-1.4,0.2-2.8,0.2-4.1
			C801.1,324.7,800.7,324.7,800.2,324.5z M817.4,318c1.6,0.2,3,0.6,4,0.6c0.4,0,0.8,0,1.2-0.2l-1.8-1c-0.6-0.2-1-0.4-1.4-0.4
			c-0.2,0-0.2,0-0.4,0S818,317.3,817.4,318z M804.3,313.6c0.6-1.6,1.6-3,2.6-4.1c-0.2,0-0.2,0-0.2,0c-0.2,0-0.4,0-0.6,0
			c0,0-1.4,0.2-2.6,1.8c-0.2,0.2-0.6,0.8-1,1.8C802.6,312.9,803.9,313.4,804.3,313.6z"/>
		<path id="XMLID_26_" class="st3" d="M821.2,356.8c-3,0-5.7-1-7.5-2.6c-2.6-2.6-3.5-7.2-2.2-12.5c1.2-5.9,5.1-13.7,12.1-16.7
			c0.6-0.2,3-1.2,5.9-1.2c2.6,0,4.7,0.8,6.4,2.2c3.4,2.8,3.9,7.6,3,10.9c-1,3.5-3.5,5.7-6.4,7.2c0.2,0.4,0.6,1,0.6,1.8
			c0.2,2-0.8,5.2-3,7.5C828.1,355.5,824.8,356.8,821.2,356.8z M828.1,334.2c-0.4,0.2-0.8,0.4-1.4,0.8
			C827.3,334.8,827.7,334.6,828.1,334.2z"/>
		<path id="XMLID_24_" class="st3" d="M842.8,357.4c-3,0-6.1-1-7.9-3c-2.6-2.6-3.4-6.9-2.4-12.1c1.4-6.4,5.3-11.9,10.1-13.9
			c1.8-0.6,3.8-1,5.6-1c3,0,5.5,1,7.1,2.8c3,3.4,1.8,8,1.4,9.3c-0.8,2.8-2.6,4.9-4.9,6.4c0.4,0.4,0.8,1,0.8,2c0.2,1.8-0.8,4.9-3,6.8
			C848.1,356.4,845.6,357.4,842.8,357.4z"/>
		<path id="XMLID_21_" class="st3" d="M745,367.9c-2.2,0-4.1-0.2-6.1-1c-6.7-2-12.1-7.5-15.1-15.3c-3.4-8.5-2.2-19.4,2.6-29.1
			c-2,0.4-3.8,1.4-5.3,2.4c-1.8,1-3.2,1.8-4.8,1.8c-1,0-1.8-0.2-2.6-0.8c-1.4-1.2-2.2-3.4-2.2-6c0.2-3.2,1.6-7.6,5.2-9.6
			c1.4-0.8,3-1.2,4.7-1.2c3.5,0,7.5,1.6,11.7,3.5c4-4.5,8.7-7.6,13.5-9.2c2.6-0.8,5.3-1.4,7.6-1.4c3.5,0,6.3,1,8,3
			c4,4.5,2.2,12.7-2,17.5c-2,2.2-5.7,5.1-12.4,5.5c-0.4,0-0.6,0-1,0c-2.6,0-4.7-0.6-7.1-1.4c-0.6-0.2-1.2-0.4-1.8-0.6
			c-2.6,8.9-1.4,18.6,3,22.2c1.4,1,3.6,2.2,6,2.2c0.6,0,1,0,1.4-0.2c0.2,0,3.8-1,4.4-3.8c0.4-1.4,0.2-3-0.6-4
			c-0.6-0.6-1.4-1-2.2-1.4c-0.8-0.2-3-1.2-2.6-3.5c0.2-2.6,3.5-3.8,6.3-3.8c0.8,0,1.6,0.2,2.4,0.2c6.1,1.6,10.7,10.3,9.2,17.9
			c-1.2,6.4-6,9.9-7.6,11.1C754,366.6,749.6,367.9,745,367.9L745,367.9z M742.5,317.4c1.6,0.8,2.6,1.2,3.8,1.2c0.2,0,0.6,0,0.8,0
			c2.2-0.2,4.9-1.6,5.6-3.8c0.4-1,0.2-2.2,0-2.2c0,0-0.4-0.2-1-0.2c-1.6,0-3.6,0.6-4.9,1.4l-0.2,0.2
			C745,314.8,743.7,316,742.5,317.4z"/>
	</g>
	<path id="XMLID_72_" class="st4" d="M614.3,48l3.6,29.4h284.2c10.9,0,19.2,9.5,17.9,20.3l-29.6,307.2
		c-1.2,11.7-10.1,21.4-21.6,23.5l-33.4,6h47.6l0,0h11.3c7.6,0,14-5.5,14.9-12.9l46.8-373.2H614.4L614.3,48L614.3,48z"/>
	<path id="XMLID_63_" class="st5" d="M681.7,434.2l5.3,38.2c0.8,5.7,6.1,10.1,12.5,10.1h171.2c6.4,0,11.7-4.3,12.5-10.1l5.3-38.2
		H681.7z"/>
	<path id="XMLID_59_" class="st5" d="M909.2,421.2L955.9,48H614.4l46.8,373.2c1,7.3,7.3,12.9,14.9,12.9h218.3
		C901.9,434.2,908.2,428.6,909.2,421.2z"/>
	<path id="XMLID_108_" class="st6" d="M963.2,48c-118.7,0-237.6,0-356.3,0c-11.7,0.2-10.1-6.1-6-18c2.4-7.1,2.4-14.7,0-21.6
		c-4-12.1-5.6-18.2,6-18c118.7,0,237.6,0,356.3,0c11.7-0.2,10.1,6.1,6,18c-2.4,7.1-2.4,14.7,0,21.6C973.3,41.8,974.9,48.1,963.2,48z
		"/>
	<g>
		<path class="st7" d="M969.3,8.2c2.6-7.7,4.1-13.1,1.8-15.9c-0.6,1.8-1.2,3.8-1.8,5.9c-1.8,5.1-2.2,10.5-1.4,15.9
			C968.2,12,968.6,10.2,969.3,8.2z"/>
		<path class="st7" d="M602.4,14.1c0.8-5.3,0.4-10.7-1.4-15.9c-0.6-2.2-1.4-4-1.8-5.9c-2.2,2.8-0.8,8.1,1.8,15.9
			C601.6,10.2,602.1,12,602.4,14.1z"/>
		<path class="st7" d="M971.1,35.7c-1.4,1.4-3.8,2.2-7.9,2.2c-118.7,0-237.6,0-356.3,0c-4.1,0-6.5-0.6-7.9-2.2
			c-2.2,8.1-1.8,12.3,7.9,12.3c118.7,0,237.6,0,356.3,0C972.9,48.1,973.3,43.8,971.1,35.7z"/>
	</g>
	<g id="XMLID_68_">
		<path id="XMLID_69_" class="st6" d="M969.3,29.9c-0.2-0.6-0.4-1.4-0.6-2c-1.8,6.3-1.6,12.9,0.4,19.2
			C974.1,45.1,972.3,39.3,969.3,29.9z"/>
		<path id="XMLID_70_" class="st6" d="M602.8,21.4c1.4-0.6,6.5-13.5,14.5-13.5c118.7,0,219.8,0,338.5,0c9.6,0,11.3,19.5,12.8,20
			c0-0.2,0.6-19.6,0.6-19.8c4-12.1,5.6-18.2-6-18c-118.6,0-237.3,0-355.9,0c-12.1-0.2-10.5,6-6.4,18
			C601.1,8.4,602.7,21.2,602.8,21.4z"/>
		<path id="XMLID_71_" class="st6" d="M601.2,47.2c2-6.3,2.2-12.9,0.4-19.2c-0.2,0.6-0.4,1.4-0.6,2
			C597.9,39.3,596.1,45.1,601.2,47.2z"/>
	</g>
	<path id="XMLID_44_" class="st5" d="M963.2,48c-118.7,0-237.6,0-356.3,0c-11.7,0.2-10.1-6.1-6-18c2.4-7.1,2.4-14.7,0-21.6
		c-4-12.1-5.6-18.2,6-18c118.7,0,237.6,0,356.3,0c11.7-0.2,10.1,6.1,6,18c-2.4,7.1-2.4,14.7,0,21.6C973.3,41.8,974.9,48.1,963.2,48z
		"/>
	<path id="XMLID_106_" class="st0" d="M952.9-9.9H617.3l3.4-11.7c5.2-18.7,23.1-31.7,43.6-31.7h241.8c20.4,0,38.2,12.9,43.6,31.7
		L952.9-9.9z"/>
	<path id="XMLID_66_" class="st0" d="M952.9-9.9H617.3l3.4-11.7c5.2-18.7,23.1-31.7,43.6-31.7h241.8c20.4,0,38.2,12.9,43.6,31.7
		L952.9-9.9z"/>
	<path id="XMLID_76_" class="st8" d="M687.7-39.4l229-0.2c16.5,0,26.7,11.9,31.4,13.3C940-38.4,922-53.4,906.2-53.4H664.1
		c-20.4,0-38.2,12.9-43.6,31.7L617.2-10h29.1C653.4-25.4,669.6-39.4,687.7-39.4z"/>
	<path id="XMLID_43_" class="st5" d="M952.9-9.9H617.3l3.4-11.7c5.2-18.7,23.1-31.7,43.6-31.7h241.8c20.4,0,38.2,12.9,43.6,31.7
		L952.9-9.9z"/>
	<path id="XMLID_107_" class="st0" d="M886.8-53.3h-91.6v-8.5c0-9.9,8-18,18-18H869c9.9,0,18,8,18,18v8.5H886.8z"/>
	<path id="XMLID_67_" class="st0" d="M886.8-53.3h-91.6v-8.5c0-9.9,8-18,18-18H869c9.9,0,18,8,18,18v8.5H886.8z"/>
	<path id="XMLID_78_" class="st8" d="M795.4-53.5c0-9.5,7.6-17.1,17.1-17.1h57.5c8.7,0,15.9,6.5,17,14.9v-6.9
		c0-9.5-7.6-17.1-17.1-17.1h-57.5c-9.5,0-17.1,7.6-17.1,17.1v9.3h0.2L795.4-53.5L795.4-53.5z"/>
	<path id="XMLID_32_" class="st4" d="M774.2,260.3c-14.1,0-39.8-10.1-48-36.9c-8-21.9-4.5-47.6,8.9-67c9.9-14.1,23.4-22.2,37-22.2
		c4.1,0,8.3,0.8,12.3,2.2l0.2,0.2l0.2,0.2c2.8,1.6,4.4,3.5,4.9,5.7c0.8,3.9-1.8,7.5-5.1,12.1c-6.7,9.2-15.7,21.8-6.8,45.2
		c10.5,27,10.5,52.6,4,58.7C780.5,259.6,777.9,260.3,774.2,260.3z"/>
	<path id="XMLID_42_" class="st5" d="M886.8-53.3h-91.6v-8.5c0-9.9,8-18,18-18H869c9.9,0,18,8,18,18v8.5H886.8z"/>
	<path id="XMLID_31_" class="st4" d="M811,259.9c-5.2,0-10.1-2-13.3-5.5c-2.8-3-4.3-6.9-4-11.1c0.6-10.7-3-20.8-6.4-30.7
		c-3.2-8.9-6.3-17.5-6.3-26.3c-0.2-32.6,21.8-42.9,24.4-44c1.8-1,3.8-1.6,5.9-1.6c8.7,0,19.4,8.5,27.1,21.8
		c5.2,8.8,20.6,40.5,0.4,76.8C831.5,252.4,821.4,259.9,811,259.9L811,259.9z"/>
	<path id="XMLID_33_" class="st9" d="M784.9,134.9c15.7,8.9-24.2,19.9-8.1,61.5c10.9,28.4,9.3,51.4,4.7,55.8
		c-4.6,4.4-41.3-0.8-51.4-33.7C713.5,173.5,749.6,121.6,784.9,134.9z"/>
	<path id="XMLID_27_" class="st9" d="M807.9,140.8c0,0-23.1,9.1-23,41.7c0,18.2,14,36.5,12.7,57.1c-1,14.4,23.8,24,40.2-5.5
		C866.6,182.1,823.8,130.6,807.9,140.8z"/>
	<g id="XMLID_102_">
		<path id="XMLID_39_" class="st9" d="M770.2,323.9c-6.1,5.9-6.4,18-1,22.4c0.4,0.2,2.4,2,5.3,1.8c5.1-0.2,8.9-5.7,10.1-10.3
			c1.8-7.2-2-16.3-7.3-17.2C774,320.1,771,322.9,770.2,323.9z M778.3,337c-0.2,0.4-1,2.8-2.8,3c-1.2,0.2-2.2-0.6-2.2-0.8
			c-1.6-1.4-1.4-4.8,0.2-8.4c1-1.6,1.8-2,2.4-1.8C777.6,329,779.6,333.6,778.3,337z"/>
		<path id="XMLID_38_" class="st9" d="M786.4,363.8c-2.8-1.8-0.4-6.1,1.2-42.5c0.4-10.1,2.6-19.1,7.7-22.7c1-0.6,4-2.8,7.6-2.2
			c0.8,0.2,2.6,0.4,3.9,1.8c2.6,2.6,1.8,6.4,1.6,6.7c-0.8-0.4-2.2-1-4.1-0.8c0,0-2.2,0.4-4.1,2.6c-5.1,5.5-4.5,28.4-4.5,28.4
			c0.6,19.1,1.4,25.8-2.2,28.4C791.6,365,788.5,365.1,786.4,363.8z"/>
		<path id="XMLID_37_" class="st9" d="M801.6,363.4c-2.4-1.6-0.4-5.3,1-36.7c0.4-8.7,2.2-16.5,6.7-19.6c1-0.6,3.5-2.4,6.5-1.8
			c0.6,0.2,2.2,0.4,3.5,1.6c2.2,2.2,1.4,5.5,1.4,5.9c-0.6-0.4-2-1-3.6-0.6c0,0-1.8,0.2-3.6,2.2c-4.4,4.8-3.9,24.6-3.9,24.6
			c0.4,16.5,1.2,22.3-2,24.6C806.1,364.4,803.5,364.6,801.6,363.4z"/>
		<path id="XMLID_36_" class="st9" d="M824.1,345.7c-1.2,0.2-2.8,0.2-4-0.6c-2.8-2-1.8-9.1,1.6-13.2c0.6-0.6,3.6-4,6.4-3
			c0.8,0.2,1.8,1,1.8,2c0.2,2.2-4.5,4.8-8.7,5.1c-2.2,0.2-4.1-0.4-5.2-0.8c-1.2,1.8-1,2.8-1,3.2c0.8,2.6,6.5,2.4,7.3,2.2
			c0.6,0,10.5-0.6,12.4-7.5c0.6-2.6,0.2-6.1-2.2-8.3c-3.5-3-8.8-1-9.5-0.6c-9.5,3.8-13.7,20-8.9,24.8c2.8,2.8,9.3,2.4,12.5-0.6
			c2.2-2.2,2.6-5.5,2-5.9C828.5,342.7,827.1,345.1,824.1,345.7z"/>
		<path id="XMLID_35_" class="st9" d="M844.2,347.5c-1,0.2-2.6,0.2-3.5-0.4c-2.6-1.8-1.4-8.1,1.4-11.7c0.4-0.6,2.6-3.4,4.5-2.6
			c1,0.2,1.6,1.4,1.6,2.2c-0.2,2.2-3.8,3.8-6.4,4c-2,0.2-3.8-0.2-4.7-0.6c-1,1.4-1,2.6-0.8,2.8c0.6,2,4.5,2.2,6.5,2
			c3.5-0.2,8.7-2.4,10.1-7.1c0.2-0.6,1.2-4.4-1-6.8c-2.4-2.6-6.9-2.2-9.7-1c-7.9,3.2-11.5,17-6.9,21.6c2.6,2.6,8.5,3,11.3,0.4
			c2-1.8,2.4-4.8,1.8-5.2C848.1,344.7,846.9,346.8,844.2,347.5z"/>
		<path id="XMLID_34_" class="st9" d="M828.1,311c-0.2,1.8-0.6,3.9-2.2,5.5c-9.2,8.8-41-15.9-50-7.1c-2,1.8-3.6,6.1-2.6,7.3
			c0.6,0.6,1.4,0.2,3.9,0c2.2-0.2,4.4-0.2,6.5-0.4c5.3-0.6,13.5,2.6,21.9,4.5c2.2,0.4,19,3.9,23-1.2c0.6-0.6,3-4,2-6.1l0,0
			C829.7,312.6,828.9,311.8,828.1,311z"/>
		<path id="XMLID_25_" class="st9" d="M734.6,314.4c5.7,2.8,7.6,4.7,11.3,4.3c3-0.4,6.8-2.2,7.9-5.6c0.4-1.4,0.6-3.8-0.6-4.9
			c-1.8-2-6.5-0.6-9.2,0.6c0,0-0.2,0.2-0.2,0.2c-11.7,6.3-15.2,31.4-5.9,39.3c2.4,2,6.1,3.6,9.9,2.6c0.6-0.2,5.2-1.4,6.4-5.6
			c0.6-2.2,0.2-4.7-1.2-6.4c-1.8-2-4.3-2.2-4.1-2.8c0-0.6,2.8-1.8,5.3-1c4.8,1.2,8.4,8.5,7.2,14.8c-1,5.3-5.2,8.4-6.5,9.3
			c-4.8,3.5-11.1,4.3-16.4,2.6c-9.1-2.8-12.5-11.9-13.3-13.7c-6.5-16.8,5.7-39.8,21.1-44.6c1-0.4,9.3-3,12.8,1
			c3,3.4,1.4,10.1-2,13.9c-3.8,4.3-9.1,4.5-10.5,4.7c-2.6,0.2-4.7-0.4-7.3-1.2c-6.8-1.8-7.2-4-10.9-4.7c-7.2-1-11.7,5.9-14.1,4.1
			c-2.2-1.6-1.2-8.9,2.8-11.3C720.7,307.7,727.2,310.8,734.6,314.4z"/>
	</g>
	<path id="XMLID_125_" class="st5" d="M888.3-247.2c-10.5,14.5-21.9,18.2-30.7,35.1c-2.4,4.7-9.5,18.3-7.3,34.7
		c2.8,21.6,19.1,27.2,20.7,46.8c0.6,8.8-1.8,19.5-10.7,32.1"/>
	<path id="XMLID_62_" class="st5" d="M921.7-315.7c8.1,33.8,2.2,54.6-4.7,67.4c-12.7,23.4-35.8,32.5-37.4,55.9
		c-0.8,11.1,3.6,20.4,7.2,26.3"/>
	<path id="XMLID_6_" class="st5" d="M845.2-235.6c0,0-16,18.7-16,35.7"/>
</g>
</svg>
