<?xml version="1.0" encoding="utf-8"?>
<!-- Generator: Adobe Illustrator 19.0.0, SVG Export Plug-In . SVG Version: 6.00 Build 0)  -->
<svg version="1.1" id="Layer_1" xmlns="http://www.w3.org/2000/svg" xmlns:xlink="http://www.w3.org/1999/xlink" x="0px" y="0px"
	 viewBox="300 -400 1000 1000" style="enable-background:new 300 -400 1000 1000;" xml:space="preserve">
<style type="text/css">
	.st0{fill:#F8F8F8;}
	.st1{opacity:0.81;fill:#C1C1C1;enable-background:new    ;}
	.st2{opacity:0.85;fill:#DDDDDD;enable-background:new    ;}
	.st3{fill:#030303;}
	.st4{fill:none;stroke:#000000;stroke-width:8;stroke-linecap:round;stroke-linejoin:round;stroke-miterlimit:10;}
	.st5{fill:#D17F4D;}
	.st6{fill:none;stroke:#C57442;stroke-width:6;stroke-linecap:round;stroke-linejoin:round;stroke-miterlimit:10;}
	.st7{fill:#B3B3B3;}
	.st8{fill:#D7D7D7;}
	.st9{fill:#C1C1C1;}
	.st10{fill:#E7E7E7;}
	.st11{fill:#DFE1E0;}
	.st12{fill:#272727;}
	.st13{fill:#212121;}
	.st14{fill:#4C4C4C;}
	.st15{opacity:0.2;fill:#020202;enable-background:new    ;}
	.st16{fill:#3E3E3E;}
	.st17{fill:#2C2C2C;}
	.st18{fill:#121212;}
	.st19{fill:#A55137;}
	.st20{fill:none;stroke:#000000;stroke-linecap:round;stroke-linejoin:round;stroke-miterlimit:10;}
	.st21{fill:#0E0E0E;}
	.st22{fill:#17E09C;}
	.st23{fill:#932B3A;}
	.st24{fill:#1F1F1F;}
	.st25{fill:#313131;}
	.st26{fill:#5A5A5A;}
	.st27{fill:#676767;}
	.st28{fill:#4D4D4D;}
	.st29{fill:#BA8F1C;}
	.st30{fill:none;stroke:#9D472E;stroke-width:6;stroke-linecap:round;stroke-linejoin:round;stroke-miterlimit:10;}
	.st31{opacity:0.54;}
	.st32{opacity:0.54;fill:#0E0E0E;enable-background:new    ;}
</style>
<path id="XMLID_19_" class="st0" d="M1210.7,154.3h-81.4c-3.5,0-6.3-2.9-6.3-6.3V3.9c0-3.5,2.9-6.3,6.3-6.3h81.4
	c3.5,0,6.3,2.9,6.3,6.3V148C1217,151.5,1214.2,154.3,1210.7,154.3z"/>
<path id="XMLID_41_" class="st1" d="M1148.4,128.8l27.4,25.7h34.7c3.5,0,6.3-2.9,6.3-6.3v-47.8l-25-14.7L1148.4,128.8z"/>
<path id="XMLID_21_" class="st2" d="M1185.7,68H1153c-3.5,0-6.3-2.9-6.3-6.3V29c0-3.5,2.9-6.3,6.3-6.3h32.6c3.5,0,6.3,2.9,6.3,6.3
	v32.6C1192,65.1,1189.1,68,1185.7,68z"/>
<path id="XMLID_5_" class="st3" d="M1190.4,130.7h-32.6c-3.5,0-6.3-2.9-6.3-6.3V91.8c0-3.5,2.9-6.3,6.3-6.3h32.6
	c3.5,0,6.3,2.9,6.3,6.3v32.6C1196.7,127.9,1193.9,130.7,1190.4,130.7z"/>
<path id="XMLID_298_" class="st4" d="M1173,116.6v65.1c0,10.3,8.4,18.7,18.7,18.7h21.7c10.3,0,18.7,8.4,18.7,18.7l0,0
	c0,10.3-8.4,18.7-18.7,18.7H976.4"/>
<path id="XMLID_16_" class="st5" d="M1242.2,318.2H366.8c-9.5,0-17.3-7.8-17.3-17.3v-38.8c0-9.5,7.8-17.3,17.3-17.3h875.5
	c9.5,0,17.3,7.8,17.3,17.3V301C1259.5,310.5,1251.7,318.2,1242.2,318.2z"/>
<g id="XMLID_119_">
	<path id="XMLID_116_" class="st6" d="M878.2,344.4c-26.4-45.3,39.8-95.7,109-103.6"/>
	<path id="XMLID_1_" class="st6" d="M741.7,318.1c4.9-4.9,16.2-14.6,32.5-16.8c5.4-0.8,13.1-1.7,21.5,2.4
		c11.7,5.7,15.8,17.4,16.8,20.3"/>
	<path id="XMLID_6_" class="st6" d="M352.9,225.7c1.7,5.1,31.4,26,73,38.5c41.7,12.4,92-2.4,115-50.5"/>
	<path id="XMLID_106_" class="st6" d="M330.1,279.9c20.9-13.9,48.6-9.3,62.7,8.7c12.2,15.5,12.5,38.5,0,55.8"/>
	<path id="XMLID_185_" class="st6" d="M345.1,304.9c8.2-9.2,19-12.5,24.4-9.3c6.3,3.8,8.4,18.7-1.7,32.5"/>
	<path id="XMLID_187_" class="st6" d="M430.7,286.4c-5.5,1.9-13.5,7.8-12.2,15.2c1.1,7.1,9.8,11.4,16.6,10.5
		c10.5-1.4,25-6.2,25.3-22.6C460.6,283.9,436.5,284.3,430.7,286.4z"/>
	<path id="XMLID_192_" class="st6" d="M466,347.9c6.5-12.7,14.6-60.3,90.6-80.1c66.4-17.4,144,12.5,188.3,82.5"/>
	<path id="XMLID_194_" class="st6" d="M540.4,304.5c-24.7,26,8.2,63,47.5-5.4c10.9-19.2,53.1,6,67.9,41.8"/>
	<path id="XMLID_199_" class="st6" d="M942.7,350.2c-15.2-4.4-24.1-41-22.6-51.9c1.4-10.5,12-18.1,20.9-19.2
		c16.3-2.2,36.3,16,46.2,47"/>
	<path id="XMLID_202_" class="st6" d="M723.8,216.7c-2.1,3.5-10.3,17.6-5.9,33.7c5.7,20.6,28.5,30.6,45.3,30.3
		c24.4-0.5,47.8-22.8,52.3-54.6"/>
	<path id="XMLID_197_" class="st6" d="M862.2,217.8c-7.9,7.8-57.8,53.4-17.3,109.4"/>
	<path id="XMLID_262_" class="st6" d="M861.1,272.3c9.5-10.3,34.2-34.5,72.1-39.4c10.5-1.4,19.8-1.1,27.9,0"/>
	<path id="XMLID_3_" class="st6" d="M948.7,299.4c-3.2,0.2-7.8,6-5.5,11.1c2.4,5.4,10.6,5.7,12.7,3.2
		C958.5,310.3,953.2,299.2,948.7,299.4z"/>
	<path id="XMLID_4_" class="st6" d="M609.8,309.7c-5.7-0.6-14.7,8.7-11.9,16.6c2.9,7.6,14.9,9.3,19,5.5
		C622.1,326.9,616.6,310.5,609.8,309.7z"/>
</g>
<path id="XMLID_9_" class="st7" d="M923.7,0.7H610.3v-96.3c0-8.7,7.1-15.8,15.8-15.8h281.6c8.7,0,15.8,7.1,15.8,15.8V0.7H923.7z"/>
<path id="XMLID_7_" class="st8" d="M913.1,0.7H599.6v-96.3c0-8.7,7.1-15.8,15.8-15.8h281.8c8.7,0,15.8,7.1,15.8,15.8V0.7z"/>
<polygon id="XMLID_43_" class="st9" points="913.1,-28 884.4,-47.8 884.4,20 913.1,20 "/>
<path id="XMLID_15_" class="st10" d="M870,0.7H649.9v-158.2c0-6.2,4.9-11.1,11.1-11.1h199.6c5.2,0,9.5,4.3,9.5,9.5V0.7z"/>
<path id="XMLID_12_" class="st0" d="M863.8,0.7H640.7v-158.2c0-6.2,4.9-11.1,11.1-11.1h202.6c5.2,0,9.5,4.3,9.5,9.5V0.7z"/>
<path id="XMLID_8_" class="st11" d="M623.7,20h-46.6v-48.8c0-10.5,8.6-19,19-19h27.6V20z"/>
<path id="XMLID_11_" class="st7" d="M639.9,20h-46.6v-48.8c0-10.5,8.6-19,19-19h27.6V20z"/>
<path id="XMLID_14_" class="st11" d="M868.3,20h-46.6v-48.8c0-10.5,8.6-19,19-19h27.6V20z"/>
<path id="XMLID_13_" class="st7" d="M884.4,20h-46.6v-48.8c0-10.5,8.6-19,19-19h27.6V20z"/>
<polygon id="XMLID_25_" class="st9" points="639.9,-47.8 737.8,20 668.5,20 639.9,20 "/>
<rect id="XMLID_32_" x="464.5" y="151.8" class="st3" width="603.1" height="53.1"/>
<rect id="XMLID_27_" x="469" y="87.2" class="st12" width="425.3" height="128.9"/>
<polygon id="XMLID_71_" points="831.2,240.8 568.6,240.8 568.6,136.1 812.4,136.1 812.4,192.8 831.2,204.5 "/>
<path id="XMLID_35_" class="st13" d="M821.4,113.6H613.1c-17.1,0-30.9,13.8-30.9,30.9v61.8h28.4v-53.7c0-7.6,6.2-13.8,13.8-13.8
	h26.8c4.3,0,7.8,3.5,7.8,7.8v3.6h30.7c2.1,0,3.6-1.7,3.6-3.6l0,0c0-4.3,3.5-7.8,7.8-7.8h32.8c4.3,0,7.8,3.5,7.8,7.8v3.6h30.7
	c2.1,0,3.6-1.7,3.6-3.6l0,0c0-4.3,3.5-7.8,7.8-7.8h26.8c7.6,0,13.8,6.2,13.8,13.8v15.8h28.4v-23.9
	C852.3,127.4,838.5,113.6,821.4,113.6z"/>
<path id="XMLID_123_" class="st14" d="M796.4,113.6H588.1c-17.1,0-30.9,13.8-30.9,30.9v61.8h28.4v-53.7c0-7.6,6.2-13.8,13.8-13.8
	h26.8c4.3,0,7.8,3.5,7.8,7.8l0,0c0,2.1,1.7,3.6,3.6,3.6h26.9c2.1,0,3.6-1.7,3.6-3.6l0,0c0-4.3,3.5-7.8,7.8-7.8h32.8
	c4.3,0,7.8,3.5,7.8,7.8l0,0c0,2.1,1.7,3.6,3.6,3.6h26.9c2.1,0,3.6-1.7,3.6-3.6l0,0c0-4.3,3.5-7.8,7.8-7.8h26.8
	c7.6,0,13.8,6.2,13.8,13.8v15.8h28.4v-23.9C827.2,127.4,813.3,113.6,796.4,113.6z"/>
<path id="XMLID_114_" class="st12" d="M794.3,199.9H542.2v45h258h55.8C830.6,244.9,801.9,227,794.3,199.9z"/>
<polygon id="XMLID_33_" class="st13" points="790.7,206.6 794.1,199.9 755.2,199.9 751.1,209.1 "/>
<path id="XMLID_111_" class="st14" d="M790.7,206.6H540.4v38.3h258h55.8C828.8,244.9,798.3,229.7,790.7,206.6z"/>
<path id="XMLID_304_" class="st15" d="M766.4,189.8H581.3c-20.9,0-38,16.9-38,38v29.5l0,0v28.2c0,7.9,6.5,14.4,14.4,14.4h180.9
	c15.4,0,27.9-12.5,27.9-27.9v-36.4c0-20.9,16.9-38,38-38h12.2v-7.8L766.4,189.8L766.4,189.8z"/>
<path id="XMLID_186_" class="st16" d="M1025.9,0.8H506.4c-30.7,0-55.8,25-55.8,55.8v116.7h90.1V142c0-15.4,12.5-27.9,27.9-27.9
	h202.3c15.4,0,27.9,12.5,27.9,27.9v31.4h282.9V56.6C1081.6,25.9,1056.6,0.8,1025.9,0.8z"/>
<path id="XMLID_70_" class="st17" d="M1081.6,173.5V56.8c0-30.7-25-55.8-55.8-55.8h-80.1C915,1,890,26,890,56.8v116.7H1081.6z"/>
<path id="XMLID_121_" class="st16" d="M1069.4,173.5V56.8c0-21.2-17.3-38.3-38.3-38.3h-80.1c-21.2,0-38.3,17.3-38.3,38.3v116.7
	H1069.4z"/>
<path id="XMLID_73_" class="st18" d="M1064.2,173.5V56.8c0-21.2-17.3-38.3-38.3-38.3h-80.1c-21.2,0-38.3,17.3-38.3,38.3v116.7
	H1064.2z"/>
<path id="XMLID_17_" class="st19" d="M1242.2,318.2h-240.9c-9.5,0-17.3-7.8-17.3-17.3v-38.8c0-9.5,7.8-17.3,17.3-17.3h240.9
	c9.5,0,17.3,7.8,17.3,17.3V301C1259.5,310.5,1251.7,318.2,1242.2,318.2z"/>
<g id="XMLID_28_">
	<path id="XMLID_24_" class="st20" d="M1052.5,35.2"/>
	<path id="XMLID_42_" class="st20" d="M478.3,241.7"/>
</g>
<rect id="XMLID_183_" x="638.9" y="164.4" class="st13" width="23.6" height="13.1"/>
<rect id="XMLID_39_" x="735.5" y="164.4" class="st13" width="23.6" height="13.1"/>
<rect id="XMLID_37_" x="618" y="164.4" class="st14" width="23.6" height="13.1"/>
<rect id="XMLID_109_" x="714.5" y="164.4" class="st14" width="23.6" height="9"/>
<rect id="XMLID_29_" x="641.6" y="172.7" class="st14" width="96.5" height="4.9"/>
<path id="XMLID_224_" class="st14" d="M860.8,0.8H502.4v4.9c0,29.5,23.9,53.4,53.4,53.4h251.5c29.5,0,53.4-23.9,53.4-53.4L860.8,0.8
	L860.8,0.8z"/>
<path id="XMLID_233_" class="st21" d="M555.8,47.1h251.5c27.1,0,49.4-20.1,52.9-46.2H502.9C506.4,27,528.7,47.1,555.8,47.1z"/>
<path id="XMLID_86_" class="st22" d="M577.2,34.6h-14.4c-1.9,0-3.5-1.6-3.5-3.5v-0.6c0-1.9,1.6-3.5,3.5-3.5h14.4
	c1.9,0,3.5,1.6,3.5,3.5v0.6C580.6,33,579.1,34.6,577.2,34.6z"/>
<path id="XMLID_184_" class="st23" d="M593.2,34.6h-3.6c-1.9,0-3.5-1.6-3.5-3.5v-0.6c0-1.9,1.6-3.5,3.5-3.5h3.6
	c1.9,0,3.5,1.6,3.5,3.5v0.6C596.6,33,595.1,34.6,593.2,34.6z"/>
<path id="XMLID_105_" class="st24" d="M799.2,30.1H679.8c-4.4,0-8.1-3.6-8.1-8.1v-1.6c0-4.4,3.6-8.1,8.1-8.1h119.4
	c4.4,0,8.1,3.6,8.1,8.1v1.6C807.1,26.5,803.6,30.1,799.2,30.1z"/>
<path id="XMLID_225_" class="st25" d="M704,30.1h-24.2c-4.4,0-8.1-3.6-8.1-8.1v-1.6c0-4.4,3.6-8.1,8.1-8.1H704
	c4.4,0,8.1,3.6,8.1,8.1v1.6C712.1,26.5,708.5,30.1,704,30.1z"/>
<path id="XMLID_226_" class="st26" d="M711.8,59.3H598.9c-3,0-5.5-2.5-5.5-5.5v-1.1c0-3,2.5-5.5,5.5-5.5h112.9c3,0,5.5,2.5,5.5,5.5
	v1.1C717.3,56.8,714.8,59.3,711.8,59.3z"/>
<path id="XMLID_228_" class="st27" d="M642.6,59.3h-27.9c-3,0-5.5-2.5-5.5-5.5v-1.1c0-3,2.5-5.5,5.5-5.5h27.9c3,0,5.5,2.5,5.5,5.5
	v1.1C648.1,56.8,645.6,59.3,642.6,59.3z"/>
<path id="XMLID_193_" class="st16" d="M540.7,182.2h-90.1v7c0,30.7,25,55.8,55.8,55.8h34.2L540.7,182.2L540.7,182.2z"/>
<path id="XMLID_247_" class="st28" d="M525.4,199.6H466c-3,0-5.5-2.5-5.5-5.5V193c0-3,2.5-5.5,5.5-5.5h59.4c3,0,5.5,2.5,5.5,5.5v1.1
	C530.9,197.1,528.4,199.6,525.4,199.6z"/>
<circle id="XMLID_239_" class="st29" cx="821.7" cy="21.9" r="5.9"/>
<path id="XMLID_259_" class="st0" d="M749,177.4H563.9c-20.9,0-38,16.9-38,38v29.5h113.1v42.8h82c15.4,0,27.9-12.5,27.9-27.9v-36.4
	c0-20.9,16.9-38,38-38h25.7v-7.8L749,177.4L749,177.4z"/>
<path id="XMLID_115_" class="st2" d="M621.2,197.9h-52.4c-2.2,0-4-1.7-4-4v-0.8c0-2.2,1.7-4,4-4h52.4c2.2,0,4,1.7,4,4v0.8
	C625.1,196.1,623.4,197.9,621.2,197.9z"/>
<path id="XMLID_122_" class="st2" d="M659.8,197.9h-26c-2.2,0-4-1.7-4-4v-0.8c0-2.2,1.7-4,4-4h26c2.2,0,4,1.7,4,4v0.8
	C663.8,196.1,662.1,197.9,659.8,197.9z"/>
<path id="XMLID_198_" class="st2" d="M705.3,197.9h-26c-2.2,0-4-1.7-4-4v-0.8c0-2.2,1.7-4,4-4h26c2.2,0,4,1.7,4,4v0.8
	C709.2,196.1,707.3,197.9,705.3,197.9z"/>
<path id="XMLID_189_" class="st2" d="M637.2,216.1h-77.9c-2.2,0-4-1.7-4-4v-0.8c0-2.2,1.7-4,4-4h77.9c2.2,0,4,1.7,4,4v0.8
	C641.1,214.3,639.4,216.1,637.2,216.1z"/>
<path id="XMLID_124_" class="st2" d="M695.2,216.1h-33.9c-2.2,0-4-1.7-4-4v-0.8c0-2.2,1.7-4,4-4h33.9c2.2,0,4,1.7,4,4v0.8
	C699.1,214.3,697.4,216.1,695.2,216.1z"/>
<path id="XMLID_31_" class="st10" d="M698.5,259.8V252c0-6.2-5.1-11.1-11.1-11.1H513.6c-6.2,0-11.1,5.1-11.1,11.1v7.8
	c0,15.4,12.5,27.9,27.9,27.9h195.3l0,0C710.5,287.2,698.5,274.8,698.5,259.8z"/>
<g id="XMLID_303_">
	<path id="XMLID_162_" class="st30" d="M1102.8,335.2c1-4.8,8.9-39,39.4-52.3c3-1.3,38-16,53.4,3.5c10,12.7,8.2,35.3-7,52.3"/>
	<path id="XMLID_163_" class="st30" d="M1138.8,347.9c-0.3-3.2-2.9-30.4,13.9-41.8c5.9-4,16-7.3,19.8-3.5c3.8,3.8,1.3,14.3-7,25.5"
		/>
	<path id="XMLID_164_" class="st30" d="M1143.4,212c-11.7,12.2-44.3,47.2-37.2,56.9c6.5,8.9,43.4-6.5,60.5-15
		c22.6-11.4,38.6-25,48.8-34.8"/>
	<path id="XMLID_288_" class="st30" d="M1264.2,234c-22.8-1.7-41.8,7.4-47.7,22c-4.9,12.4,1.1,25.2,4.6,32.5
		c11.4,24.1,34.5,34.1,42.9,37.2"/>
	<path id="XMLID_289_" class="st30" d="M1271.2,270.1c-8.9-9.3-20.4-9.8-24.4-5.9c-4,4.1-3,16,7,24.4"/>
	<path id="XMLID_87_" class="st30" d="M1055.6,328.7c-15-5.9-21.7-21.5-16.8-33.1c4.3-10.3,17.3-16.3,25.5-13.3
		c10.6,3.8,17.3,23.6,9.3,48.1"/>
	<path id="XMLID_84_" class="st30" d="M973.3,273.6c14.9-3.3,29.9,2.1,37.7,13.3c10,14.4,6.8,36.6-9.3,49.4"/>
	<path id="XMLID_295_" class="st30" d="M1074.3,230c-17.6,5.9-26.6,18.8-24.4,27.2c2.4,8.9,17.1,14.3,26.8,11.1
		c13.8-4.4,22.3-28,17.4-58.8"/>
	<path id="XMLID_300_" class="st30" d="M1091.7,284c-4.9,5.5-1.6,14.9,2.4,16.3c5.5,2.1,16.8-9.8,14.6-15
		C1106.9,281.2,1097,278.2,1091.7,284z"/>
	<path id="XMLID_302_" class="st30" d="M1032.5,274c-2.9-5.2-17.7-30.4-48.8-39"/>
</g>
<g id="XMLID_191_">
	<path id="XMLID_201_" class="st16" d="M798.6,182.2v7c0,30.7,25,55.8,55.8,55.8h171.4c30.7,0,55.8-25,55.8-55.8v-7H798.6z"/>
</g>
<path id="XMLID_79_" class="st17" d="M889.8,182.2v7c0,30.7,25,55.8,55.8,55.8h80.1c30.7,0,55.8-25,55.8-55.8v-7H889.8z"/>
<path id="XMLID_223_" class="st16" d="M912.5,182.2v7c0,21.2,17.3,38.3,38.3,38.3h80.1c21.2,0,38.3-17.3,38.3-38.3v-7H912.5z"/>
<path id="XMLID_72_" class="st18" d="M907.2,182.2v7c0,21.2,17.3,38.3,38.3,38.3h80.1c21.2,0,38.3-17.3,38.3-38.3v-7H907.2z"/>
<path id="XMLID_243_" class="st28" d="M872.7,199.6h-59.4c-3,0-5.5-2.5-5.5-5.5V193c0-3,2.5-5.5,5.5-5.5h59.4c3,0,5.5,2.5,5.5,5.5
	v1.1C878.2,197.1,875.7,199.6,872.7,199.6z"/>
<path id="XMLID_18_" class="st21" d="M681.4,102.2h-20.1c-3,0-5.4-2.4-5.4-5.4V81.3c0-3,2.4-5.4,5.4-5.4h20.1c3,0,5.4,2.4,5.4,5.4
	v15.5C686.8,99.8,684.4,102.2,681.4,102.2z"/>
<path id="XMLID_2_" class="st7" d="M676.1,102.2H656c-3,0-5.4-2.4-5.4-5.4V81.3c0-3,2.4-5.4,5.4-5.4h20.1c3,0,5.4,2.4,5.4,5.4v15.5
	C681.5,99.8,679.2,102.2,676.1,102.2z"/>
<g id="XMLID_30_" class="st31">
	<path id="XMLID_26_" class="st21" d="M1164.6,53.3h-5.4c-0.8,0-1.3-0.6-1.3-1.3v-2.2c0-0.8,0.6-1.3,1.3-1.3h5.4
		c0.8,0,1.3,0.6,1.3,1.3V52C1165.9,52.8,1165.2,53.3,1164.6,53.3z"/>
	<path id="XMLID_34_" class="st21" d="M1179.5,53.3h-5.4c-0.8,0-1.3-0.6-1.3-1.3v-2.2c0-0.8,0.6-1.3,1.3-1.3h5.4
		c0.8,0,1.3,0.6,1.3,1.3V52C1180.9,52.8,1180.3,53.3,1179.5,53.3z"/>
</g>
<rect id="XMLID_77_" x="1167.6" y="35.2" class="st32" width="3.3" height="4.6"/>
<path id="XMLID_22_" class="st18" d="M1185.7,130.7H1153c-3.5,0-6.3-2.9-6.3-6.3V91.8c0-3.5,2.9-6.3,6.3-6.3h32.6
	c3.5,0,6.3,2.9,6.3,6.3v32.6C1192,127.9,1189.1,130.7,1185.7,130.7z"/>
</svg>
