<?xml version="1.0" encoding="utf-8"?>
<!-- Generator: Adobe Illustrator 24.0.1, SVG Export Plug-In . SVG Version: 6.00 Build 0)  -->
<svg version="1.1" id="Layer_1" xmlns="http://www.w3.org/2000/svg" xmlns:xlink="http://www.w3.org/1999/xlink" x="0px" y="0px"
	 viewBox="0 0 1000 1000" style="enable-background:new 0 0 1000 1000;" xml:space="preserve">
<style type="text/css">
	.st0{fill:#F8F8F8;}
	.st1{opacity:0.81;fill:#C1C1C1;enable-background:new    ;}
	.st2{opacity:0.85;fill:#DDDDDD;enable-background:new    ;}
	.st3{fill:#030303;}
	.st4{fill:none;stroke:#000000;stroke-width:8;stroke-linecap:round;stroke-linejoin:round;stroke-miterlimit:10;}
	.st5{fill:#D17F4D;}
	.st6{fill:none;stroke:#C57442;stroke-width:6;stroke-linecap:round;stroke-linejoin:round;stroke-miterlimit:10;}
	.st7{fill:#B3B3B3;}
	.st8{fill:#D7D7D7;}
	.st9{fill:#C1C1C1;}
	.st10{fill:#E7E7E7;}
	.st11{fill:#DFE1E0;}
	.st12{fill:#272727;}
	.st13{fill:#212121;}
	.st14{fill:#4C4C4C;}
	.st15{opacity:0.2;fill:#020202;enable-background:new    ;}
	.st16{fill:#3E3E3E;}
	.st17{fill:#2C2C2C;}
	.st18{fill:#121212;}
	.st19{fill:#A55137;}
	.st20{fill:none;stroke:#000000;stroke-linecap:round;stroke-linejoin:round;stroke-miterlimit:10;}
	.st21{fill:#0E0E0E;}
	.st22{fill:#17E09C;}
	.st23{fill:#932B3A;}
	.st24{fill:#1F1F1F;}
	.st25{fill:#313131;}
	.st26{fill:#5A5A5A;}
	.st27{fill:#676767;}
	.st28{fill:#4D4D4D;}
	.st29{fill:#BA8F1C;}
	.st30{fill:none;stroke:#9D472E;stroke-width:6;stroke-linecap:round;stroke-linejoin:round;stroke-miterlimit:10;}
	.st31{opacity:0.54;}
	.st32{opacity:0.54;fill:#0E0E0E;enable-background:new    ;}
</style>
<path id="XMLID_19_" class="st0" d="M768.9,525.8h-51.4c-2.2,0-4-1.8-4-4v-91c0-2.2,1.8-4,4-4h51.4c2.2,0,4,1.8,4,4v91
	C772.9,524,771.1,525.8,768.9,525.8z"/>
<path id="XMLID_41_" class="st1" d="M729.6,509.7l17.3,16.2h21.9c2.2,0,4-1.8,4-4v-30.2l-15.8-9.3L729.6,509.7z"/>
<path id="XMLID_21_" class="st2" d="M753.1,471.3h-20.6c-2.2,0-4-1.8-4-4v-20.6c0-2.2,1.8-4,4-4h20.6c2.2,0,4,1.8,4,4v20.6
	C757.1,469.5,755.3,471.3,753.1,471.3z"/>
<path id="XMLID_5_" class="st3" d="M756.1,510.9h-20.6c-2.2,0-4-1.8-4-4v-20.6c0-2.2,1.8-4,4-4h20.6c2.2,0,4,1.8,4,4v20.6
	C760.1,509.1,758.3,510.9,756.1,510.9z"/>
<path id="XMLID_298_" class="st4" d="M745.1,502v41.1c0,6.5,5.3,11.8,11.8,11.8h13.7c6.5,0,11.8,5.3,11.8,11.8l0,0
	c0,6.5-5.3,11.8-11.8,11.8H621"/>
<path id="XMLID_16_" class="st5" d="M788.8,629.3H236.1c-6,0-10.9-4.9-10.9-10.9v-24.5c0-6,4.9-10.9,10.9-10.9h552.8
	c6,0,10.9,4.9,10.9,10.9v24.5C799.7,624.4,794.8,629.3,788.8,629.3z"/>
<g id="XMLID_119_">
	<path id="XMLID_116_" class="st6" d="M559,645.8c-16.7-28.6,25.1-60.4,68.8-65.4"/>
	<path id="XMLID_1_" class="st6" d="M472.8,629.2c3.1-3.1,10.2-9.2,20.5-10.6c3.4-0.5,8.3-1.1,13.6,1.5c7.4,3.6,10,11,10.6,12.8"/>
	<path id="XMLID_6_" class="st6" d="M227.3,570.9c1.1,3.2,19.8,16.4,46.1,24.3c26.3,7.8,58.1-1.5,72.6-31.9"/>
	<path id="XMLID_106_" class="st6" d="M212.9,605.1c13.2-8.8,30.7-5.9,39.6,5.5c7.7,9.8,7.9,24.3,0,35.2"/>
	<path id="XMLID_185_" class="st6" d="M222.4,620.9c5.2-5.8,12-7.9,15.4-5.9c4,2.4,5.3,11.8-1.1,20.5"/>
	<path id="XMLID_187_" class="st6" d="M276.4,609.2c-3.5,1.2-8.5,4.9-7.7,9.6c0.7,4.5,6.2,7.2,10.5,6.6c6.6-0.9,15.8-3.9,16-14.3
		C295.3,607.6,280.1,607.9,276.4,609.2z"/>
	<path id="XMLID_192_" class="st6" d="M298.7,648c4.1-8,9.2-38.1,57.2-50.6c41.9-11,90.9,7.9,118.9,52.1"/>
	<path id="XMLID_194_" class="st6" d="M345.7,620.6c-15.6,16.4,5.2,39.8,30-3.4c6.9-12.1,33.5,3.8,42.9,26.4"/>
	<path id="XMLID_199_" class="st6" d="M599.7,649.5c-9.6-2.8-15.2-25.9-14.3-32.8c0.9-6.6,7.6-11.4,13.2-12.1
		c10.3-1.4,22.9,10.1,29.2,29.7"/>
	<path id="XMLID_202_" class="st6" d="M461.5,565.2c-1.3,2.2-6.5,11.1-3.7,21.3c3.6,13,18,19.3,28.6,19.1
		c15.4-0.3,30.2-14.4,33-34.5"/>
	<path id="XMLID_197_" class="st6" d="M548.9,565.9c-5,4.9-36.5,33.7-10.9,69.1"/>
	<path id="XMLID_262_" class="st6" d="M548.2,600.3c6-6.5,21.6-21.8,45.5-24.9c6.6-0.9,12.5-0.7,17.6,0"/>
	<path id="XMLID_3_" class="st6" d="M603.5,617.4c-2,0.1-4.9,3.8-3.5,7c1.5,3.4,6.7,3.6,8,2C609.7,624.3,606.3,617.3,603.5,617.4z"
		/>
	<path id="XMLID_4_" class="st6" d="M389.5,623.9c-3.6-0.4-9.3,5.5-7.5,10.5c1.8,4.8,9.4,5.9,12,3.5
		C397.3,634.8,393.8,624.4,389.5,623.9z"/>
</g>
<path id="XMLID_9_" class="st7" d="M587.7,428.8H389.8V368c0-5.5,4.5-10,10-10h177.8c5.5,0,10,4.5,10,10v60.8H587.7z"/>
<path id="XMLID_7_" class="st8" d="M581,428.8H383.1V368c0-5.5,4.5-10,10-10H571c5.5,0,10,4.5,10,10V428.8z"/>
<polygon id="XMLID_43_" class="st9" points="581,410.7 562.9,398.2 562.9,441 581,441 "/>
<path id="XMLID_15_" class="st10" d="M553.8,428.8h-139v-99.9c0-3.9,3.1-7,7-7h126c3.3,0,6,2.7,6,6V428.8z"/>
<path id="XMLID_12_" class="st0" d="M549.9,428.8H409v-99.9c0-3.9,3.1-7,7-7h127.9c3.3,0,6,2.7,6,6V428.8z"/>
<path id="XMLID_8_" class="st11" d="M398.3,441h-29.4v-30.8c0-6.6,5.4-12,12-12h17.4V441z"/>
<path id="XMLID_11_" class="st7" d="M408.5,441h-29.4v-30.8c0-6.6,5.4-12,12-12h17.4V441z"/>
<path id="XMLID_14_" class="st11" d="M552.7,441h-29.4v-30.8c0-6.6,5.4-12,12-12h17.4V441z"/>
<path id="XMLID_13_" class="st7" d="M562.9,441h-29.4v-30.8c0-6.6,5.4-12,12-12h17.4V441z"/>
<polygon id="XMLID_25_" class="st9" points="408.5,398.2 470.3,441 426.6,441 408.5,441 "/>
<rect id="XMLID_32_" x="297.8" y="524.2" class="st3" width="380.8" height="33.5"/>
<rect id="XMLID_27_" x="300.6" y="483.4" class="st12" width="268.5" height="81.4"/>
<polygon id="XMLID_71_" points="529.3,580.4 363.5,580.4 363.5,514.3 517.4,514.3 517.4,550.1 529.3,557.5 "/>
<path id="XMLID_35_" class="st13" d="M523.1,500.1H391.6c-10.8,0-19.5,8.7-19.5,19.5v39H390v-33.9c0-4.8,3.9-8.7,8.7-8.7h16.9
	c2.7,0,4.9,2.2,4.9,4.9v2.3h19.4c1.3,0,2.3-1.1,2.3-2.3l0,0c0-2.7,2.2-4.9,4.9-4.9h20.7c2.7,0,4.9,2.2,4.9,4.9v2.3h19.4
	c1.3,0,2.3-1.1,2.3-2.3l0,0c0-2.7,2.2-4.9,4.9-4.9h16.9c4.8,0,8.7,3.9,8.7,8.7v10h17.9v-15.1C542.6,508.8,533.9,500.1,523.1,500.1z"
	/>
<path id="XMLID_123_" class="st14" d="M507.3,500.1H375.8c-10.8,0-19.5,8.7-19.5,19.5v39h17.9v-33.9c0-4.8,3.9-8.7,8.7-8.7h16.9
	c2.7,0,4.9,2.2,4.9,4.9l0,0c0,1.3,1.1,2.3,2.3,2.3h17c1.3,0,2.3-1.1,2.3-2.3l0,0c0-2.7,2.2-4.9,4.9-4.9h20.7c2.7,0,4.9,2.2,4.9,4.9
	l0,0c0,1.3,1.1,2.3,2.3,2.3h17c1.3,0,2.3-1.1,2.3-2.3l0,0c0-2.7,2.2-4.9,4.9-4.9h16.9c4.8,0,8.7,3.9,8.7,8.7v10h17.9v-15.1
	C526.8,508.8,518,500.1,507.3,500.1z"/>
<path id="XMLID_114_" class="st12" d="M506,554.6H346.8V583h162.9h35.2C528.9,583,510.8,571.7,506,554.6z"/>
<polygon id="XMLID_33_" class="st13" points="503.7,558.8 505.9,554.6 481.3,554.6 478.7,560.4 "/>
<path id="XMLID_111_" class="st14" d="M503.7,558.8h-158V583h162.9h35.2C527.8,583,508.5,573.4,503.7,558.8z"/>
<path id="XMLID_304_" class="st15" d="M488.4,548.2H371.5c-13.2,0-24,10.7-24,24v18.6l0,0v17.8c0,5,4.1,9.1,9.1,9.1h114.2
	c9.7,0,17.6-7.9,17.6-17.6v-23c0-13.2,10.7-24,24-24h7.7v-4.9L488.4,548.2L488.4,548.2z"/>
<path id="XMLID_186_" class="st16" d="M652.2,428.9h-328c-19.4,0-35.2,15.8-35.2,35.2v73.7h56.9V518c0-9.7,7.9-17.6,17.6-17.6h127.7
	c9.7,0,17.6,7.9,17.6,17.6v19.8h178.6v-73.7C687.4,444.7,671.6,428.9,652.2,428.9z"/>
<path id="XMLID_70_" class="st17" d="M687.4,537.9v-73.7c0-19.4-15.8-35.2-35.2-35.2h-50.6c-19.4,0-35.2,15.8-35.2,35.2v73.7H687.4z
	"/>
<path id="XMLID_121_" class="st16" d="M679.7,537.9v-73.7c0-13.4-10.9-24.2-24.2-24.2h-50.6c-13.4,0-24.2,10.9-24.2,24.2v73.7H679.7
	z"/>
<path id="XMLID_73_" class="st18" d="M676.4,537.9v-73.7c0-13.4-10.9-24.2-24.2-24.2h-50.6c-13.4,0-24.2,10.9-24.2,24.2v73.7H676.4z
	"/>
<path id="XMLID_17_" class="st19" d="M788.8,629.3H636.7c-6,0-10.9-4.9-10.9-10.9v-24.5c0-6,4.9-10.9,10.9-10.9h152.1
	c6,0,10.9,4.9,10.9,10.9v24.5C799.7,624.4,794.8,629.3,788.8,629.3z"/>
<g id="XMLID_28_">
	<path id="XMLID_24_" class="st20" d="M669,450.6"/>
	<path id="XMLID_42_" class="st20" d="M306.5,581"/>
</g>
<rect id="XMLID_183_" x="407.9" y="532.2" class="st13" width="14.9" height="8.3"/>
<rect id="XMLID_39_" x="468.9" y="532.2" class="st13" width="14.9" height="8.3"/>
<rect id="XMLID_37_" x="394.7" y="532.2" class="st14" width="14.9" height="8.3"/>
<rect id="XMLID_109_" x="455.6" y="532.2" class="st14" width="14.9" height="5.7"/>
<rect id="XMLID_29_" x="409.6" y="537.4" class="st14" width="60.9" height="3.1"/>
<path id="XMLID_224_" class="st14" d="M548,428.9H321.7v3.1c0,18.6,15.1,33.7,33.7,33.7h158.8c18.6,0,33.7-15.1,33.7-33.7L548,428.9
	L548,428.9z"/>
<path id="XMLID_233_" class="st21" d="M355.4,458.1h158.8c17.1,0,31.2-12.7,33.4-29.2H322C324.2,445.4,338.3,458.1,355.4,458.1z"/>
<path id="XMLID_86_" class="st22" d="M368.9,450.2h-9.1c-1.2,0-2.2-1-2.2-2.2v-0.4c0-1.2,1-2.2,2.2-2.2h9.1c1.2,0,2.2,1,2.2,2.2v0.4
	C371.1,449.2,370.1,450.2,368.9,450.2z"/>
<path id="XMLID_184_" class="st23" d="M379,450.2h-2.3c-1.2,0-2.2-1-2.2-2.2v-0.4c0-1.2,1-2.2,2.2-2.2h2.3c1.2,0,2.2,1,2.2,2.2v0.4
	C381.2,449.2,380.2,450.2,379,450.2z"/>
<path id="XMLID_105_" class="st24" d="M509.1,447.4h-75.4c-2.8,0-5.1-2.3-5.1-5.1v-1c0-2.8,2.3-5.1,5.1-5.1h75.4
	c2.8,0,5.1,2.3,5.1,5.1v1C514.1,445.1,511.9,447.4,509.1,447.4z"/>
<path id="XMLID_225_" class="st25" d="M449,447.4h-15.3c-2.8,0-5.1-2.3-5.1-5.1v-1c0-2.8,2.3-5.1,5.1-5.1H449c2.8,0,5.1,2.3,5.1,5.1
	v1C454.1,445.1,451.8,447.4,449,447.4z"/>
<path id="XMLID_226_" class="st26" d="M453.9,465.8h-71.3c-1.9,0-3.5-1.6-3.5-3.5v-0.7c0-1.9,1.6-3.5,3.5-3.5h71.3
	c1.9,0,3.5,1.6,3.5,3.5v0.7C457.4,464.2,455.8,465.8,453.9,465.8z"/>
<path id="XMLID_228_" class="st27" d="M410.2,465.8h-17.6c-1.9,0-3.5-1.6-3.5-3.5v-0.7c0-1.9,1.6-3.5,3.5-3.5h17.6
	c1.9,0,3.5,1.6,3.5,3.5v0.7C413.7,464.2,412.1,465.8,410.2,465.8z"/>
<path id="XMLID_193_" class="st16" d="M345.9,543.4H289v4.4c0,19.4,15.8,35.2,35.2,35.2h21.6L345.9,543.4L345.9,543.4z"/>
<path id="XMLID_247_" class="st28" d="M336.2,554.4h-37.5c-1.9,0-3.5-1.6-3.5-3.5v-0.7c0-1.9,1.6-3.5,3.5-3.5h37.5
	c1.9,0,3.5,1.6,3.5,3.5v0.7C339.7,552.8,338.1,554.4,336.2,554.4z"/>
<circle id="XMLID_239_" class="st29" cx="523.3" cy="442.2" r="3.7"/>
<path id="XMLID_259_" class="st0" d="M477.4,540.4H360.5c-13.2,0-24,10.7-24,24V583h71.4v27h51.8c9.7,0,17.6-7.9,17.6-17.6v-23
	c0-13.2,10.7-24,24-24h16.2v-4.9L477.4,540.4L477.4,540.4z"/>
<path id="XMLID_115_" class="st2" d="M396.7,553.3h-33.1c-1.4,0-2.5-1.1-2.5-2.5v-0.5c0-1.4,1.1-2.5,2.5-2.5h33.1
	c1.4,0,2.5,1.1,2.5,2.5v0.5C399.2,552.2,398.1,553.3,396.7,553.3z"/>
<path id="XMLID_122_" class="st2" d="M421.1,553.3h-16.4c-1.4,0-2.5-1.1-2.5-2.5v-0.5c0-1.4,1.1-2.5,2.5-2.5h16.4
	c1.4,0,2.5,1.1,2.5,2.5v0.5C423.6,552.2,422.5,553.3,421.1,553.3z"/>
<path id="XMLID_198_" class="st2" d="M449.8,553.3h-16.4c-1.4,0-2.5-1.1-2.5-2.5v-0.5c0-1.4,1.1-2.5,2.5-2.5h16.4
	c1.4,0,2.5,1.1,2.5,2.5v0.5C452.3,552.2,451.1,553.3,449.8,553.3z"/>
<path id="XMLID_189_" class="st2" d="M406.8,564.8h-49.2c-1.4,0-2.5-1.1-2.5-2.5v-0.5c0-1.4,1.1-2.5,2.5-2.5h49.2
	c1.4,0,2.5,1.1,2.5,2.5v0.5C409.3,563.7,408.2,564.8,406.8,564.8z"/>
<path id="XMLID_124_" class="st2" d="M443.4,564.8H422c-1.4,0-2.5-1.1-2.5-2.5v-0.5c0-1.4,1.1-2.5,2.5-2.5h21.4
	c1.4,0,2.5,1.1,2.5,2.5v0.5C445.9,563.7,444.8,564.8,443.4,564.8z"/>
<path id="XMLID_31_" class="st10" d="M445.5,592.4v-4.9c0-3.9-3.2-7-7-7H328.8c-3.9,0-7,3.2-7,7v4.9c0,9.7,7.9,17.6,17.6,17.6h123.3
	l0,0C453.1,609.7,445.5,601.9,445.5,592.4z"/>
<g id="XMLID_303_">
	<path id="XMLID_162_" class="st30" d="M700.8,640c0.6-3,5.6-24.6,24.9-33c1.9-0.8,24-10.1,33.7,2.2c6.3,8,5.2,22.3-4.4,33"/>
	<path id="XMLID_163_" class="st30" d="M723.5,648c-0.2-2-1.8-19.2,8.8-26.4c3.7-2.5,10.1-4.6,12.5-2.2c2.4,2.4,0.8,9-4.4,16.1"/>
	<path id="XMLID_164_" class="st30" d="M726.4,562.2c-7.4,7.7-28,29.8-23.5,35.9c4.1,5.6,27.4-4.1,38.2-9.5
		c14.3-7.2,24.4-15.8,30.8-22"/>
	<path id="XMLID_288_" class="st30" d="M802.7,576.1c-14.4-1.1-26.4,4.7-30.1,13.9c-3.1,7.8,0.7,15.9,2.9,20.5
		c7.2,15.2,21.8,21.5,27.1,23.5"/>
	<path id="XMLID_289_" class="st30" d="M807.1,598.9c-5.6-5.9-12.9-6.2-15.4-3.7c-2.5,2.6-1.9,10.1,4.4,15.4"/>
	<path id="XMLID_87_" class="st30" d="M671,635.9c-9.5-3.7-13.7-13.6-10.6-20.9c2.7-6.5,10.9-10.3,16.1-8.4
		c6.7,2.4,10.9,14.9,5.9,30.4"/>
	<path id="XMLID_84_" class="st30" d="M619,601.1c9.4-2.1,18.9,1.3,23.8,8.4c6.3,9.1,4.3,23.1-5.9,31.2"/>
	<path id="XMLID_295_" class="st30" d="M682.8,573.6c-11.1,3.7-16.8,11.9-15.4,17.2c1.5,5.6,10.8,9,16.9,7
		c8.7-2.8,14.1-17.7,11-37.1"/>
	<path id="XMLID_300_" class="st30" d="M693.8,607.7c-3.1,3.5-1,9.4,1.5,10.3c3.5,1.3,10.6-6.2,9.2-9.5
		C703.4,605.9,697.1,604,693.8,607.7z"/>
	<path id="XMLID_302_" class="st30" d="M656.4,601.4c-1.8-3.3-11.2-19.2-30.8-24.6"/>
</g>
<g id="XMLID_191_">
	<path id="XMLID_201_" class="st16" d="M508.7,543.4v4.4c0,19.4,15.8,35.2,35.2,35.2h108.2c19.4,0,35.2-15.8,35.2-35.2v-4.4H508.7z"
		/>
</g>
<path id="XMLID_79_" class="st17" d="M566.3,543.4v4.4c0,19.4,15.8,35.2,35.2,35.2h50.6c19.4,0,35.2-15.8,35.2-35.2v-4.4H566.3z"/>
<path id="XMLID_223_" class="st16" d="M580.6,543.4v4.4c0,13.4,10.9,24.2,24.2,24.2h50.6c13.4,0,24.2-10.9,24.2-24.2v-4.4H580.6z"/>
<path id="XMLID_72_" class="st18" d="M577.3,543.4v4.4c0,13.4,10.9,24.2,24.2,24.2h50.6c13.4,0,24.2-10.9,24.2-24.2v-4.4H577.3z"/>
<path id="XMLID_243_" class="st28" d="M555.5,554.4H518c-1.9,0-3.5-1.6-3.5-3.5v-0.7c0-1.9,1.6-3.5,3.5-3.5h37.5
	c1.9,0,3.5,1.6,3.5,3.5v0.7C559,552.8,557.4,554.4,555.5,554.4z"/>
<path id="XMLID_18_" class="st21" d="M434.7,492.9H422c-1.9,0-3.4-1.5-3.4-3.4v-9.8c0-1.9,1.5-3.4,3.4-3.4h12.7
	c1.9,0,3.4,1.5,3.4,3.4v9.8C438.1,491.4,436.6,492.9,434.7,492.9z"/>
<path id="XMLID_2_" class="st7" d="M431.4,492.9h-12.7c-1.9,0-3.4-1.5-3.4-3.4v-9.8c0-1.9,1.5-3.4,3.4-3.4h12.7
	c1.9,0,3.4,1.5,3.4,3.4v9.8C434.8,491.4,433.3,492.9,431.4,492.9z"/>
<g id="XMLID_30_" class="st31">
	<path id="XMLID_26_" class="st21" d="M739.8,462h-3.4c-0.5,0-0.8-0.4-0.8-0.8v-1.4c0-0.5,0.4-0.8,0.8-0.8h3.4
		c0.5,0,0.8,0.4,0.8,0.8v1.4C740.6,461.7,740.2,462,739.8,462z"/>
	<path id="XMLID_34_" class="st21" d="M749.2,462h-3.4c-0.5,0-0.8-0.4-0.8-0.8v-1.4c0-0.5,0.4-0.8,0.8-0.8h3.4
		c0.5,0,0.8,0.4,0.8,0.8v1.4C750.1,461.7,749.7,462,749.2,462z"/>
</g>
<rect id="XMLID_77_" x="741.7" y="450.6" class="st32" width="2.1" height="2.9"/>
<path id="XMLID_22_" class="st18" d="M753.1,510.9h-20.6c-2.2,0-4-1.8-4-4v-20.6c0-2.2,1.8-4,4-4h20.6c2.2,0,4,1.8,4,4v20.6
	C757.1,509.1,755.3,510.9,753.1,510.9z"/>
</svg>
